<?xml version="1.0" encoding="utf-8"?>
<!-- Generator: Adobe Illustrator 22.0.1, SVG Export Plug-In . SVG Version: 6.00 Build 0)  -->
<svg version="1.1" id="Capa_1" xmlns="http://www.w3.org/2000/svg" xmlns:xlink="http://www.w3.org/1999/xlink" x="0px" y="0px"
	 width="600px" height="600px" viewBox="0 0 600 600" style="enable-background:new 0 0 600 600;" xml:space="preserve">
<style type="text/css">
	.st0{fill:#FFFFFF;}
</style>
<g>
	<path class="st0" d="M55.8,414.3c1.5-3.5,1.6-7.3,2.2-11c2.3-13.6,4.5-27.2,6.6-40.8c2.5-15.8,4.9-31.7,7.4-47.5
		c2.5-16.1,5-32.2,7.5-48.4c2.1-13.9,4.2-27.8,6.4-41.7c2.4-15.5,5-30.9,7.5-46.3c1.6-10.1,3.1-20.2,4.7-30.2
		c0.2-1.5,0.5-2.9,1.3-4.2c0.5-0.9,1.1-1.6,2.1-1.8c6.9-1.3,13.5-3.7,20.1-5.9c4.1-1.3,8.4-1.2,12.6-1.4c4.1-0.2,4.1-0.1,5.4,3.9
		c23.9,73,47.8,146,71.7,219.1c1,2.9,0.3,5.6-0.1,8.4c-1.8,12.6-3.8,25.2-5.7,37.8c-0.9,6.1-1.8,12.2-2.7,18.3
		c-0.4,2.7-2.4,4.3-5.3,4.4c-3.3,0.2-6.6,0.3-9.8,0.4c-14,0.4-28.1,0.7-42.1,1.1c-6.3,0.2-12.7,0.5-19,0.7c-2.3,0.1-2.9-0.7-2-2.8
		c7.8-18,12.4-36.8,14.8-56.2c2.2-18.4,3.1-36.9,2.5-55.5c-1.1-31.3-7.1-61.6-18.3-90.8c-3-7.8-7.1-15.1-11.7-22.1
		c-1.3-1.9-1.5-3.8-1.2-5.9c2.2-14.8,4.4-29.7,6.6-44.5c0.5-3.4,1-6.8,1.5-10.5c-4.7,1.3-9.1,2.3-13.5,3.7c-2.2,0.7-2.9,2.9-3.3,5
		c-1.1,6.5-2.1,13.1-3.1,19.7c-2.6,16.8-5.3,33.6-7.9,50.4c-2.9,18.3-5.8,36.5-8.7,54.8c-3.4,21.1-6.7,42.1-10.1,63.2
		c-3.1,19-6.1,38-9.2,57c-1,6-2,12.1-3,18.1c-0.4,2.3,0,3.8,2.3,5.1c4.1,2.2,7.9,4.8,12.1,7.4c0.5-3.4,1.1-6.6,1.6-9.8
		c2.8-18,5.5-36,8.3-54c4.1-27,8.3-54,12.4-81c3.6-23.4,7.1-46.8,10.6-70.2c0.1-0.7,0.1-1.5,0.3-2.2c0.1-0.6-0.4-1.5,0.5-1.7
		c0.8-0.2,1.2,0.5,1.6,1c2.6,2.7,4.4,6,6.2,9.3c6.6,12.2,11.3,25,14.5,38.6c2.3,9.9,4.8,19.7,6.1,29.8c1.5,11.8,1.5,23.7,1.8,35.6
		c0.8,26.7-2.8,52.9-9.5,78.6c-2.6,9.7-6.2,19.1-10.4,28.2c-0.6,1.3-1.3,1.8-2.8,1.8c-11.9,0.1-23.8,0.2-35.6,0.4
		c-4.3,0-8.2-1-11.9-3.2c-3.3-2-6.7-3.9-10.1-5.8c-1-0.5-1.7-1.2-2.2-2.1C55.8,417,55.8,415.7,55.8,414.3z"/>
	<path class="st0" d="M300.2,529.1c-2.3-0.5-4.6-0.8-6.9-1.4c-11.4-2.6-22.4-12.9-21.9-29.1c0.5-13.5,9.4-24.6,22.8-27.3
		c7.8-1.6,15.6-1.4,23.2,1.2c10.7,3.7,17.6,13.1,18.3,24.4c0.6,10.6-2.6,19.6-11.4,26.1c-4.6,3.4-9.9,5-15.6,5.6
		c-0.6,0.1-1.4-0.4-1.8,0.4C304.7,529.1,302.4,529.1,300.2,529.1z M314.1,499.8c0.1-2.8-0.1-5.5-1.2-8.1c-1.6-3.9-4.4-6.3-8.8-6.5
		c-4.4-0.2-8.1,2.1-9.7,6.2c-2.2,5.6-2.2,11.4,0.1,17c1.6,4,5.3,6.1,9.6,6c4-0.1,7.3-2.5,8.8-6.5
		C313.9,505.3,314.2,502.6,314.1,499.8z"/>
	<path class="st0" d="M200.6,529.1c-2.2-1.1-4.7-0.8-7.1-1.3c-8.7-1.8-14.4-6.8-16.7-15.7c6.8-0.6,13.5-1.2,20.2-1.9
		c0.9-0.1,1.3,0.3,1.7,1c2.9,5.7,9.3,7.7,15,4.9c1.8-0.9,3.3-2.2,3.1-4.5c-0.2-2.2-1.7-3.2-3.6-3.7c-5.4-1.6-11.1-2.1-16.6-3.4
		c-4.1-1-8.3-1.9-11.7-4.8c-8.1-7.1-7.3-19.2,1.8-25c4.3-2.7,9.1-3.7,14-4c6-0.4,12.1-0.4,18.1,0.7c7.4,1.4,12.4,5.9,15.3,12.7
		c0.4,1.1,0.3,1.4-0.9,1.5c-5.9,0.5-11.7,1.1-17.6,1.7c-1,0.1-1.4-0.2-1.8-1.1c-2.1-4.2-9.3-6-13.3-3.4c-1.3,0.9-2.2,2.1-2,3.7
		c0.2,1.7,1.5,2.6,2.9,3c3.6,1.1,7.3,1.4,11,1.9c4.1,0.6,8.3,1.2,12.2,2.7c6.5,2.4,11.1,6.7,11.7,13.9c0.6,7.2-2.7,12.7-8.7,16.5
		c-4.2,2.6-8.9,3.7-13.8,4.2c-0.7,0.1-1.5-0.4-2,0.5C208.1,529.1,204.4,529.1,200.6,529.1z"/>
	<path class="st0" d="M310.8,213.2c1.3-3.9,2.5-7.4,3.7-10.9c12.6-38.1,25.2-76.3,37.8-114.4c0.4-1.1,1-1.9,1.9-2.7
		c5.1-4,10.2-8,15.2-12.2c1.1-0.9,2.2-1.3,3.6-1.3c9.5,0,19,0,28.5,0c23.6,0,47.2-0.1,70.8-0.1c0.9,0,1.8,0,2.7,0.1
		c3.9,0.5,6.2,3.5,5,7.3c-2.2,7.7-4.7,15.4-7.1,23c-3.6,11.7-7.3,23.3-10.9,35.1c2.5-0.1,4.9-0.8,7.2-1.5c3.9-1.1,7.8-1.3,11.7-1.1
		c3,0.1,6,0.2,9,0.3c2.6,0.1,3.6,0.9,4,3.5c3,18.9,5.9,37.9,9,56.8c0.4,2.6,0.1,4.6-1.3,6.7c-14.8,23.1-21.8,48.9-26.3,75.6
		c-2.3,13.8-3.4,27.7-4.1,41.6c-1.7,37,4.6,72.6,17,107.3c0.2,0.5,0.3,1,0.5,1.7c-1.3,0-2.6,0-3.8,0c-19.3-0.7-38.5-1.5-57.8-2
		c-4.4-0.1-8.8-0.2-13.2-0.2c-1.7,0-3.2-0.4-4.7-1.2c-7.6-4.3-15.2-8.6-22.9-12.7c-2.1-1.2-3-2.8-3-5c0-3.9,0-7.8-0.3-11.7
		c-1.1,3.5-2.2,7-3.3,10.5c-1.2,4.1-2.5,8.1-3.7,12.2c-0.6,2.2-2,3.2-4.2,3.2c-0.6,0-1.2,0-1.8,0c-37.7,0-75.5,0-113.2,0
		c-6.3,0-12.2-2.1-18.3-3c-0.6-0.1-1.2-0.3-1.8-0.3c-3.8-0.3-5.1-2.7-6-6.1c-3.6-13-7.4-26.1-11.2-39
		c-13.3-45.3-25.9-90.9-38.9-136.3c-11.1-39.1-22.6-78.2-33.8-117.3c-2.5-8.7-4.8-17.5-7.1-26.3c-0.9-3.3-0.1-6.3,2.1-9
		c2.3-2.8,4.7-5.6,6.8-8.6c2.1-3,4.8-4.4,8.5-4.4c33.9,0,67.9,0,101.8,0c6.9,0,8.8,1.6,10.8,8.2c3.9,13.1,7.8,26.2,11.8,39.3
		C291.4,149.8,301,181.3,310.8,213.2z M150,77.5c-2.5,3.5-4.7,6.7-7,9.7c-0.9,1.1-1,2.1-0.6,3.5c26.1,90.5,52.2,181,78.3,271.6
		c4.2,14.7,8.6,29.3,12.6,44c1.1,4.1,2.5,6.4,7.1,6.6c4.5,0.2,8.9,1.3,13.7,2.1C219.3,302.4,184.7,190.2,150,77.5z M410.3,424
		c0.1-0.2,0.1-0.3,0.1-0.3c-2.6-16.4-5.2-32.7-7.8-49.1c-0.8-5.2-1.6-10.2,0.2-15.5c20.8-63.3,41.5-126.7,62.2-190
		c3.1-9.5,6.2-18.9,9.4-28.6c-0.8,0.1-1.3,0.1-1.9,0.2c-3.6,0.7-7,1.9-10.6,2.9c-1.5,0.4-2.1,1.2-2.6,2.6
		c-22.8,74.9-45.7,149.7-68.5,224.5c-2.9,9.4-6.8,18.5-5.4,28.7c0.4,2.8,0.4,5.7,0.2,8.5c-0.1,1.9,0.7,2.7,2.2,3.6
		c6.9,3.8,13.6,7.7,20.5,11.5C409,423.3,409.6,423.6,410.3,424z M459.7,75.5c-3.4-1.5-5.5-0.4-7.7,1.5c-7.2,6.2-13.9,13-20.3,19.9
		C394.3,136.7,359,178.3,324,220.3c-0.5,0.6-0.9,1.2-1.5,1.7c-0.3,0.3-0.7,0.8-1.3,0.5c-0.5-0.3-0.4-0.8-0.4-1.2
		c0.1-1.6,0.5-3.1,1-4.6c15.2-43.5,30.3-87.1,45.5-130.6c1.3-3.7,2.5-7.4,4-11.6c-5.9,4.7-11.2,8.9-16.6,13.2
		c-0.7,0.6-0.9,1.3-1.2,2.1c-13.4,41.7-26.9,83.4-40.3,125c-0.4,1.1-0.5,2.1-0.2,3.3c1.3,4.8,3.1,9.5,3.9,14.4
		c0.1,0.5,0.3,1,0.9,1.2c0.7,0.2,0.8-0.4,1.1-0.8c6.3-9.1,13-17.9,19.9-26.5c30.5-37.8,63.6-73.2,97.5-107.9
		C443.9,90.8,451.8,83.3,459.7,75.5z M156.7,79.9c0.5,4.3,1.9,7.6,4.5,10.5c1.7,2,3.2,4.1,4.9,6.1c35.5,44,68.1,90.1,98.3,137.8
		c26.6,42.1,53.2,84.1,76.5,128.2c8.5,16.1,17.4,31.9,26.2,47.8c0.4,0.8,0.9,1.5,1.5,2.2c0.6,0.6,1.4,1.1,2.2,0.7
		c0.9-0.5,0.7-1.4,0.5-2.2c-0.4-1.8-1.4-3.3-2.2-4.9c-8.4-15.8-17.3-31.2-25.8-47c-9-16.7-18-33.3-27.8-49.5
		c-20.6-34-42.3-67.4-63.8-100.9c-20.6-32.3-43-63.3-66.6-93.5C175.8,103.6,166.3,91.9,156.7,79.9z"/>
	<path class="st0" d="M505,208.8c1.1,6.7,2.1,13.4,3.2,20c2.6,16.6,5.2,33.1,7.8,49.7c2.3,14.7,4.7,29.5,7,44.2
		c1.9,11.9,3.8,23.8,5.7,35.8c2.3,14.7,4.6,29.5,6.9,44.2c1.3,8,2.5,16.1,3.9,24.1c0.3,1.8-0.4,2.7-1.9,3.2c-1,0.3-2,0.4-3.1,0.4
		c-9.8-0.5-19.5-0.9-29.3-1.3c-2.7-0.1-5.4-0.3-8.1-0.3c-1.6,0-2.5-0.5-3.2-2c-5.3-10.2-8.3-21.2-10.7-32.3
		c-2.3-10.8-4.5-21.6-5.7-32.6c-2.2-20.1-3.3-40.2-1.8-60.4c1.5-20.7,5-41.1,12-60.8c3.9-10.9,8.8-21.3,16-30.6
		c0.3-0.4,0.5-0.7,0.8-1.1C504.5,208.9,504.7,208.9,505,208.8z"/>
	<path class="st0" d="M104,506.2c5.5-17.7,10.9-35.3,16.3-53c0.5-1.5,1-2.1,2.7-2.1c6.8,0.1,13.6,0.1,20.4,0c1.5,0,1.7,0.3,1.2,1.7
		c-9.2,24.7-18.4,49.4-27.5,74.1c-0.4,1.1-0.9,1.6-2.2,1.6c-7.5-0.1-15.1-0.1-22.6,0c-1.3,0-1.8-0.4-2.3-1.6
		c-9.3-24.7-18.6-49.5-28-74.2c-0.5-1.4-0.4-1.8,1.2-1.7c7.1,0.1,14.2,0.1,21.3,0c1.7,0,2.1,0.7,2.6,2c5.4,17.3,10.8,34.7,16.2,52
		C103.4,505.6,103.3,506,104,506.2z"/>
	<path class="st0" d="M451.9,516.1c7.3-21.4,14.7-42.6,21.9-63.9c0.5-1.4,1.1-1.8,2.5-1.8c3.4,0.1,6.9,0.1,10.3,0
		c1.3,0,1.6,0.4,1.6,1.6c0,24.7,0,49.5,0,74.2c0,1.3-0.4,1.6-1.7,1.6c-2.1-0.1-4.2-0.1-6.3,0c-1.7,0.1-2.2-0.3-2.1-2.1
		c0.1-6.4,0-12.8,0-19.3c0-13.2,0-26.4,0-39.7c0-0.8,0-1.6,0-2.4c-0.1,0-0.3,0-0.4-0.1c-2.5,7.1-4.9,14.1-7.4,21.2
		c-4.7,13.4-9.3,26.9-13.9,40.3c-0.5,1.4-1.1,2.1-2.7,1.9c-2.4-0.3-5.5,1-7.2-0.5c-1.6-1.3-1.8-4.3-2.5-6.5
		c-6.4-18.8-12.7-37.5-19.1-56.3c-0.2-0.5-0.4-0.9-0.9-1.3c0,0.8,0,1.5,0,2.3c0,19.9,0,39.9,0.1,59.8c0,2.1-0.6,2.7-2.6,2.5
		c-2-0.2-4-0.1-6,0c-1,0-1.4-0.3-1.3-1.3c0-0.4,0-0.7,0-1.1c0-24.2,0-48.4-0.1-72.6c0-2,0.5-2.5,2.5-2.4c3.7,0.2,7.3,0.1,11,0
		c1.6-0.1,2.2,0.5,2.7,1.9c6.9,20.8,13.8,41.6,20.7,62.3C451.4,515.1,451.4,515.7,451.9,516.1z"/>
	<path class="st0" d="M361.7,481.6c1.4-1.5,2.4-2.6,3.4-3.6c6.8-6.7,15-8.1,23.8-5.6c7.2,2,10.5,7.6,11.7,14.7
		c0.5,3.3,0.4,6.5,0.4,9.8c0,9.9,0,19.9,0,29.8c0,1.5-0.3,2-2,2c-5.9-0.1-11.8-0.1-17.7,0c-1.6,0-2-0.4-2-2c0.1-9.1,0.1-18.2,0-27.3
		c0-1.6-0.1-3.1-0.3-4.7c-0.5-3.7-2.4-5.9-5.5-6.4c-4.1-0.6-7.4,1-8.9,4.4c-1.2,2.6-1.4,5.5-1.4,8.3c0,8.5,0,17,0,25.5
		c0,1.7-0.4,2.1-2.1,2.1c-5.8-0.1-11.7-0.1-17.5,0c-1.3,0-2-0.2-1.9-1.8c0.1-17.6,0.1-35.1,0-52.7c0-1.2,0.2-1.7,1.6-1.7
		c5.6,0.1,11.2,0.1,16.8,0c1.4,0,1.6,0.5,1.5,1.7C361.7,476.5,361.7,478.8,361.7,481.6z"/>
	<path class="st0" d="M149.9,500.5c0-8.7,0-17.3,0-26c0-1.6,0.4-2,2-2c5.9,0.1,11.8,0.1,17.7,0c1.4,0,1.9,0.3,1.9,1.8
		c-0.1,17.5-0.1,34.9,0,52.4c0,1.5-0.4,1.9-1.9,1.9c-5.9-0.1-11.8-0.1-17.7,0c-1.5,0-2-0.4-2-2C149.9,518,149.9,509.2,149.9,500.5z"
		/>
	<path class="st0" d="M243.2,500.4c0-8.6,0-17.2,0-25.7c0-1.6,0.2-2.2,2-2.1c5.8,0.1,11.6,0.1,17.5,0c1.7,0,2.1,0.5,2.1,2.1
		c-0.1,17.3-0.1,34.6,0,51.9c0,1.5-0.3,2.1-1.9,2c-5.9-0.1-11.8-0.1-17.7,0c-1.7,0-1.9-0.6-1.9-2
		C243.2,517.9,243.2,509.2,243.2,500.4z"/>
	<path class="st0" d="M542.8,471.8c-6.1,8.3-11.8,16.2-17.7,24c-1.5,1.9-1.3,3.1,0,4.9c6,8.3,11.9,16.8,17.8,25.2
		c0.4,0.5,0.7,1.1,1.3,1.9c-3.8,0-7.3,0-10.8,0c-1.1,0-1.3-0.8-1.8-1.5c-4-6.1-8.1-12.2-12.1-18.3c-0.4-0.7-0.9-1.3-1.5-2.3
		c-0.5,0.7-0.9,1.1-1.2,1.6c-4.2,6.3-8.4,12.5-12.5,18.8c-0.7,1.1-1.5,1.6-2.9,1.6c-3.1-0.1-6.1,0-9.2,0c-0.3-0.9,0.5-1.4,0.9-1.9
		c5.9-8.4,11.8-16.9,17.8-25.2c1-1.4,1.1-2.3,0.1-3.8c-5.9-8.2-11.6-16.4-17.7-25c4,0,7.7,0,11.4,0c0.9,0,1,0.8,1.3,1.3
		c3.5,5.4,7,10.8,10.5,16.1c0.4,0.6,0.7,1.1,1.2,1.8c4.2-5.9,8.4-11.7,12.5-17.6c0.8-1.2,1.7-1.8,3.3-1.7
		C536.4,471.9,539.4,471.8,542.8,471.8z"/>
	<path class="st0" d="M253.8,465.9c-3.1,0-6.1-0.1-9.2,0c-1.2,0-1.5-0.3-1.5-1.5c0.1-3.9,0.1-7.9,0-11.8c0-1.1,0.3-1.4,1.4-1.4
		c6.2,0,12.4,0,18.6,0c1.2,0,1.6,0.3,1.5,1.5c-0.1,3.9-0.1,7.9,0,11.8c0,1.1-0.4,1.4-1.4,1.4C260.1,465.9,257,465.9,253.8,465.9z"/>
	<path class="st0" d="M160.5,465.9c-3,0-6,0-8.9,0c-1.2,0-1.7-0.2-1.7-1.5c0.1-3.9,0.1-7.8,0-11.6c0-1.1,0.3-1.6,1.5-1.6
		c6.2,0.1,12.4,0.1,18.6,0c1.2,0,1.5,0.5,1.5,1.6c0,3.9-0.1,7.8,0,11.6c0,1.2-0.4,1.5-1.5,1.5C166.7,465.9,163.6,465.9,160.5,465.9z
		"/>
	<path class="st0" d="M294.3,465.4c2.8-4.9,5.6-9.9,8.4-14.8c0.3-0.5,0.7-0.7,1.3-0.7c5.6,0,11.3,0,17.5,0
		c-3.7,3.5-7.1,6.6-10.4,9.7c-0.1,0.1-0.3,0.2-0.3,0.3C306.6,465.3,301.2,467.1,294.3,465.4z"/>
	<path class="st0" d="M150,77.5c34.7,112.7,69.3,224.9,104,337.5c-4.7-0.8-9.2-1.9-13.7-2.1c-4.6-0.2-6-2.5-7.1-6.6
		c-4-14.7-8.3-29.4-12.6-44c-26.1-90.5-52.2-181.1-78.3-271.6c-0.4-1.3-0.3-2.3,0.6-3.5C145.3,84.2,147.5,81,150,77.5z"/>
</g>
</svg>
