<?xml version="1.0" encoding="utf-8"?>
<!-- Generator: Adobe Illustrator 22.0.1, SVG Export Plug-In . SVG Version: 6.00 Build 0)  -->
<svg version="1.1" id="Capa_1" xmlns="http://www.w3.org/2000/svg" xmlns:xlink="http://www.w3.org/1999/xlink" x="0px" y="0px"
	 width="600px" height="600px" viewBox="0 0 600 600" style="enable-background:new 0 0 600 600;" xml:space="preserve">
<style type="text/css">
	.st0{fill:none;stroke:#FCFCFC;stroke-width:2.1934;stroke-miterlimit:22.9256;}
	.st1{fill:#FBFFFF;}
</style>
<g>
	<path class="st0" d="M406.5,433c1.7,8.1,11.9,17.6,21.2,18.5c13.5,1.4,23.6-4.7,30-16.8"/>
	<path class="st0" d="M456.8,436.3c3.8-9.5-1.2-41.9,3.1-41.8c29,0.4,34-1,57.6-15.8c3.6-2.2,9.6-7.1,11.8-10.7"/>
	<path class="st0" d="M344.2,340.5c77.9,52.3,138.8,58.8,182.5,19.4c1.9-2.4,3.2-7.1,3.7-14.1"/>
	<path class="st0" d="M524.8,356.1c-43,40.3-104.5,33.1-184.8-21.7"/>
	<path class="st0" d="M369.3,348.2c54.9,34.5,107,35.8,156.2,3.8"/>
	<path class="st0" d="M388.3,353.8c51.8,23,97.3,20.8,136.6-6.8"/>
	<path class="st0" d="M420.3,356.5c34.1,13.9,68.8,9,104.1-14.8"/>
	<path class="st0" d="M422.1,351.6c26.2,15.8,60.4,11.6,102.6-12.4"/>
	<path class="st0" d="M423.8,349.2c26,13.8,59.2,9.5,99.9-12.8"/>
	<path class="st0" d="M432.8,347.3c25.5,9.7,55.7,5.5,90.6-12.8"/>
	<path class="st0" d="M437.6,345.3c22.2,6.3,50.4,1.9,84.8-13.4"/>
	<path class="st0" d="M447.3,342.1c19.1,4.4,44.4,0,75.9-13.3"/>
	<path class="st0" d="M187.8,292.8c-11.4,3.4,44.5-3.9,19.4,3.9c-9.7,3.1-29.7-2.2-13.7,1c2.7,0.5,30.1-0.2,5.6,2.7
		c-4.7,0.6-11.5-0.4-11.5-0.4c-1.5,0,14.2,0.7,20.9,0.7c-7.5,0.5-40.7-1.8-10,2.6c10.3,1.5,20.3,0.8-6.1,1.1c-1.3,0-5.4-1.3-5.6-1.3
		c2.8,0,13.2,1.8,19.8,1.2c7.8-0.7-15.6,3-19.8,1.1c11.9,3.8,39.1,3.5,1.7,2.2c-6.6-0.2,10.8,2.1,17,1.6c9.2-0.8-14.8,2.1-18.9,0.4
		c0.6-0.4,14.6,3.9,20.9,2.7c13-2.6-10.7,1.4-16.9,1.4c0.6,0,7.4,2.2,17.5,0.7c3.3-0.5-14.1,1.4-17.7,1.4c0,0,9.8,3.3,14.1,2.5
		c18-3.6-33.4,4.9-5.8,2.9c18.6-1.3-2.6,0-8.1,0c0.3,0,9.4,2.3,14.3,1.8c-11.1,2.2-24.5-0.6-3.8,3.8c-0.1-0.4,11.5-1.3,1.7,0
		c-9.6,1.3-27.5-2.9-3.5,1.7c3.8-4.4,22.8-0.6-8.4-0.6c0.2,0,9.4,4.2,13.7,2.5c-6.5,0.4-11.1,1.4-18.8-0.2c16,2.6,9.6,0.8,19.6,1.2
		c0,0-0.2-0.1-0.6-0.3"/>
	<path class="st0" d="M188.3,333.3c5.7,1.2,11.5,1.3,16.5,2.3c-3.5,1.3-24.7-4-7.1,1.6c16.6,5.3-6.9,2.1-10.5,1.1
		c0-0.1,28.5,2.4,11.1,4.2c-5.1,0.5-25.4-5.8-0.7-0.7c5.8,1.2,5.7,0-3,4.6c0-0.2-6.1,0.3-6.9-0.6c-0.8,0.1,10,1.1,14.9,1
		c-8.8,0.3-13.1-0.9-16.7-1c-0.1-0.8,1,0-1.5-0.5c1.5-0.3-1.9-0.2,2-0.2c-2,0,10.3,5.2,14.1,4.8c-12.1,2.5-34-2.5-0.3,0.8"/>
	<path class="st0" d="M183.8,351.2c10.9,3,25.9,4.3,2.6,2.3c1.5,2.2,9.8,3.1,12.7,3.3c-11.4-1.6-24.8-1.6-3.1,0.8
		c4.2,0.5-8.7,1-8.8,1c0,0-1.4,0.7-3.6-0.8c-0.3,2.8,25.8,3,4.4,3.8c-7.1,0.3-6.4-3,5.6,1.8c5.7,2.2-9.6,0.5-9.8,0.4
		c-0.7-0.2-1.8-0.3-0.8-0.4c-0.5,0.4,6.2,3,6.8,3.2c0-0.2,12.6,0.9-6.4,0.9c0.8,0-2-0.2-0.7-0.1c-0.2,0.1,2,0.4,4.2,1.4
		c0.1-0.4,3.9,1.9,7,1.8"/>
	<path class="st0" d="M193.7,373.9c-17.4,1.2-12.5-8.4-1.5,0.7c-2.6,4.2-16.4-4-3.7,3.5c4.1,2.5-21.2-8.3-0.9-1.7
		c6.3,2-19,0.1-3.2,3c16.4,2.9-15.4,0-2.2,2.8c0.4,0.1,4.7,1,5,1"/>
	<path class="st0" d="M174.7,380.2c8.6,4.4,25.9,3.3,3.1,3.1c-7.7,0,23.2,6.8,3,3.4c-13.5-2.3-0.6-1.8,5.9,1.9
		c-4.9,3.9-30.6-0.7-16.4-2.2c1.8-0.2,11.7,3.8,15,5c1.5,4.3-18.8-3.8-2,2.9c4,1.6-24.7-3.3-2.8,3.4c-4,2.5-16-2-2.9,1.4
		c0,0-6.4-2.2-9.5-2.5c5.9,5.2,28.5,2.7,0.7,2.7c-5.9,0,28,7.9,0.8,3.7c-13.2-2,9.3,2,8.1,2.1c-12.1,1.6-11.8-1.5,1.5,2.3
		c1.9,0.6-25.9-3-9.3,0.1c11.3,2.1,7.4,0.2-5.3,0.6c-1.4,0,22.6,2.3,5.9,0.7c-0.8-0.1-4.8-0.2-5.2-0.3l0.4-0.1"/>
	<path class="st0" d="M164.4,410.5c23,6.4,0.2,1.5,0.1,1.4c0.9-1.1,19.2,1.2-0.5,1.1c-10,0,22.7,1.2-1.9,2.1
		c-10.4,0.4,26.3-1,1.7,1.5c-10.4,1.1,29,4.5-2.3,2.8c-0.6,0,19.7,0,5.4-0.6c-23-0.9,4.9-0.1,6.3,0.6c-0.2,5.9-27.5-2.1-1.9,1.4
		c-15.2,6.9-18.5-2-1.6,1.7c-15.5,5.7-12-3.2-0.1,1.7c-5.6,5.2-27.8-1.8-2.5,1.8c8,1.1-28,1-3.5,2.1c11.6,0.5-22.8,1.9,1.1,1.9
		c-24.1,0.6-5.4-1.6-0.2,1.5c0,2-24.5-0.6-3,1.1c11.6,0.9-23.3,0-3.9,1.9c19.7,1.9-20.3,1.8-2.2,1.7c14.5-0.1,4,2.3-3.5,2.3l1.8-0.1
		"/>
	<path class="st0" d="M150.8,440.1c16.2,6.8-13.4-3.1,3.6,3c7.1,2.5-18.1-5.4,1,0.8c5.1,1.7-23-6.5,1.4,3.5c5.2,2.1-22.3-4.6-4.1,1
		c8.3,2.6-21.8-6.6,0.9,2.2c2,0.8-19.2-5.3-2,0.8c9.4,3.3-26.2-6.3,0.5,2c4.6,1.5-22.9-6.2-3.4,0c13,4.1-23.3-5.4-0.1,1
		c11.4,3.2-20.5-3.4-2.4,1.2c18,4.5-18.3-3.2-1.2,2.9c16.4,5.8-24.6-6.4,2.7,1c7.4,2-20.2-4.2,0.3,1.3c11.8,3.2-27.8-3.8-3.6,2.5
		c11.7,3.1-23.9-6.1,1.3,1.1c4.4,1.3-19.1-5.1-3.8-0.2c13.4,4.2-26.3-4.6,0.1,2c2.9,0.7-20.8-4.5-1.3,1.8c8.2,2.6-18.5-4.6-3.4,0.4
		c18.3,6.1-21.7-4.9,2,2.7c10.1,3.3-27.1-6.9-1.1,0.9c14.7,4.4-19.5-3.5,0.6,1.7c8,2-22.3-3.4,0.2,2.5c-26.9-4.8,16.6,3-9.6,0.5
		c-10.8-1,22.2,5.4-1.9,0.4c22,5.6-4.3,0.9,0.7,2.6c13,4.3,9,4.6-0.4,0.3c12.2,8.3-3.1,1.4-3.7-0.4c4,0.3,14.4,9.1,0.4,1.8
		c-4.7-2.4,17.7,9.5-0.8,2.6c-3.8-1.4,17.7,8.8,2.8,2.4c-13.5-5.7-1.2,2.3,3.2,4.4c-16.8-9-6.9-2.7-0.6,2.3
		c-7.8-3.1-18.6-6.1-1.9,1.1c10,4.3-27.6-11.2,1.1,1.4c1.3,0.6-16.3-7-6.4-2.2c16.4,7.8-20.5-10.4,4.3,5.5
		c0.4,0.2-20.4-10.5-5.2-2.1c15.7,8.7-21.7-10.3,3.3,3.6c1.5-0.7-24.3-9.3-0.4,1.7c-25.7-10.2,11,6-7.5-1.5
		c-19-7.6,20.5,6.3-5.3,0.4c-5.2-1.2,22.3,7.8,5.9,2.8c-22.2-6.7,16,7.6-2.8,0.3c-14.9-5.7,16.2,9.5-5.9-0.1
		c-5-2.1,12.6,8.2,5.7,4.3l-3.1-1"/>
	<path class="st0" d="M342.8,374.2c-12.3,0.6,24.7-1.3-1.6-0.1c-9.9,0.4,25.1,0.2,8.2,1.4c-24.7,1.8-4.5-0.5,3.7,1.2
		c-12.2,4.1-20.6,1.4-0.9,2.7c-4.2,4.2-24,0.5-1.6,1.1c8.4,0.2-22.3,0.6-2.5,0.3c11.3-0.1-23.3,1.8,1.1-0.1c11.4-0.9-27.4,2.5-4.5,2
		c21.1-0.5-21.5,2.4,0.8,1.2c19.1-1-23,5-0.6,3c17-1.5-21.2,2,0,0.6c19.8-1.4-27.4,0.9,3.2,0.9c9.7,0-24.1,0.7-3.8,0.7
		c14.4,0-21.1,3-0.8,1.2c16-1.4-18.6,3.2-2.4,1.3c18-2.1-1.6,1.7-4.8,2.2c8.8-4.2,18.3,1.1,1.1,1.1c-6.7,0,28.7-1.2,1.4,1
		c-7.6,0.6,23.6-2.5,3.9,0.6c-17.5,2.8,20.9-2.7-2.9,1.3c-9,1.5,18.5-2.3,1.3,0.2c-14.2,2.1,22.2-1.9-0.8,1.9
		c-20.9,3.4,19.6-2.8,2.3,2.1c-11.5,3.3-12.8-0.1,0.8-0.2c3.1,0-20.7,4.1-0.4,2.1c0.8,2.8-19.3,0.9-1.6,1.2
		c7.2,0.1-19.6,1.1-0.6,1.1c3.7,0-13.4,2.5,0.2,0.8c0,0-13.6,1.5-1.6,0.7c4.9-0.3-13.1,2.9-2,1c7.5-1.3-7.2,2.5-1.5,1.9
		c11.4-1.2-11.6,1.1,2.8,0.8c1.5,0-2.8,0.9-3.1,0.9"/>
	<path class="st0" d="M116.4,287.8c2.4,1.3,28,6.3,33.3,5.7c35.2-3.7,35.9,0.4-11.6-4.1c-5.3-0.5-10.7-1.1-15.8-2.3"/>
	<path class="st0" d="M123.1,293.3c6.7,4.3,36.1,8.6,44.8,7.4c-12.1-1.1-32.8-1-43.7-4.9"/>
	<path class="st0" d="M121.3,300.1c19.7,4.9,32.7,7.1,53,7.1c-5.3,0.3-53.1-6.5-55.8-8.6"/>
	<path class="st0" d="M121.9,307.4c6.3,2.2,41.5,9.4,47,6.9c-9.9-0.8-43.1-2.8-49.5-10.5"/>
	<path class="st0" d="M124.9,313.7c7.9,3.9,40.4,8.9,42.3,5.3c-4.1,2.8-37.1-5.1-43.1-7.7"/>
	<path class="st0" d="M128.3,321.6c16.9,6.7,48.5,6.7,31.1,4.6c-6.5-0.8-26.3-4.2-31.9-7.5"/>
	<path class="st1" d="M134.9,326.4c10.9,8.7,65.4,7.5,13.6,3.5C144.1,329.6,138.4,329.2,134.9,326.4z"/>
	<path class="st0" d="M134.9,326.4c10.9,8.7,65.4,7.5,13.6,3.5C144.1,329.6,138.4,329.2,134.9,326.4z"/>
	<path class="st0" d="M134.8,334.7c10,4.8,21.4,3.9,32.3,3.9c-4,0-32.9-4.2-34-6"/>
	<path class="st0" d="M137.5,339.8c9.8,4.9,56,10.8,3.1,1.3c-3.7-0.7-5-1.5-7.9-2.2"/>
	<path class="st0" d="M139.9,344.8c12.2,5.2,14.7,4.4,27,4.4"/>
	<path class="st0" d="M143.4,351.5c6.1,3.5,33.9,6.5,12.7,3.9c-2.7-0.3-12-2.1-14.5-3.4"/>
	<path class="st1" d="M146.1,358.9c10,4,31.6,6.3,2.9,0.6C147.6,359.3,147.3,359.4,146.1,358.9z"/>
	<path class="st0" d="M146.1,358.9c10,4,31.6,6.3,2.9,0.6C147.6,359.3,147.3,359.4,146.1,358.9z"/>
	<path class="st0" d="M150.2,366.8c10.8,4.9,19.8,0.2,12,6.9c-1.5,1.3-0.9,0.9-1.6,3.8"/>
	<path class="st1" d="M144.1,369.5c-4.9,1-1.5,6.3,2.2,1.1C146.9,369.8,144.9,369.3,144.1,369.5z"/>
	<path class="st0" d="M144.1,369.5c-4.9,1-1.5,6.3,2.2,1.1C146.9,369.8,144.9,369.3,144.1,369.5z"/>
	<path class="st0" d="M155.3,372.9c-6.1,7.3-2-2-0.1,0.7c2.5,3.8-7.4,7.3-9.6,7.6c-2.8,0.3,8.1-5.6,6.7-4.7"/>
	<path class="st0" d="M158.1,383.7c-2.6-9.2-6.9,4.2-0.2,5.1c0,0,2-3.7,0-6.4l0-0.5"/>
	<path class="st0" d="M148.1,385.7c2.7-5-10,3.7-0.7,3.2c4.4-0.2,0.8-2.9,0.6-4.1"/>
	<path class="st0" d="M153,390.8c-2,0-6.3,1.4-4.7,2.9c-7.1,0.3,11.6,3.4,3.1-2.9"/>
	<path class="st0" d="M150.8,400.5c-9.4,11.6,4.1,9.3,0.7,1.4c-0.4-0.9-0.4-0.9-0.4-1.9"/>
	<path class="st0" d="M144.2,413.1c-6.6-0.4-4.5,9.3,0.2,4.6c1.2-1.2-3-2.4-0.6-5.8"/>
	<path class="st0" d="M142.7,398.9c0.6-2.7-3.2-4.6-7.3,2.3c-0.5,0.8-10.1,9.5-1.5,6.5c7.4-2.6-0.3-4.5,0.8,0.3
		c0.5,2.1,8.8,1.3,6-4.9c-0.2-0.5,8-1.1,3-4.6"/>
	<path class="st0" d="M131.8,412.1c-10.4-1.6-2.1,7.7-0.7,1.6c0.2-1.1-2.4-1.1-3-1.3"/>
	<path class="st0" d="M134,418c-7,2.6-17.9,4-17.4,14.8c2.6,0.6,3.4-4.2,5.8-4.1c1.3,0-5.9,8.2,7.2,3.9c2.2-0.7,8.3-5.2,4.3-9.3
		c-1.9-2,1.1-3.4-2-4.1"/>
	<path class="st0" d="M141.5,427.8c-6.4-5.5-5,10.3-0.8,3.6c1.6-2.5,2-3.4-0.1-3.9"/>
	<path class="st0" d="M114.2,429c-8.8-0.8-6,9.4-0.8,1.6c0.3-0.5-0.9-0.9-1.1-1"/>
	<path class="st0" d="M111,437.9c-8.2,2.2-6.5,8.1-0.7,5.3c2-1,4.8-1.9,0-4.7"/>
	<path class="st0" d="M119.7,437.1c-2.9-1.1-7,1.7-3.8,2.5c0,0,5.6,4,6,0.2c0.1-1.5-1.9-2.5-2.9-3.3"/>
	<path class="st1" d="M132.1,440.1c-5.8,2.1,1.9,6.7,1.2,1.9C133.2,440.9,132.3,440,132.1,440.1z"/>
	<path class="st0" d="M132.1,440.1c-5.8,2.1,1.9,6.7,1.2,1.9C133.2,440.9,132.3,440,132.1,440.1z"/>
	<path class="st0" d="M124.6,441.4c2.2,11.1-2.5,8.4-4.9,11.2c-2.3,2.8-5.5-1.7-2.3-3.2c2.3-1.1-5.8,7.4-6.4-0.2
		c-0.3-3.8,3.5-1.7,8.3-5.1c4.6-3.2,4.5,0.1,6.2-0.1l0.3,0"/>
	<path class="st0" d="M126.2,453.5c-9.2,0.2-0.6,9.2,1,2c0.1-0.7-0.4-0.9-1-1.1"/>
	<path class="st1" d="M107.7,452.4c-0.9-4-7.9,1.2-4.8,4.3c0.9,0.8,5.1,0.8,4.7-4.1L107.7,452.4z"/>
	<path class="st0" d="M107.7,452.4c-0.9-4-7.9,1.2-4.8,4.3c0.9,0.8,5.1,0.8,4.7-4.1L107.7,452.4z"/>
	<path class="st0" d="M120.7,464c-3.7-4.3-7.6,8.3-1.2,3.8c1.9-1.4,0.2-2.4,0.1-3.4"/>
	<path class="st1" d="M116,472.6c-6.3-1.9-3.1,11.9,0.9,2.3C117.5,473.5,116.4,472.7,116,472.6z"/>
	<path class="st0" d="M116,472.6c-6.3-1.9-3.1,11.9,0.9,2.3C117.5,473.5,116.4,472.7,116,472.6z"/>
	<path class="st0" d="M112.5,460.4c-5.7-4.6-19.7,13.1-5.6,12.3c1.6-0.1,5.6-2.8,4-6.4c-1.5-3.3,3.8,0.6,1.2-5l0-0.2"/>
	<path class="st0" d="M95.7,466.6c-4.6-2.9-9.6,4,0,3.2c0.2-1.5,0.8-1.6-0.5-2.9"/>
	<path class="st0" d="M94.8,478.8c-2.8-5.7-0.3-2.6-6,1c-2.4,1.5,9.7,4.1,5.2-2l-0.3-0.3"/>
	<path class="st0" d="M110.9,480c-5.7-6.1-9.5,12.5,0,4.5c1.4-1.1,0.2-3.3-0.5-4.4"/>
	<path class="st0" d="M102.5,481.5c-1.8-8.6-3.5-1-5.7,1.6c-1.4,1.6,6.9,3.8,4.7-3"/>
	<path class="st0" d="M103.5,488.6c-6.3-2.2-4.2,9.7,1.4,4c1.2-1.2-0.2-2.3-0.9-2.9"/>
	<path class="st1" d="M102,500.6c0.3-6-8.2,3.2-0.3,2.5C103.1,503,102,500.9,102,500.6z"/>
	<path class="st0" d="M102,500.6c0.3-6-8.2,3.2-0.3,2.5C103.1,503,102,500.9,102,500.6z"/>
	<path class="st0" d="M96.7,506.9c-13.5-1.4-0.4,6.1-1,0.6c0-0.6-0.4-0.7-0.9-0.9"/>
	<path class="st0" d="M88.4,505.6c-1.9-0.9-7.2-3.8-5.4,1.5c0.8,2.4,7.4,1.2,4.4-1.7"/>
	<path class="st0" d="M87.1,495.9c-1.4-8.7-4.6,6.5-6.7-1.3c0,0,8.5-4.7,1-6c-4.8-0.8-7.1,6.1-6.1,6.7c0.5,6.5,3.9,2.8,8.5,5.6
		c1,0.6,4.4-1.2,3.8-2.1h-0.2c0.4-1.1,1.3-3.6-0.3-4.1"/>
	<path class="st0" d="M98.1,496.2c-2.2-7.4-8.8,5-8.7,5.1c0.1,0.1,5.1,2.4,6.1-1.5c0.7-2.5,4.8-2.2,1.1-4.8"/>
	<path class="st0" d="M94.7,487.5c-8.2-3.7-8.6,6.1-0.4,3c1.4-0.5,0-2.7-0.1-2.8"/>
	<path class="st0" d="M85.9,480.6c-0.4,0-3-2.9-5.1,2.7c-1.2,3.2,9.5,0.2,4.7-3.2"/>
	<path class="st0" d="M88.4,485.6c-9.7-1.2-0.4,5-0.2,1.2c0-1-1.1-0.9-1.9-1"/>
	<path class="st0" d="M176.6,308.3c2.3,8.4-4.1,54.5-6.4,62.5c-0.1,0.3-0.6,2.7-0.7,3.2c0.6,7.3-14.3,29.9-16.7,41.1
		c-0.4,1.8-3.7,7.8-3.7,8.7c-0.8,0.4-19.4,32.5-19.4,34"/>
	<path class="st0" d="M21.5,250.2c29.5,13.9,11.8,16.5,51.1,20.9c18,2,26.1-1,44.1,6.1c19.8,7.8,104.3,6.7,128.1,4.5
		c4.1-0.4,16.1-0.2,18.6-3.4c0-0.2,24.9-63,27.3-77.2"/>
	<path class="st0" d="M48.8,199.1c3.2,3.8,28,11.5,15.5,8.6c-0.3-0.1-27.9-16.6-14.9-2.3c3,3.3,12.8,5.1,17.2,5.9
		c-3.6-0.1-28.7-12.8-16.2-5.9c3.5,1.9,12.3,3.7,17,5.3c-5,3.8-34.7-10.7-18.9-0.9c0.5,0.3,31.3,9.2,11,4
		c-6.1-1.6-17.6-7.3-17.7-7.3c7.1,9.6,45.5,14.6,13.5,10.5c-7.4-0.9-24.1-12-8.3-0.7c6.8,4.9,12.4,2.8,19.2,3.3
		c-12.6,7.7-32.6-10.8-23.9-4c11.8,9.2,44.6,11.4,12.8,9.9c-10.2-0.5-11.7-4.9-16.7-8.8c-1.6,4.1,21.6,10.2,27.6,9.8
		c-7.3,5.4-24-2.2-30.5-8.5c4.7,6.7,45.1,20.9,51.6,20.9"/>
	<path class="st0" d="M33.2,221.9c22.1,17.1,54.9,22.1,82.1,21.4c3.9-0.1,19.3-0.8,3.3,2.5c-18.1,3.8-70.2-13.6-86.2-21.8
		c-7.1-3.6,0,5.9,12.5,10.6c26.4,10,43.4,13.2,71,12.4c0.3,0-38.6,8.1-78.6-15.4c-15.5-9.1-9.7-0.5,5.9,6.4
		c15.9,7.1,46.4,13.4,64,13.4c-32.4,1.2-50.5-7.7-78.5-20.2c-1.8-0.8,2.5,6.6,16,11.2c22,7.5,33.8,11.4,57.5,11.4
		c0.1,0-20.2,1.1-29.8-0.7c-12-2.2-36.7-9.4-46.8-16.4c-0.1,0,18.5,10.1,28.2,13.4c24.5,8.3,28.5,2.5,45.3,4.7
		c-9,7.6-41.4-1.3-51.4-5.6c-4.7-2-45.3-16.3-16.5-4c30.9,13.3,36.7,11.1,67.5,13.3c0.2,0-18.8,6.1-47.8-4.9
		c-9.9-3.8-44.8-13-8.5,0.9c19.8,7.6,32.6,9.9,53.4,8.9c-13.6,1.3-34.6-4.6-48.5-8c-2.3-0.6-16.7-8.7-5.2-0.7
		c10.3,7.1,36.6,10.3,49.5,9.1"/>
	<path class="st0" d="M181.1,241.1c10,3.3,39.7,1.3,51.6,0.7c0.2,0-33.9,2.5-51-0.4c-0.2,0,17.5,11.3,61.1,2.5
		c0.1,0,41.3-8.9,26.8-4c-14.5,4.8-77,3.3-77.1,4.7c-0.9,12.6,39.5,4.4,45.5,2.9c0.6-0.1,51.3-15.4,29.5-8.3
		c-18.9,6.2-67.3,8.7-88.5,7.3c6.5,8.4,51.2,4.6,61.6,2c10.6-2.5,16.2-3.1,27.1-6.9c10.2-3.6-22.3,8.8-35.4,8.9
		c-16.2,0-25,0.6-41.6-0.1c-3-0.1,8,4.1,20.5,4.1c27.6-0.1,33.5-4.1,57.9-8c0-0.1-22.1,7.9-27.2,8c-21.9,0.3-16.1,5-42.1,0.1
		c-27.4-5.2,26.1,5.7,47.9-2.3c0.1,0,20.8-5,20.9-5c1.3,2.5-33.1,11.1-38.2,11.1c-31.1,0.2-52.4,2.1-1.2,0.1
		c19.6-0.8,22.8-4.2,38.9-7.4c0.1,0-15.5,6.9-34.5,7.9c-10.5,0.6-26.3,4-36,1.5c-0.1,0,13.8,2.5,21.1,1.9
		c15.2-1.2,28.5-1.9,43.8-4.9c-2.4,5-66.5,6.9-64.7,6.8c-0.2,0,30.9,3.7,44.3,0.2c46.9-12.2-4.5,2.7-19.1,1.5
		c-52.7-4.4,13.7,2.2,20.5,0c7.9-2.6,39.6-5.5,0-0.7c-11.9,1.5-32.4,0.4-41.7,3.4c17.3,3.9,29.5,0.4,49.7-2.1
		c14.3-1.8-32.5,0.8-39.7,1.8c0,0.9-15.1-0.3,7.1,2.5c10.1,1.3,26.1-1.6,36-1.6c-0.8,0-39.7-0.4-49.3,0.8c0,0,11.1,1.3,19.6,1.6
		c-7.7,0,21.6-1.2,24.5-1.6c22.9-2.9-5.7,5.3-17.9,4.5c-13.3-0.9-46.4-0.8-9.9-1.9c12.8-0.3,28.4-4.1,41.1-4.1
		c-5.3,0-22.4,5.7-33.3,5.2c1.5,0-17.4,0.3-17.5,0.3c0-0.2,39.8-3.3,47.7-3.9c12.2-1-28.4,4.7-28.5,4.7c9.7-1.5-22.4-0.1-18-0.1
		c-10.8,0,32.7-0.9,34-1.3c0.5,0.3,16.6-1.6,15.3-1.6c11.4-2.4-29.9,7.7-41,5.6c-1.6-0.3-5.6,0-5.6,0c5.7-0.7,22.6-0.2,33.1-2.2
		c-1.6,0.7,3.8,0,1.3-0.5"/>
	<path class="st0" d="M297.4,207.4c11.3,3.8-2.5-0.5,2.5,4.7c-1.6,0.8,5.5,7.3-0.3,4.1c7.6,4.6-0.1,1.2,0.6,1.9c6.7,5.5-2.7-3,1.7-3
		c5.9,0-6.8-10.2,1.8-0.7c3.8,4.2-10.6-7.4-1.5,4.5c-3.5,1.5-5.7-4.5-0.3,3.9c-14.5-10.6,7.6,8.2-4.5,0.1c-5.5-3.7,5.6,6.2,1.3,3.3
		c-11.1-7.4,0.8,5.2,6,8.7c1.7,1.1,2.7,4.5,4.9,4.9c-2.3-3.2-26.6-26.8-7.7-3.6c4.7,5.8,8.6,7.9-3.1-0.4
		c-19.4-13.8,19.8,17.9,2.7,3.8c-19.5-16.1-4.6,1.1,4.3,4c0,0-9.8-6.3-14.3-9.6c0,0,6.3,9.7,12.9,12.7c7.8,3.5-11.6-6-13.8-9.1
		c3.9,2.5,6.3,9,15.4,11.5"/>
	<path class="st0" d="M287.5,241.6c4.1,4.2,35.6,27.2,9.4,7.2c-9.6-7.4-15-14.6,0.5,1.3c9.9,10.1,12.9,9.9-3.9,1.6
		c-6.5-3.2-10.3-7.2,1.7,3.7c16.1,14.7-3.4-2.4-8.3-5.6c2.1,4.7,10.6,11.3,14.9,14.6c-22.8-13.7-18.7-8.8-3,4.9
		c1.2,1-27-20.8-12.4-8.6c3.6,3,34.3,19.9,9.3,8.3c-4.7-2.2-24-15.3-7.1,0.1c3.9,3.6,24.6,15.3,8.6,5.1l-2.1-1.6"/>
	<path class="st0" d="M281.2,265c6.1,13.7,53,35.1,12.9,9.4c-8.9-5.7-26-16.7-5.2-0.1c8.8,7,33.5,20,4.8,4.8
		c-4.7-2.5-25.7-20.3-4.9-1.4c11.7,10.6,48.8,22.6-2.5,1.7c3.8,1-2.7-1.9-3.4-6.8c4.8,8.7,17.2,16.5,26.7,19.2
		c-1.3,0.6-18.9-8.4-26-13.5c-9.2-6.7,8.4,11.9,17.2,16.3c20,9.9-1.2-0.8-10.7-7.3c-3.7-2.5-17.7-22.7-8-5.6
		c6.2,11,48.7,38.6,6.2,6.3c-2.7-2-15.2-16.2-7.8-3.6c3.3,5.6,21.5,14.9,30.2,20.9c9.4,6.5-22.2-11.2-24.6-12.1
		c-0.3-1.1-16.7-19.6,3.8,4c0.3,0,15.2,10.1,19.2,10.9c0.7,0.1,3.2,1.4,3.7,1.6c-4.3-1.9-26.1-10.2-27.4-13.9
		c-3.8-1-14.4-19.8-4.9-4c4.8,8,24.2,18.1,33.6,24.3"/>
	<path class="st0" d="M80.5,208.7c0-14.4,7.1-113.2,6.1-37.2c0,0.3-1.2,63.6,0,49.8c0-0.5,3-95.8,4.5-74.7c1.6,22-4.5,41.3-1,69.5
		c2.3,18.5,0-13.3,1.9-29.1c3.6-29.4,1.4-77.5-4.4-5.2c-2,25.5,0.9,77,0.5,6.9c0-4.4,3.8-90.2,8.7-35.5c0.6,6.8,31.7,67.7,38.6,74.1
		c0.4-0.1-40.7-88.8-40.6-88.5c3.3,12.3,20,35.6,24.1,55.7c2.6,12.8,33.3,56.4,7.2,7.1c-9.9-18.7-20.9-35.2-31.2-56.3
		c-9.2-18.8,14.4,21.5,18.4,32.7c0.6,1.8,19.4,57.7,21.3,46.4c0-0.4,47.8-122.5,25.4-61.5c-7.5,20.4-9.1,39-19.2,60.9
		c-4.4,9.6,36.7-72.1,35.5-84.5c-0.2,0.2-27,57.8-30.2,63.7c-1.8,3.3-8.1,20.4-10,22.1c-0.5-1.4,33.3-74.9,36.7-87
		c3.5-12.6,5,26,6.6,33.6c1.1,5.4,11.6,95.9,2.7,36.9c-1.8-11.8-12.1-42.9-8.7-55c1.7,1,20.1,121.1,14.6,53.8
		c-0.1-1.6-10.5-71.4-9.5-54.6c1,15.6,8.9,74.7,8.7,74.5c-9-12.9-12.5-91.2-13.1-89.1c-3.1,11.9-25,51.3-31.4,72.6
		c-0.8,2.7-3.1,6.2-4.6,8.7"/>
	<path class="st0" d="M81.6,227.8c0.5-5.1,3.8-72.2-0.1-28c-1.1,11.9,6.6,47,6.3,7.8c-0.2-32.4,1.3-34.4,0.8,4.5
		c-0.3,34.3-2.6,3.1-1.2-15c4.3-55.2-13.7,63.5-3.9,8.4c1.4-7.6,4.2-73.8,8.1-74.8c2.2,7.1-12.1,60.1-2.7,17.7
		c0.4-1.9,4.1-12.2,5.2-13"/>
	<path class="st0" d="M138.8,230.3c12.2-38.7,4.3-15.5-3.3-1.4c-1,1.9,20.1-49.7,14.1-31c-0.2,0.7-12.4,30.9-14.5,23.7
		c-5.7-20-20-55.2,1.5-3.4c0,0.1-11.5-14.7-18.7-35.3c-8-23.1-26.7-45.7-1.6-2.1c32.9,57-7.6-5.4-13-17.3
		c-18.1-40.4,10.1,20,13.9,28.4c26.2,56.9,7.1,42.8,37.9-17.6c13.8-27.1,20.6-54.3,3.1,3.4c-21.2,70.1-16.6,25.1,2.5-11.4
		c20.8-39.8,10.9-48.8,17.2-3c1.3,9.4,11.8,56.3,11.4,59.1l-0.8,0.6"/>
	<path class="st0" d="M212.3,196.8c-6.1-7.3,11.1-44.2,34-40.2c43.2,7.5,35.9,62.2,23.5,20.5c-8.3-28-55.6-25-60.3,10.7
		c-3.2,24.6,9.2-18.9,22-25.8c37.6-20.3,56.1,46.9,43,24c-11.5-20.1-37.1-34.1-53.2-17.6c-8.1,8.3-25.3,45.6-1.3,4.5
		c25.1-43,59.2,4.4,59.2,19.1c0,6.9-86.1-3.4-53.4-3.4c3.9,0,73.1,0.8,41.1,0.8c-12,0-81.3,3.4-19.1,2.2c56.8-1,13.2,3.9-9.8,2.2
		c-51.6-4,0.8-3.7,17.4-3.8c52.7-0.5-31-0.4-31.8,1.1c7.2,4.9,44.4-0.2,53.2-1.7c-21.9,2-43.6,6-65.7,4.2
		c-7.5,7.3,14.7,62.6,55.8,30.3c12.4-9.7,14.2-13,0.3-1.1c-15.6,13.4-53.2,2.7-53.2-22.3c-1.6,23.9,45.5,52.8,61.4,15.6
		c-0.5,0.2-36.9,45.8-62.8-6.5c-1.7-3.4-2.6-13.8-3.2-14.6c7.9,8.8,20.7,43.6,48.9,27.5c5.7-3.2,28.5-22.4,3.4,0
		c-20.9,18.6-63.9-24.4-44.1-1.1c15.3,18.1,31.7,21.5,49.6,3.8c22.5-22.2-0.7,2.9-13.6,4.6c-42.6,5.4-36.9-23.7-42.4-30.3"/>
	<path class="st0" d="M311.2,131.2c2.6,12.3,0,77,0,96.1c0-25.8,3.1-95.1,3.4-90.4c1.3,22.6,2.4,34.1-0.1,56.7
		c-0.6,5.6-3.2,33.3-4.2,31.8c-3.9-5.9-3.9-98-3-89.3c1.9,16.4,4.2,95,6.3,90.1c2.3-5.4,2.6-105.7,1.4-93.3
		c-0.1,1.3-10.3,118.2,1.1,93.4c0.9-2-11.3-103.6-6.9-90c2.9,9.1,1.9,74.5,1.9,91.6"/>
	<path class="st0" d="M296.8,156.5c37-0.1,26.6,3.9-1.7,3.9c8.3,3.3,59.4,1.2,11.7-1.9c-37.9-2.5,39.7-1.7,9.7,1.1
		c-36.3,3.3-9.6-1.7,9,0c3,0.2-54.9,4.4-16.5,4c4,0,8.9-1.2,13.3-1.2"/>
	<path class="st0" d="M414.8,155.6c1,2.8,2.1,64,1.9,64.9c-2.3,10.4-0.5,19.4-2.7-6.2c-0.9-11.3,3.1-16,0.6-34
		c-0.4-2.7,0.7-46.3-1.6-13.5c-1.1,14.8,0.2,41,0.2,57.6c0,7.9-0.4-28.2-0.4-30.4c0-0.3,1.2-55.5-1.8-23.1c-1.5,16.4,2.3,33.1,0,52
		c-1.9,15.3,1.2-7.2-0.1-18.8c-0.5-4-0.6-54.1-1.4-44.9c-0.2,2.4-1.3,82.3,2.2,64.4c5.5-28.1-0.8-45.4,1.9-65.7
		c0-0.2,0.9,45.7,2.2,66.1c0.8,11.5-0.7-3.1-0.9-7.9c-0.5-21.6-3.5-38.1-2.6-61.1c-0.7-0.5-4.3,47.3-3.2,53.2
		c3.2,16.7-0.8,37.9,1.7-12.9c0.6-13.5,0.2-25.9,0.2-39"/>
	<path class="st0" d="M407.1,183.3c-2.7-19.3-20.9-23.2-37.5-15.7c-36.9,16.8-12.8,70.1,22.4,51.3c0.9-0.5,20.7-20.4,14.6-8.7
		c-5.4,10.4-21,24.6-32.4,18.1c-17.5-10-23.5-8.5-27-35.7c-5-37.8,39.8-38.7,58.8-22c0.1,0.1,5.1-1-8-10.8
		c-26.4-19.9-71.9,10.4-51.9,51.4c12.8,26.2,42.7,29.2,58.6,6.7c0.9-1.2,1.9-1.8,2.8-3.4"/>
	<path class="st0" d="M348.2,189.7c2.6-40.3,60.3-43.1,60.3-6c-3.4-14.3-22.9-35.3-42.1-24.1c-13.8,8.1-25,31.6-19,45.6
		c2.5,5.7,3.7,14.5-0.5-4.7c-6-27.5,23.7-43.2,29.6-41c-1.7,2.1-16.1,8.6-24.4,23.7c-10.1,18.6-8.6,17.9,0.2,34.8
		c-12.1-31.5-3.9-68.3,33.8-61.4c15.3,2.8,19.8,15.2,23.4,28.9c0.5,2-13.3-22.8-23.6-25c-28.8-6.1-66.1,44.8-21,67.8
		c29.6,15.1,59.3-31.9,33.5-8.2c-13.4,12.3-33.7,0.1-45-8.8"/>
	<path class="st0" d="M340.5,194.2c0.5-1.5,16.4-35.3,10.7-25.1c-7.4,13.2-4.3,21.9-2.6,35.4"/>
	<path class="st0" d="M350.7,209.1c-14.6-26.8,0.8-40.2,0.5-40.1"/>
	<path class="st0" d="M358.9,218.2c16.3,17.3,34.6-3.4,47.7-10.5c3.7-2-30.4,39.7-50.4,7.4c-1.2-2,18.1,15.7,30.8,9.5
		c3.9-1.9,17.5-11.9,18.6-15.4l0.8,1.1"/>
	<path class="st0" d="M364.1,223c16.9,9.5,42.8-9.5,42.6-15.2"/>
	<path class="st0" d="M403.7,175.4c0,0.1,5.8,17.5,3.6,8.7c-4.1-16-25.5-30.9-44.6-17.4c-13.9,9.9-13.6,23-18.3,35
		c-3.3-7.6,25.6-58.3,57.9-33.6c11.2,8.5,10.5,40.3,5.9,45.2"/>
	<path class="st0" d="M409.2,222.2c4.1,34.1,6.7-15,4.9-3.2c-2,13,1.8,8.5,0.4,4.3c-0.8,0.5-1.4,2.9-1.6,3.8"/>
	<path class="st0" d="M345.1,204.9c5.5,11.4,22.5,29.3,5.1-0.3c-2.2-3.7-3.2-28.8,1-12"/>
	<path class="st0" d="M348.2,201.9c-5-15.3,1.2-36-2.3-8.2c-1,7.8-3.9-14.5,16.9-29.7l0.7-0.6"/>
	<path class="st0" d="M445.1,132.9c4.5,22.5,0,43.2,1.7,68.9c1.5,20.9-1.3,39.1,3.8-4.6c0.6-4.8-1.9-68.7-1.9-59
		c0,0.3-2.8,108.6,4.8,75.9c8.8-37.9-11.8-140.4-0.3-38.2c3.4,30.3-7.9,81.9,0,7.6c2.9-27.1-4.4-85-3.1-28.4
		c0,2.7,0.4,89.9-1.7,59.8c-1.9-28.5,5-57.5,0.4-86.9c-1.7-10.6,5.2,91.2-0.5,99.5c-2.5-21.7,1.7-62.3-0.9-90.7"/>
	<path class="st0" d="M435.5,159.1c22.6,1.7,42.3-5.8,0.5,0.2c-11.1,1.6,60-7,16.3-3c-35.6,3.2-2.8,1.1,10.8,1.1
		c-0.4-0.1-58.8-6.2-6.6-0.9c27.3,2.8-61.4,4.9,0.8,4.9c30.7,0-9-7.1-22.4-5.1c-0.1,0,17-1.7,25.6-1.7h1.2"/>
	<path class="st0" d="M487.2,191.5c19.3,2.7,37.1-3.9,56.7-0.7c1.8,0.3,6.4,0.5,8.4,0.5"/>
	<path class="st0" d="M493.7,185.9c8.1,0,56.9-2,49.2-0.9c-16.4,2.5-33.5-3-52.2-0.3c-0.2,0,52.6,0.7,52.4,0.7
		c-23.1-0.1-21.5-5.2-49.9-1.1c-18.7,2.7,23.1,1.6,32.2,3.2c5.5,1,35.7,1.1,10,1.2c-16.6,0.1-35.2-1.9-52,2.2
		c8.4-8.8,41.6-0.5,59.8-4.4c17-3.7-27.6-3.9-31.7-3.2c-25.1,4.7-5.1,0.9,11.6,1.5c19.2,0.7,39.6-1.2,4.9,0.1
		c-0.3,0-57.5,3.8-34.9,3.9c1.2,0,85.7,4.4,45.8-3.7c-5.8-1.2-46.7,1.4-41.6,0.6c12.6-2,40.5-1.4,54.7,0.3"/>
	<path class="st0" d="M554.8,189.4c1.1-21.4-23.6-46.8-44.1-37.5c-17.3,7.8-28.5,9.9-30.8,31.8c-0.6,5.7,0.2,6.5,0.1,8.3"/>
	<path class="st0" d="M551.1,183.9c-6.4-14.1-23.2-35.8-41.4-32.8c-13.3,2.2-22.4,19.8-27.2,30.4c-8.5,18.8,6-9.5,7.4-12.2
		c12.2-23.7,55.5-17.3,58.5,17c0,0.1-0.9-16.3-21.1-27.1c-10.7-5.7-29.8,3.6-34.5,17.1c-0.5,1.4-9.6,25.8-8.6,11.4
		c1.9-26.5,52.2-50.6,64.7-0.3c1.6,6.4,10.3-17.8-22.5-33.6c-15.8-7.6-44.5,15.1-41.5,37.1c0.7-0.5,5.3-20.8,7.4-24.1
		c23.4-36.2,57.8-5.5,57.3,22.6c0,0-4.1-9.5-7.2-13.3c-14.7-17.9-22.8-24.2-45-11.5c-5.4,3.1-16.4,22.3-13.8,25.8"/>
	<path class="st0" d="M480.9,188.9c-4.4,22.7,23.4,48.3,49.4,39.1c13.1-4.6,31.3-24.3,14.5-23.7c-5.3,0.2-19.9,27.5-46.2,6.9
		c-7.1-5.5-6-15.2-8.7-18.4"/>
	<path class="st0" d="M485,202.9c12.9,31.9,52.2,26.5,62.6,4.6c-1.4,9.8-14.8,19-26.4,18.5c-19-0.9-43.4-13.2-36.9-36
		c0-0.1-1.5,11.5,10.6,24.2c15.1,16,30.7,20.7,46.6,0.6c13.2-16.6-4.7,2.2-18.8,3.5c-22.9,2.2-32.5-0.4-38.4-26.1
		c-0.1-0.4-8,5.2,6.4,22.3c18.2,21.6,52.4,22,58.4-6.9c1.1-5.2-20.3,14.2-22.8,14.8c-19.1,4-34.2-7.3-37-26.9
		c-1.9-13.4-2.3,5.3,6.3,18.5c2.5,3.8-4.5-5.1-8.2-14.9c-1.8-4.7-8.3-23.8-4.3-3.6c5.1,25.7,22.7,44.4,49.3,30.4
		c4.3-2.3,15-12.7,15.1-16.6"/>
	<path class="st0" d="M493.9,160.5c-2.9,7.6-9.5,13.2-13.4,22.2c-0.3-2.1,9.5-24,4.7-14.6l-1,1.7l-0.6,0.2"/>
	<path class="st0" d="M502,160.2c26.6-11,27.7,0.7,31.2,0.1"/>
	<path class="st0" d="M546.3,189.6c5.8,0.6,5.3-1.3,9.2-4.5"/>
	<path class="st0" d="M328.1,274.9c-1.6,5.5,1,28.5,0.1,25.5c-1.1-4,0-30.5-1.5-41.6c-1.9-13.7-0.5-12.9-0.7,5.7
		c-0.1,14,2.7,23.3,2.7,37.2v0.3"/>
	<path class="st0" d="M333.6,260.5c-0.1,3.2,1.4,48.9,1.8,21.8c0.1-10.7,1.9-41.9-1-10.2c0,0.3-2.2,31.5-2.4,23.4
		c-0.3-12.5-0.9-69.6-1.9-20.7c0,0.2,0.4,31.9,0.4,24.3c0-5.8,3.8-62.2,3.8-25.7c0,1.5,2.2,35,1.1,25.1c0-0.2,0.3-61.2-3.4-41.3
		c-4,21.6-0.7,60.5-1.2,6.1c-0.2-28.1-0.7-0.6-0.7,8.6c0-11.9,4.5-42.2,4.5-8.1c0,2.8,2.8-25.5,2.1-6.1c0,1.8-0.4,2.8-0.4,4.4"/>
	<path class="st0" d="M331,247.8c-2.2,7.6-0.2,38.4-0.4,35.1c0-0.1,0.6-41.5-2.9-28.6c-1.4,5.2,1.7,45.7,3.5,48.8"/>
	<path class="st0" d="M336.6,302.7c0-7.9-2.8-46.5,7.7-49.5c31.1-9.1,17.3,30,23.7,46.4c0,0,0.2,2.5,0.2,2.7c9.5-2.5,5.6-4,5.4-20
		c-0.3-22.4-1.1,13.1-1.1,13.3c-2.2-4.8-2.5-27.5-3.4-35.7c-2.2,7.9,2,50.4,0.5,13.3c-0.8-19.4-3.6-13.3-2,5.2
		c0.4,5.1,0.8,13.7,2,18.5"/>
	<path class="st0" d="M336.6,276.8c0.9-7.7-0.8-12.3,4.7-20.6c11.5-17.5,27.6-3.7,27.4,15.4c0,1.2-0.4,9.3,0.5,7.6
		c12.3-23-18.6-43.6-29.3-20.2c-4.5,9.9-4.1,11.5-5.9,21.4c0,0.1,4.2-28.2,20.2-28.2c7.7,0,14.6,19.8,14.6,26.5
		c3.4-2-1.9-46.1-26-24.7c-4.9,4.4-13.2,32.7-9,16.9c4-15.1,24.5-39.6,33.8-12.8c2.6,7.4,2,17.5,2.4,25.5"/>
	<path class="st0" d="M368,299.6c-2.1-8.6,0.5-25.6-0.2-1.7c-0.3,11,2.7-23.7,2.8-8.8c0.1,14.4,0.1,16.2,2.2,0.2
		c0.2-1.6-1.2,9-0.1,11.3"/>
	<path class="st0" d="M427.1,270.6c-8.9,0-29-1.6-34.5-0.7c5.6-16,32.2-17.1,36.9-0.3c0.1,0.3,0,0.2,0.4,0.3"/>
	<path class="st0" d="M387.9,263.7c7.7-16.7,27.1-20,41.7-8.8c12.7,9.7,4.5,20.7,4.1,19.3c-2.7-10.4-0.8-20.5-18.9-23.3
		c-36-5.7-35.4,52.7-4.3,46.7c6.9-1.3,31.3-20.1,20.5-4.5c-1.4,1.9-22.4,11.8-32,4c-12.6-10.2-18.1-28.7-6.2-39.8
		c9.8-9.3,24.1-9.2,33.6,0.7c4.9,5.1,12.5,17.8,3.8,6.7c-17.3-22.2-42-0.5-40.8,11c-5.6,4.9,9.7-41.3,38.3-20.5
		c7.3,5.3,7.7,20.9,5.6,13.2c-4-15.1-30.2-25.8-43-2.9c-13.8,24.7,20.4,51.9,41.2,31.3c1.3-1.3,11.1-16.5-5.1-4.4
		c-11,8.1-52.5,4.7-32.4-30.2c8-13.8,39.4-22.8,38.4,5.6c-0.4,12.6-66.2,4.2-31.5,4c11.7,0,45.5-1.4,10.4,2.4
		c-41.5,4.5-10-4.6,13.6-1.9c14.8,1.6-4.8,0.7-11.2,1.2c-1.5,0.1-14.7,0.9-15.2-1.3"/>
	<path class="st0" d="M387.7,274.1c-9.6,18.4,22.1,37.5,42.2,18.4c5.7-5.4-3.6,7.3-16.9,7.2c-22.1-0.1-25.9-6.9-28.2-26.6
		c0-0.2,9.2,38.6,35.4,22.7c1-0.6,13.6-11,2.2-1.9c-17.2,13.8-32.1-9.1-33.8-27.2c0-0.2,7.8,47.4,37.6,26.3c0.8-0.6,1.1-1.3,1.5-1.4
		"/>
	<path class="st0" d="M499.1,248.2c-1.1,23.1,18.7,72.9-25.6,74.5c-7.5,0.3-22.9-6.9-19.6-13.9c14.7,11.1,23.3,16.8,36.1,1.3
		c-6.4,7.1-9.3,14.7-22.3,9.5c-5.7-2.2-25.6-21-10.2-8.3c16.4,13.5,37.8,10.8,36.6-13.6c-0.9-0.1-3.4,11-8.1,15
		c-22.3,18.7-40.5-16.6-30.6,0.6c7.4,12.9,36.3,9.5,39.6-23c0.7-6.6,0.9-43.6,0.3-13.3c0,0.1-0.8,40.1,3.1,25.6
		c1.5-5.7,0.6-38.1-0.9-44.5c-0.1,0,3.2,35.4,1.4,41.9c-1,3.8-3-42.9-5.7-47.7c-0.1,0,1.3,34.5,0.8,38.9c2.4-19-6.8-60.1,0.1-30.5
		c2.4,10.6,3.9,32.1,3.3,0.5c-0.2-9.2-2.7-28.6,1.5-0.3c0.7,4.6,2,21.4,0.9,25.5"/>
	<path class="st0" d="M491.3,255.4c-50.1-32.9-48.9,48.7-16.2,42.3c7.8-1.5,18.8-13.6,20.1-20c0.4,0.7,6.4-15-8.6-23.6
		c-15.1-8.7-48.6,8.2-33.5,31c6.8,10.2,10.9,13,24.9,13.1c25.9,0.2,31-47.6-10.1-49.5c-22.8-1-22.8,28.5-16.6,39.8
		c10,18.2,50,10.8,43.3-12.7c-6.9-24.1-8.7-36.9-37.5-24.7c-13.5,5.7-15,56.4,20.7,48.3c9.9-2.2,34-43.2-5.2-44.3
		c-20.6-0.6-21.9,9.5-14.4,25c10.8,22.3,36.4,15.8,36.2-10.1c-0.2-27.5-55.2-22-38.3,16.8c7.8,17.8,49.4,7.1,37-25.5
		c-5.9-15.5-32.5-17.1-40.3,0.7"/>
	<path class="st0" d="M456.4,306c4.6,13,39.1,10.5,42.1-13.5c0.1-0.7-0.1-0.6,0.5-0.9"/>
	<path class="st0" d="M495.7,301.1c-4.2,14.9-8.2,22.7-26.7,21.6c0.1,0-14-1.9-19.2-16.7c11.5-3.4,26.5,30.1,43-3.8l0.8-1.5"/>
	<path class="st0" d="M509.7,250.4c-4.4,18.4-1.7,25.4,1.4,43.2c0,0,0.2,3.6,0.2,3.8"/>
	<path class="st0" d="M511.3,286.1c9.9-19.2,2.4-69.7,3.5,7.9c0.1,5.6-3.8,1.8-1.2-15c1.7-11.1,3-43.5,3.7-11.1
		c0,0.9,3.7,28.5,0,24.2c-4.3-5,7.1-75.9,3.6-22.9c-0.7,10.4-2.1,20.4-1.7,30.9"/>
	<path class="st0" d="M514.8,294.1c1-9.7-0.7-34.4,0.1-39.6c-3.5-3.8,1.6,40.1-0.8,39c-4.3-2.1-2.7-46.9-3.2-38.2
		c-0.5,9.4,0,24.5,2.1,32.2c0.4,1.5,0.6,1.3-0.3,1.8"/>
	<path class="st0" d="M518.7,255.6c6-7.9,10.7-7,11.1-7.3c-4.9-1.6-16.9,15.4-9.2,4.8c2.7-3.8,7.3-6.8,12.1-6.8
		c0.4-3.5-9.7,0.2-13.9,5.8c-9.1,12.2,7.4-11,14.9-5.9c0.4,0.3-6.9-1.5-11.3,4.8c4.6-0.2,15.8,1.7,10.6-4.6
		c-4.8-5.7-19.1,10.1-11.6,2.8c4.4-4.3,13.3-7.1,12,0.3"/>
	<path class="st0" d="M516.7,253.4c3.8-17.4-1.3,2.9-1.8,3.7c-1.2-4-2.6-20.6-1,0.7c0.1,1.8-0.4-22.6-2.4-2.4
		c-1,10.2-1.1-17.2,1.7-2.6c0.9,4.5,1.1-13.4,1.8,2.6c0.8,19,1.8,21.1-3.2,39.3c-0.3,1.3,0.8,0.6-0.4,2.6"/>
	<path class="st0" d="M554.9,252.8c15.6-7.7,24.6-8.9,30.6,11.5c4.7,15.9-16.6,43.3-33.8,16.1c-16.4-26.1,21.4-41.3,33.4-21.8
		c7.9,12.9,4,39.3-23.2,33.1c-31-7.1-13.5-51.5,9.2-43.9c34.2,11.4,18.7,58.5-14.9,47.1c-31-10.5-7.2-68.5,26.1-43.8
		c10.4,7.7,10.9,30.2,0,41.9c-19,20.4-53.9-8.3-34.4-41.4c7.3-12.4,36.3-11.9,41.4,7.5c2.1,7.9-0.4,26.6-6.1,31.5
		c-12.8,11.1-36.5,9-40.9-13c-3.1-15.2,4.2-36.3,23.5-33.7c19.1,2.7,33.1,23.1,19.6,39.7c-15.7,19.2-47.1,12.5-38.6-17.2
		c7.5-26.3,50.9-23.6,42.2,10.2c-3.7,14.3-8.3,19.4-21.4,22l-1.8,0.5"/>
	<path class="st0" d="M547.5,272.3c5.1,14.6,15.4,18.6,6.2,14.2c-10-4.8-9.4-33.5-9.6-16.5c0,1.1,4.7,30,7,22.8
		c1.5-4.8-21.8-41.4,17.9-49.5c18.5-3.8,24.2,24.5,18.8,31.9c-2.7,3.7,0,9.3-13.2,17.3c-9.7,5.9-41.1-11.3-26.2-36.4"/>
	<path class="st0" d="M109.4,213.3c27.9,3.5-33.4-3.8,5.9,5c6.6,1.5-10.9-3.8-14.5-3.6c-0.2-0.5,31.2,3.3,3.9-2.2
		c-0.5-0.1-1.1-0.2-1.6-0.3"/>
	<path class="st0" d="M159.8,216.7c33.2-3-6.7,0.8-7.2,0.5c0,0,15.9-2.2,20.9-2.4c1.8,2.1-40.3,4.1-16.2,2.2c5.3-0.4,13.9-2,18.4-2"
		/>
	<path class="st0" d="M156,217.5c35.8-5.3,1.6,0.6-2.6,0.1c2.1-1.7,17.1-1.1,21.4-1.1"/>
	<path class="st0" d="M199.1,212.9c8.1,0.3,8.8-2.3-3,1.5c2.9-0.7,23.6-5.7,2.5,1.6"/>
	<path class="st0" d="M235.1,207.8c7.1-1.3,48.7-14.5,21.5-4.2c-12.7,4.8-29.9,7.2-4.1,1.3c58.8-13.4-18.9,6.4-19.2,6.3
		c2.1-1.8,78.5-24,12.1-4.4c-1.9,0.6-28.4,10.1-9,1.7c6.7-2.9,29.5-7.7,38.6-10.1"/>
	<path class="st0" d="M32.8,275.4C46.5,290.5,99,335,94.4,332.6c-12.9-7-63.6-58.3-56.9-54.3c0.6,0.4,37.2,33.7,42.5,38.2
		c32.2,27.4,17.4,15.4-1.7,0.1c-5.5-4.4-45.3-39.4-50.6-41.4"/>
	<line class="st0" x1="447.4" y1="434.7" x2="447.5" y2="434.7"/>
	<path class="st0" d="M417.5,438.1c9.9,7.8,20.6,7.4,31.1,1.2c-24.5,7.5-31.6-3.5-31.5-3.3c11.1,14.4,43.7-6.2,28.4,1.1
		c-7.9,3.8-26.6,5.9-29.6-2.5c7.5,2.7,26.7,12.5,34.2-1.3c2.1-3.9-19.7,13.2-30.1-1.3c2.1,0.4,23.1,12.9,30.6-0.7
		c-0.5-0.7-24.2,17.2-33.3,1.9c7.8,0.9,14.1,8.8,28.5-2.6c12.2-9.6-8.2,6.4-18.7,4.6c-7.2-1.2-24.3-14.1-8.5-4.4
		c9.2,5.6,34,5.3,35-7c-3.7-0.9-24.3,26.5-39.8,3.9c-1.4-2,27.3,10.7,36.6-7.3c0.6-1.1-19.9,26-34,4.5c-1.8-2.8,3.4,6,13.6,6.1
		c18.1,0.2,30.4-19.7,16-8.3c-14.6,11.5-22.2,5.9-31.9-4.6c-3,2.3,23.7,17.4,34.5-2.3c-0.3,0-25.5,24.2-35.7,5.7
		c-1.5-2.6,26,16.6,36.8-8.7c2.7-6.2-20.9,26.9-39.2,0.9c3.1,9.8,34.8,16.8,42.5-9.7c-2,13.8-37.8,22.6-46.4,1.2
		c0-0.1,14.6,26.3,36.7,16.7c6.2-2.7,19-22,4.4-9.4c-21.6,18.8-42.2-8.6-34.7-6.2c12.7,4.1,31,11.7,39.1-4.8
		c1.7-3.5-33.4,31-46.1,7.4c-7.5-13.9,31.8,14.6,45.3-9.5c0.1-0.1-23.3,22-38.5,9.3c-5.1-4.3,28.3,4.4,37.2-8.4
		c0.8-1.1-25.2,22-39.4-1c-0.1-0.1,17.7,13.5,37.5,2.3c10.2-5.7,3.3-4-3.1-0.4c-16.8,9.5-24.7,7.2-36.3-7.3c16.1,14,28,9.9,41.8-2.7
		c0.1-0.1-20.9,19.4-40.3,0.6c-0.8-0.7,18.4,22.5,40.6,0.3c-0.5-0.2-10.7,4.8-12.3,5.2c-24.1,6-43.9-13.3-29.4-6.7
		c11.9,5.4,34.8,9.8,45-0.9c0.1-0.1-21.9,12-47,5.9c-7.6-1.9,16.3,17.6,40.9,4.3c0.1,0-14.5,11.7-35.1,5.3
		c-12.3-3.8,14.8,17.1,34.3,9.3"/>
	<path class="st0" d="M73.5,202.8c-9.7-3.5-38.9-21.3-39.5-19.4c-13.6,41.4-37.7,38.7-1.9,91c-15.8-1.5-27.2-24.3-21-44.8
		c2.2-7.2,27.1-49.3,27.2-49.1c17.1,22.2,40.9,26.2,22.8,17c-34.6-17.7-5.9-34.6-45.5,23.6c-7,10.3-6.4,47.2,5.2,46.2
		c-2.4-9.9-17.4-25.2-3.7-50.5c2.9-5.3,26.1-34.6,26.2-34.4c5.2,9.3,17.6,20.5,28.2,21.9"/>
	<path class="st0" d="M245.6,162.1c6.5,1.9,15.5,2.3,18.2,10.1c0,0.1-13.8-11.1-29.5-14.1c4,4.1,24,6.9,32.7,21.3
		c3.7-3.9-15.2-23.5-31.9-17.7c-0.4,0.1,16.1-1.3,27.6,11.5l1.9,1.8"/>
	<path class="st0" d="M87.6,330.8c42.8,16.5,5.9,93.1-4.5,122.6c-9.6,27.3-26.5,65.6,11,79.3c42.1,15.3,59.9-55.6,78.2-84.8
		c8.3-13.2,42.5-85.5,48.2-87.2c6.3-1.9,92.4,8.8,93.9,11c8,11.5-6.6,67.9,33.9,56.5c14.7-4.1,10.9-75.4,45-38.1
		c2.5,2.8,2.3,16.5,9.7,30.2c4.5,8.3,4.1,53,44.6,36.7c31-12.5,4-57.2,26.8-57.2c37.1,0,61-28,60.8-27.8
		c-12.3,19-67.2,27.1-68.6,30.3c-0.8,1.8-5.1,71.9-41.3,53.4c-29.7-15.2-33.8-126.1-69.5-44.3c-19,43.5-39-10.1-42.7-29.2
		c-2.8-14.4-67.8-18-82.8-17.3c-22.1,1-25.9,38.1-41.7,59.2c-20.2,26.9-52.3,140.2-106.8,97.2C43,490.4,129.1,382.6,98.2,340.3
		c-6.5-8.9,17.9,3.2,4.6,43.7c-1.7,5.2-30.5,103.8-30.5,104.3c-1.7,55.8,57.3,53.1,79.4,3.8c13.9-30.9,33.1-64.2,48-97.8
		c23.2-52.6,36.3-27.6,85.6-26.1c42.1,1.3,23.8,27,42.8,56.1c20.9,32,38.8-60.9,58.3-29.9c10.5,16.8,3.6-2.5,10.4,21.1
		c8.7,29.8,20.8,49.4,55.1,42.1c30.7-6.5-6.8-60.8,29.7-57.3c15.3,1.5,49.3-17.8,50.8-27.1l-0.8-0.4"/>
	<path class="st0" d="M533.2,379c14-26.5,13.6-83.3-25.4-50.1c-15.5,13.2-101.1,0.1-114.8-24c-0.1-0.2,22,25.2,56.4,25.3
		c37.7,0.1,18.4,18.6,67.6-8.7c36.3-20.1,35.8,51.9,3.8,66.1c-0.2,0.1,32.2-14.7,24.3-54.3c-3.2-16.1-22-13.4-32.9-9.1
		c-61,24.3-116.4-22.2-115.7-21.3c11.8,15,54.3,30.7,38.7,22.6c-6.4-3.4-34.1-18.3-39.7-20.1l1.1-0.3"/>
	<path class="st0" d="M392.2,299.7c0,2,1.5,13.7,0.8,5.4"/>
	<path class="st1" d="M383.4,300.4c2.6,1.9,24.4,20.6,11.5,9.5C391.2,306.5,387.8,303.6,383.4,300.4z"/>
	<path class="st0" d="M383.4,300.4c2.6,1.9,24.4,20.6,11.5,9.5C391.2,306.5,387.8,303.6,383.4,300.4z"/>
	<path class="st0" d="M352.1,270.4c2.3,11.8,7.3,4.8-6.5,0.1c0.2-0.7,17.8,14,6.2,2.4c-6.6-6.6,7.9,7.9,9.1,9.1"/>
	<path class="st0" d="M313.7,233.8c2.6,4,14.2,13.8,2.1,4.5c-0.9-0.7,1.8,1.5,3.2,2.2"/>
	<path class="st0" d="M282.6,197.4c16.9,1.8,8.7,2.1,16.4,6c-10-9.4-20.4-2-12.5-5.3"/>
	<path class="st0" d="M291.5,198.6c6.5,1.9,3.2,0.8,7.4,4.8c-7.5-7.5-4.1-5.6-12.9-4.8"/>
</g>
</svg>
