<?xml version="1.0" encoding="utf-8"?>
<!-- Generator: Adobe Illustrator 22.0.1, SVG Export Plug-In . SVG Version: 6.00 Build 0)  -->
<svg version="1.1" id="Capa_1" xmlns="http://www.w3.org/2000/svg" xmlns:xlink="http://www.w3.org/1999/xlink" x="0px" y="0px"
	 width="600px" height="600px" viewBox="0 0 600 600" style="enable-background:new 0 0 600 600;" xml:space="preserve">
<style type="text/css">
	.st0{fill:#FFFFFF;}
</style>
<g>
	<path class="st0" d="M393.8,174.5l-23.2-0.5c0,0,12.8,7.2,14,17.6C393.2,188.4,393.8,174.5,393.8,174.5z"/>
	<path class="st0" d="M254.3,179.1c1.6-3.9-6.8,4.4-9.1,7.9c-40.7,63.9,101.8,196,23.2,277.8C409.4,393.3,211,283.9,254.3,179.1z"/>
	<path class="st0" d="M207.8,95c-37.8,0-68.3,30.6-68.3,68.3c0,104.5,13.7,301.5-25.6,341.7c80.2,0,99-95.3,98.5-127.5
		c-1.1-75-69.9-114.5-24.1-180.3c4.2-6.1-6.3-23.2,0.2-40.2c6.5-17,38.5-41.6,74.3-44.8c0.5,0,8.1-5.3,16.2-7
		c10.2-2.1,17.9-2.3,27.4,7.2c0.2,0.2,54.6-3,50.2,28.8c-0.2,0.7,24.8,15.5,24.8,15.5c0.2,0,0.5,0.2,0.7,0.2c0,0,7.6,0.2,7.9,0.4
		c0,0,10.2,6.7,10.2,9.8c0,3.3,6,3.5,8.8,7.6c2.8,3.9,20.4,11.4,25.1,19.1c0.2,0.4,12.6,5.8,13.3,6.3c0,0,9.7,6.1,8.8,9.7
		c-0.5,1.9-1.8,4.6-2.6,6.7c-3.5-3-9.1-5.4-9.8-7c-1.2-3-4.2-0.2-4.7,1.4c-0.4,1.4,0,9.5,10.7,13.7c0.4,1.2,0.7,2.5,0.7,3.7
		c-1.1,4.2-3,9.1-6,12.1c-0.5,0.5-1.6,0.7-2.3,0.5c-2.3-0.9-22.7-8.4-29.9,6.3l0,0c-2.6,17.4,16.7,9.8,17.6,9.5c0,0,3.3-1.8,5.1-2.6
		c1.4-0.7,3.2,0.2,3.2,1.8c0,0,0,0,0,0.2c0,3.5-4.6,7.4-4.7,7.9c-0.7,3.5-7,23.7-20.7,23.5c-7.2-0.2-14.7-21.1-25.3-20.2
		c-13.2,2.1,29,37.6,20.4,58.8c0,0-0.2,0.4-0.2,0.7c-24.1-58.3-149.1-97.1-93.8-168.9c0.5-0.7-0.4-1.4-1.1-0.9
		c-68,63,63.7,140.8,86,196.1c0.7,2.1,1.6,5.1,2.6,8.6c1.4,7.7,0.2,14.9-4.6,21.4c8.4-10.9,89.4-52.7,89.4-216.9V95H207.8z"/>
</g>
</svg>
