<?xml version="1.0" encoding="utf-8"?>
<!-- Generator: Adobe Illustrator 22.0.1, SVG Export Plug-In . SVG Version: 6.00 Build 0)  -->
<svg version="1.1" id="Capa_1" xmlns="http://www.w3.org/2000/svg" xmlns:xlink="http://www.w3.org/1999/xlink" x="0px" y="0px"
	 width="600px" height="600px" viewBox="0 0 600 600" style="enable-background:new 0 0 600 600;" xml:space="preserve">
<style type="text/css">
	.st0{opacity:0.8;}
	.st1{fill:#FFFFFF;}
	.st2{opacity:0.8;fill:#FFFFFF;}
</style>
<g class="st0">
	<path class="st1" d="M102.3,258.3l24.7-55.4h76.5c10.1,0,19.5,1.6,28.3,4.9c8.8,3.3,16.6,8.5,23.4,15.6c6.8,7.2,11.4,14.3,14,22.1
		c3.9,10.7,5.5,23.8,5.5,38.7c0,8.8-0.7,18.2-1.6,28.7c-1.3,10.4-3.6,18.9-6.8,25.7c-3.6,6.8-8.5,13.4-14.7,18.9
		c-6.5,5.9-13,9.8-19.5,11.7c-10.7,3.6-20.5,5.2-28.7,5.2H102.3l21.8-55l68.7-0.7c9.4,0,16.6-2.6,21.8-8.1c5.2-5.5,7.8-13,7.8-22.5
		c0-9.4-2.6-16.9-7.8-22.5s-12.4-8.1-21.8-8.1L102.3,258.3z"/>
</g>
<polygon class="st1" points="96.5,371 124.2,319.5 274.3,460.9 186.7,460.9 "/>
<rect x="25.5" y="203.3" class="st1" width="57.3" height="256.9"/>
<rect x="25.5" y="137.8" class="st2" width="57.3" height="49.5"/>
<g>
	<g>
		<path class="st1" d="M295.4,203.6h11.7V330h-11.7V203.6z"/>
		<path class="st1" d="M403.9,330.3h-13l-30-57.6h-30.6V330h-11.7V203h45.6c9.8,0,17.9,3.6,24.7,10.4c6.8,6.8,10.1,15,10.1,24.7
			c0,7.8-2.6,15-7.5,21.5c-4.9,6.2-11.1,10.1-18.6,12.4L403.9,330.3z M364.5,261.3c6.5,0,11.7-2.3,16.3-6.8
			c4.6-4.6,6.8-10.1,6.8-16.3c0-6.5-2.3-11.7-6.8-16.3s-10.1-6.8-16.3-6.8h-33.9v46.2H364.5z"/>
		<path class="st1" d="M407.1,203.6h11.7V330h-11.7V203.6z"/>
		<path class="st1" d="M462.5,331.3c-8.1-0.3-15.6-2.6-22.5-6.5c-7.8-4.6-13-10.4-15.6-17.9l10.7-3.9c2,4.9,5.5,9.1,11.4,12
			c4.9,2.6,10.4,4.2,16.3,4.6c8.8,0.3,16.3-2,22.5-6.8c5.5-4.2,8.1-9.4,8.5-15.3c0.3-11.1-9.4-19.2-30.3-25.1
			c-15-4.2-25.4-10.1-31.9-17.3c-4.9-5.5-7.2-12-6.8-19.2c0.7-12,5.5-20.8,15.3-26.7c7.8-4.6,16.9-6.8,27.7-6.2
			c13,0.7,23.4,5.2,31.3,13.4l-8.5,7.8c-5.5-6.2-13.4-9.4-23.4-9.8c-8.5-0.3-15.6,1.3-21.2,4.6c-6.2,3.9-9.4,9.8-9.8,17.6
			c-0.3,10.7,9.4,18.9,30.3,24.7c15,4.2,25.4,10.1,31.9,17.6c4.9,5.9,7.2,12,6.8,19.2c-0.3,9.4-4.9,17.3-12.7,23.8
			c-7.8,6.2-16.9,9.4-28,9.4C464.1,331.3,463.1,331.3,462.5,331.3z"/>
	</g>
</g>
<path class="st1" d="M377.5,460.9h-12.7l-28.7-55.4h-29.3v55.4h-11.4V338.4h44c9.1,0,17.3,3.3,23.8,9.8c6.5,6.5,9.8,14.3,9.8,23.8
	c0,7.8-2.3,14.7-7.2,20.5c-4.6,5.9-10.4,9.8-17.9,11.7L377.5,460.9z M339.4,394.4c6.2,0,11.4-2.3,15.6-6.5c4.2-4.2,6.5-9.8,6.5-16
	c0-6.2-2.3-11.4-6.5-15.6c-4.2-4.2-9.8-6.5-15.6-6.5h-32.9v44.6C306.5,394.4,339.4,394.4,339.4,394.4z"/>
<path class="st1" d="M393.5,443.9c-12.4-12-18.2-27-18.2-44.3s6.2-31.9,18.2-44.3c12-12,27-18.2,44.3-18.2s31.9,6.2,44.3,18.2
	c12,12.4,18.2,27,18.2,44.3c0,17.3-6.2,31.9-18.2,44.3c-12.4,12.4-27,18.2-44.3,18.2C420.5,462.2,405.5,456,393.5,443.9z
	 M401.3,363.5c-10.1,10.1-15,22.1-15,36.1c0,14,4.9,26,15,36.1s22.1,15,36.1,15c14,0,26-4.9,36.1-15s15-22.1,15-36.1
	s-4.9-26-15-36.1s-22.1-15-36.1-15C423.4,348.5,411.4,353.4,401.3,363.5z"/>
<path class="st1" d="M574.5,338.4v122.4h-11.1v-30.6h-48.5l-19.5,30.6H482l77.5-122.4H574.5z M521.7,419.2h41.7v-65.8L521.7,419.2z"
	/>
<path class="st2" d="M532.5,330.9c-6.2,0-11.1-2-15-5.9c-3.3-2.9-5.2-6.5-6.2-11.1c-1-4.2-0.7-8.8,0.7-13.4c2-6.2,6.2-11.7,12-16
	l2.9-2.3l-2.6-2.3c-0.3-0.3-0.7-0.7-1.3-1.3l0,0c-2.3-2.3-3.3-3.6-3.9-4.6c-1-2-1.6-4.2-1.6-7.2c0-4.2,1.6-7.8,4.6-11.1l0,0
	c2.9-2.9,6.8-4.6,11.1-4.6c4.6,0,8.1,1.6,11.1,4.6c3.3,3.3,4.6,6.8,4.6,11.1c0,4.2-1,7.5-2.9,9.4c-1,1-2.9,2.6-7.5,4.9
	c-0.7,0.3-1.3,0.7-1.6,1l-3.6,2l2.9,2.9c5.9,5.9,12,11.4,17.9,16.3l3.3,2.6l1.3-3.9c1-2.3,2-6.2,3.6-11.1s2.9-8.8,3.9-11.4l3.6,1.3
	c-1,2.3-2,6.2-3.6,11.1c-2,6.5-3.6,11.1-4.9,14.3l-0.7,2l1.6,1.3c2,1.6,4.2,3.3,6.5,5.2l0.3,0.3l0,0c2,1.6,3.6,2.9,4.9,4.2l-2.6,2.9
	c-1.3-1.3-2.9-2.6-4.9-3.9l0,0H566c-2-1.6-3.6-2.9-4.9-3.9l-2.6-2l-1.6,2.9c-5.9,10.1-13.7,15.3-24.1,15.6h-0.3V330.9z M527.3,287
	c-5.9,3.9-9.8,8.8-11.7,15c-1.3,3.9-1.3,7.8-0.7,11.4c1,3.6,2.6,6.8,5.2,9.1c3.3,2.9,7.5,4.6,12.4,4.6h0.7
	c9.1-0.3,16.3-5.5,21.5-15.3l1-2.3l-1.6-1.3c-8.1-6.5-15-12.7-20.2-17.9c-1-1-2-2-2.9-2.9l-1.6-1.6L527.3,287z M530.9,281.8l2-1
	c0.3,0,0.3-0.3,0.7-0.3h0.3c3.6-1.6,6.5-2.9,8.1-4.6c2.3-2.3,3.6-5.2,3.6-8.5s-1.3-6.2-3.6-8.5s-5.2-3.6-8.5-3.6s-6.2,1.3-8.5,3.6
	s-3.6,5.2-3.6,8.5s1.3,6.2,3.6,8.5c1,1,2.3,2.3,3.9,3.9L530.9,281.8z"/>
</svg>
