<?xml version="1.0" encoding="utf-8"?>
<!-- Generator: Adobe Illustrator 22.0.1, SVG Export Plug-In . SVG Version: 6.00 Build 0)  -->
<svg version="1.1" id="Capa_1" xmlns="http://www.w3.org/2000/svg" xmlns:xlink="http://www.w3.org/1999/xlink" x="0px" y="0px"
	 width="600px" height="600px" viewBox="0 0 600 600" style="enable-background:new 0 0 600 600;" xml:space="preserve">
<style type="text/css">
	.st0{fill:#00447F;}
	.st1{fill:#00325B;}
	.st2{fill:#007DA7;}
</style>
<g>
	<path class="st0" d="M128.4,513.3v66h-17.7v-41.9l-26.8,35.7H68.6l-26.8-36v41.9h-18v-65.7h18.6l33.9,46.3l33.9-46.3H128.4z"/>
	<path class="st0" d="M160.2,513.3v66h-18v-66H160.2z"/>
	<path class="st0" d="M265.2,513.3v14.7H200c-2.4,0-4.4,0.9-5.9,2.1c-1.8,1.5-2.4,3.2-2.4,5.6v20.9c0,2.1,0.9,3.8,2.4,5.6
		c1.8,1.5,3.5,2.1,5.9,2.1h49.2v-10h-22.4v-13.9h40.4v38.9h-72.5c-5.6,0-10.9-1.8-15-5.6c-4.1-3.8-5.9-8.3-5.9-13.6v-27.4
		c0-5.3,1.8-9.7,5.9-13.6s9.1-5.6,15-5.6L265.2,513.3L265.2,513.3z"/>
	<path class="st0" d="M367.1,513.3v14.7H333v51h-18v-51h-34.2v-14.7H367.1z"/>
	<path class="st0" d="M453.2,513.3c5.9,0,10.9,1.8,15,5.6c4.1,3.8,6.2,8.3,5.9,13.6v27.4c0,5.3-1.8,9.7-5.9,13.6
		c-4.1,3.8-9.1,5.6-15,5.6h-51.3c-5.6,0-10.9-1.8-15-5.6c-4.1-3.8-5.9-8.3-5.9-13.6v-27.4c0-5.3,1.8-9.7,5.9-13.6s9.1-5.6,15-5.6
		H453.2z M401,530.4c-1.8,1.5-2.4,3.2-2.4,5.6V557c0,2.1,0.9,3.8,2.4,5.6c1.8,1.5,3.5,2.1,5.9,2.1h41.3c2.4,0,4.4-0.9,5.9-2.1
		c1.8-1.8,2.4-3.2,2.4-5.6V536c0-2.1-0.9-4.1-2.4-5.6c-1.8-1.8-3.5-2.1-5.9-2.1h-41.3C404.6,527.8,402.8,528.7,401,530.4z"/>
	<path class="st0" d="M552.5,513.3c6.2,0,11.8,2.1,16.5,5.9c4.7,4.1,6.8,9.1,6.8,14.7s-1.8,10-5.6,13.9c-3.8,3.8-8.8,5.9-14.4,6.8
		l21.2,24.2h-20.6l-19.7-23.9h-30.1v24.2h-18.3v-65.7H552.5z M506,540.7h44.8c2.1,0,3.8-0.6,5-1.8c1.5-1.5,1.8-2.7,1.8-4.7
		c0-2.1-0.6-3.5-1.8-4.7c-1.5-1.5-2.9-1.8-5-1.8H506L506,540.7L506,540.7z"/>
</g>
<g>
	<polygon class="st1" points="463.4,153.4 412.4,117.3 366.8,126.2 366.8,69.3 313.4,25.2 200.5,52.4 200.5,178.2 224.2,196 
		136.6,213.4 136.6,304 174.2,334.7 259.4,319.3 259.4,442.6 311.9,474.8 421.8,456.5 421.8,288.1 463.4,281.2 	"/>
	<polygon class="st1" points="463.4,281.2 412.4,244.6 307.9,261.9 351.5,300 	"/>
	<polygon class="st0" points="372.3,271.3 259.4,288.1 259.4,442.6 372.3,421.3 	"/>
	<polygon class="st2" points="372.3,421.3 421.8,456.5 421.8,288.1 400.5,291.6 372.3,271.3 	"/>
	<polygon class="st0" points="313.4,153.9 200.5,178.2 200.5,52.4 313.4,25.2 	"/>
	<polygon class="st2" points="366.8,197.5 313.4,153.9 313.4,25.2 366.8,69.3 	"/>
	<polygon class="st1" points="253.9,218.8 200.5,178.2 313.4,153.9 366.8,197.5 	"/>
	<polygon class="st0" points="292.1,275.3 136.6,304 136.6,213.4 292.1,183.2 	"/>
	<polygon class="st1" points="329.7,306.9 292.1,275.3 136.6,304 174.2,334.7 	"/>
	<polygon class="st2" points="463.4,153.4 412.4,117.3 412.4,244.6 463.4,281.2 	"/>
	<polygon class="st0" points="354,187.1 354,128.7 412.4,117.3 412.4,244.6 307.9,261.9 307.9,196 	"/>
	<polygon class="st2" points="329.7,306.9 292.1,276.2 292.1,183.2 329.7,213.9 	"/>
	<polygon class="st1" points="311.9,474.8 421.8,456.5 372.3,421.3 259.4,442.6 	"/>
</g>
</svg>
