<?xml version="1.0" encoding="utf-8"?>
<!-- Generator: Adobe Illustrator 22.0.1, SVG Export Plug-In . SVG Version: 6.00 Build 0)  -->
<svg version="1.1" id="Capa_1" xmlns="http://www.w3.org/2000/svg" xmlns:xlink="http://www.w3.org/1999/xlink" x="0px" y="0px"
	 width="600px" height="600px" viewBox="0 0 600 600" style="enable-background:new 0 0 600 600;" xml:space="preserve">
<style type="text/css">
	.st0{fill:#345CA5;}
	.st1{fill:#38B7E9;}
	.st2{fill:url(#SVGID_1_);}
	.st3{fill:url(#SVGID_2_);}
	.st4{fill:#74C6DB;}
	.st5{fill:url(#SVGID_3_);}
	.st6{fill:url(#SVGID_4_);}
	.st7{fill:url(#SVGID_5_);}
	.st8{opacity:0.5;fill:#FFFFFF;enable-background:new    ;}
	.st9{fill:url(#SVGID_6_);}
	.st10{fill:#B0D7F1;}
	.st11{fill:url(#SVGID_7_);}
	.st12{fill:#71C6DB;}
</style>
<g>
	<path class="st0" d="M111.6,492.5c0.4,0.5,0.7,1.1,0.7,1.8c0,0.5-0.1,1-0.4,1.6l-21.1,49.6c-0.5,1.2-1.3,1.8-2.5,1.8
		c-0.6,0-1.1-0.1-1.5-0.4c-0.4-0.3-0.7-0.7-1-1.4l-21.1-49.3c-0.3-0.7-0.4-1.3-0.4-1.8c0-0.8,0.2-1.4,0.7-1.8s1.1-0.7,2-0.7
		c1.2,0,2.1,0.6,2.6,1.8l18.8,45l18.7-44.8c0.3-0.7,0.6-1.2,1.1-1.5c0.4-0.3,1-0.4,1.7-0.4C110.5,491.8,111.1,492,111.6,492.5z
		 M161.2,496.1c4.2,2.4,7.5,5.7,9.9,9.9s3.6,8.9,3.6,14.1v24c0,0.9-0.3,1.6-0.8,2.1c-0.5,0.6-1.3,0.8-2.2,0.8
		c-0.9,0-1.6-0.3-2.1-0.8c-0.6-0.6-0.8-1.3-0.8-2.1v-7.7c-2.2,3.5-5.2,6.2-8.9,8.3c-3.8,2-8,3-12.7,3c-5.2,0-9.9-1.2-14.1-3.6
		c-4.2-2.4-7.5-5.7-9.9-9.9s-3.6-8.9-3.6-14c0-5.2,1.2-9.9,3.6-14.1c2.4-4.2,5.7-7.5,9.9-9.9c4.2-2.4,8.9-3.6,14.1-3.6
		C152.3,492.5,157,493.7,161.2,496.1z M158.3,539.3c3.3-1.9,5.9-4.5,7.8-7.9c1.9-3.4,2.8-7.1,2.8-11.3c0-4.2-0.9-7.9-2.8-11.3
		c-1.9-3.4-4.5-6-7.8-8c-3.3-1.9-7-2.9-11.1-2.9s-7.8,1-11.1,2.9c-3.3,1.9-5.9,4.6-7.8,8c-1.9,3.4-2.9,7.1-2.9,11.3
		c0,4.2,1,7.9,2.9,11.3c1.9,3.4,4.5,6,7.8,7.9c3.3,1.9,7,2.9,11.1,2.9S155,541.3,158.3,539.3z M198.9,544c-4.2-2.6-7.6-6-10-10.4
		c-2.5-4.4-3.7-9.1-3.7-14.3c0-5.1,1.2-9.8,3.7-14.2s5.8-7.8,10-10.4c4.2-2.6,8.8-3.8,13.9-3.8c3.4,0,6.5,0.5,9.3,1.5
		s5.5,2.6,8.1,4.8c0.5,0.4,0.8,0.9,0.8,1.6c0,0.4-0.1,0.7-0.3,1c-0.2,0.3-0.5,0.5-0.8,0.7c-0.1,0.3-0.3,0.6-0.6,0.8
		c-0.3,0.2-0.7,0.3-1.1,0.3c-0.7,0-1.3-0.2-1.8-0.6c-1.8-1.7-3.9-2.9-6-3.6c-2.2-0.8-4.7-1.1-7.6-1.1c-4,0-7.7,1.1-11.1,3.2
		c-3.4,2.1-6.1,4.9-8.1,8.5c-2,3.5-3,7.4-3,11.5c0,4.2,1,8.1,3,11.6s4.7,6.4,8.1,8.4c3.4,2.1,7.1,3.1,11.1,3.1c5.2,0,9.8-1.7,14-5
		c0.5-0.4,1-0.6,1.6-0.6c0.7,0,1.3,0.2,1.8,0.7s0.8,1.1,0.8,2c0,0.8-0.3,1.4-0.8,2c-4.4,4.1-10.2,6.1-17.4,6.1
		C207.7,547.9,203.1,546.6,198.9,544z"/>
	<path class="st1" d="M253.5,544c-4.2-2.6-7.6-6-10-10.4c-2.5-4.4-3.7-9.1-3.7-14.3c0-5.1,1.2-9.8,3.7-14.2s5.8-7.8,10-10.4
		c4.2-2.6,8.8-3.8,13.9-3.8c3.4,0,6.5,0.5,9.3,1.5s5.5,2.6,8.1,4.8c0.5,0.4,0.8,0.9,0.8,1.6c0,0.4-0.1,0.7-0.3,1
		c-0.2,0.3-0.5,0.5-0.8,0.7c-0.1,0.3-0.3,0.6-0.6,0.8c-0.3,0.2-0.7,0.3-1.1,0.3c-0.7,0-1.3-0.2-1.8-0.6c-1.8-1.7-3.9-2.9-6-3.6
		c-2.2-0.8-4.7-1.1-7.6-1.1c-4,0-7.7,1.1-11.1,3.2c-3.4,2.1-6.1,4.9-8.1,8.5c-2,3.5-3,7.4-3,11.5c0,4.2,1,8.1,3,11.6
		s4.7,6.4,8.1,8.4c3.4,2.1,7.1,3.1,11.1,3.1c5.2,0,9.8-1.7,14-5c0.5-0.4,1-0.6,1.6-0.6c0.7,0,1.3,0.2,1.8,0.7s0.8,1.1,0.8,2
		c0,0.8-0.3,1.4-0.8,2c-4.4,4.1-10.2,6.1-17.4,6.1C262.4,547.9,257.8,546.6,253.5,544z M298,546.3c-0.5-0.5-0.8-1.2-0.8-2v-49.9
		c0-0.8,0.3-1.5,0.8-2s1.2-0.8,2-0.8h33.3c0.8,0,1.5,0.3,2,0.8s0.8,1.2,0.8,1.9c0,0.8-0.3,1.4-0.8,1.9s-1.2,0.7-2,0.7h-30.5v19.6
		h22.2c0.8,0,1.5,0.3,2,0.8s0.8,1.2,0.8,1.9c0,0.8-0.3,1.4-0.8,1.9s-1.2,0.8-2,0.8h-22.2v19.8h30.5c0.8,0,1.5,0.2,2,0.7
		s0.8,1.1,0.8,1.9s-0.3,1.4-0.8,1.9s-1.2,0.8-2,0.8h-33.3C299.2,547.2,298.5,546.9,298,546.3z M347,546.4c-0.5-0.5-0.8-1.2-0.8-2
		v-49.9c0-0.8,0.3-1.5,0.8-2s1.2-0.8,2-0.8c0.9,0,1.6,0.3,2.1,1l33.9,44.5v-42.8c0-0.8,0.3-1.5,0.8-2s1.2-0.8,2-0.8s1.5,0.3,2,0.8
		s0.8,1.2,0.8,2v49.9c0,0.8-0.3,1.4-0.8,2c-0.5,0.5-1.2,0.8-2,0.8c-0.9,0-1.6-0.3-2.1-0.9l-34-44.5v42.7c0,0.8-0.3,1.4-0.8,2
		c-0.5,0.5-1.2,0.8-2,0.8C348.2,547.2,347.6,546.9,347,546.4z M442.4,492.5c0.5,0.5,0.7,1.1,0.7,1.8c0,0.7-0.2,1.3-0.7,1.8
		s-1.1,0.7-1.8,0.7h-16.9v47.6c0,0.8-0.3,1.4-0.8,2c-0.5,0.5-1.2,0.8-2,0.8s-1.4-0.3-2-0.8c-0.5-0.5-0.8-1.2-0.8-2v-47.6h-16.8
		c-0.8,0-1.4-0.2-1.8-0.7c-0.5-0.5-0.7-1.1-0.7-1.8c0-0.8,0.2-1.4,0.7-1.8c0.5-0.5,1.1-0.7,1.8-0.7h39.2
		C441.4,491.8,441.9,492,442.4,492.5z M452.1,546.3c-0.5-0.5-0.8-1.2-0.8-2v-49.9c0-0.8,0.3-1.5,0.8-2s1.2-0.8,2-0.8h33.3
		c0.8,0,1.5,0.3,2,0.8s0.8,1.2,0.8,1.9c0,0.8-0.3,1.4-0.8,1.9s-1.2,0.7-2,0.7h-30.5v19.6h22.2c0.8,0,1.5,0.3,2,0.8s0.8,1.2,0.8,1.9
		c0,0.8-0.3,1.4-0.8,1.9s-1.2,0.8-2,0.8h-22.2v19.8h30.5c0.8,0,1.5,0.2,2,0.7s0.8,1.1,0.8,1.9s-0.3,1.4-0.8,1.9s-1.2,0.8-2,0.8
		h-33.3C453.4,547.2,452.6,546.9,452.1,546.3z M535.7,544.8c0,0.7-0.3,1.3-0.8,1.7s-1.2,0.6-2.1,0.6c-0.6,0-1-0.1-1.4-0.4
		c-0.4-0.2-0.7-0.6-1-1.1l-12.8-20.3h-1.1h-10.5v18.9c0,0.8-0.3,1.5-0.8,2s-1.2,0.8-2,0.8s-1.5-0.3-2-0.8s-0.8-1.2-0.8-2v-49.9
		c0-0.8,0.3-1.5,0.8-2s1.2-0.8,2-0.8h13.3c3.5,0,6.5,0.7,9.2,2.2c2.7,1.4,4.8,3.5,6.3,6.1s2.3,5.6,2.3,8.9c0,3.6-1,6.8-2.9,9.6
		c-2,2.7-4.6,4.7-8,5.9l11.6,18.6C535.4,543.6,535.7,544.2,535.7,544.8z M516.4,520.1c2.4,0,4.5-0.5,6.4-1.5s3.4-2.3,4.5-4
		c1.1-1.7,1.6-3.6,1.6-5.8c0-2.3-0.5-4.3-1.6-6.1c-1.1-1.8-2.5-3.2-4.4-4.2s-4-1.5-6.5-1.5h-10.5v23.1H516.4z"/>
</g>
<g>
	
		<linearGradient id="SVGID_1_" gradientUnits="userSpaceOnUse" x1="283.5357" y1="-268.4808" x2="498.1694" y2="-268.4808" gradientTransform="matrix(0.9906 0.1365 0.1365 -0.9906 -7.3473 -226.1548)">
		<stop  offset="0" style="stop-color:#38B7E9"/>
		<stop  offset="1" style="stop-color:#2A327C"/>
	</linearGradient>
	<path class="st2" d="M274.5,65.9c8.3,2.6,16.4,6.1,24.4,10.6c8,4.5,15.5,10.1,22.4,16.6c4.3,4,8.3,8.4,12,13.1
		c11.5,0.5,23,2.3,34.2,5.2c7.5,2.1,14.7,4.8,22,7.8l5.2,2.5c1.7,0.9,3.4,1.8,5.2,2.8c1.7,0.9,3.4,2,5.1,2.9l2.5,1.5l2.5,1.5
		l2.5,1.5l1.2,0.8l1.2,0.9l4.8,3.4l4.6,3.7c1.5,1.2,2.9,2.6,4.5,3.8c4.9,4.3,9.5,9.1,13.8,14c0-2.1,0-4.1-0.2-6.3
		c-0.5-12.9-2.5-25.5-6.6-37.8c-4.1-12.1-10.3-23.8-18.9-34.4c-4.3-5.2-9.2-10.1-14.6-14.7c-5.4-4.6-11.2-8.9-17.4-12.9
		c6,0.8,12,2.1,17.8,4c-5.7-2.3-11.5-4.5-17.5-6.3c-10.6-3.2-21.5-5.5-32.6-7.2l-8.3-0.9c-2.8-0.3-5.5-0.5-8.3-0.6
		c-2.8-0.3-5.5-0.2-8.3-0.3h-4.1c-1.4,0-2.8,0-4.1,0.2c-2.8,0.2-5.5,0.2-8.4,0.3l-8.3,0.8c-2.8,0.3-5.5,0.8-8.3,1.1
		c-2.8,0.3-5.5,0.9-8.3,1.4c-11.1,2.1-21.8,4.9-32.4,8.8c-4.9,1.8-9.7,3.7-14.3,5.8c3.4,0.3,6.8,0.6,10.3,1.1
		C258.1,61.4,266.4,63.3,274.5,65.9z"/>
	
		<linearGradient id="SVGID_2_" gradientUnits="userSpaceOnUse" x1="137.4188" y1="530.1376" x2="239.6792" y2="530.1376" gradientTransform="matrix(1 0 0 -1 0 602)">
		<stop  offset="0" style="stop-color:#38B7E9"/>
		<stop  offset="1" style="stop-color:#2A327C"/>
	</linearGradient>
	<path class="st3" d="M223.6,67.4c5.2-2.9,10.6-5.5,16.1-8c-0.6,0-1.2-0.2-1.8-0.2c-4-0.3-8-0.3-12-0.3c-15.8,0.2-31.2,2.1-45.9,5.5
		c-7.4,1.7-14.6,3.8-21.8,6.1c-7.1,2.5-14,5.1-20.7,8.3c7.4,0,14.7,0.3,22,0.8c7.2,0.6,14.4,1.4,21.3,2.3c5.5,0.8,10.9,1.7,16.3,2.8
		C205.3,78.5,214.2,72.6,223.6,67.4z"/>
	<path class="st4" d="M230.5,94.7c3.1,1.2,6,2.5,8.9,3.8c5.7,2.8,11.2,5.8,16,9.2c4.8,3.2,9.1,6.9,12.7,10.7
		c2.8-1.2,5.5-2.3,8.4-3.4c7.2-2.8,14.7-4.8,22.3-6.3c7.5-1.5,15.2-2.5,23-2.8c4-0.2,7.8-0.2,11.8,0c-3.7-4.6-7.7-9.1-12-13.1
		c-6.9-6.4-14.6-12-22.4-16.6c-8-4.5-16.1-8-24.4-10.6s-16.4-4.5-24.7-5.5c-3.4-0.5-6.9-0.8-10.3-1.1c-5.5,2.5-10.9,5.1-16.1,8
		c-9.2,5.2-18.1,11.1-26.6,17.7c8.3,1.7,16.4,3.8,24.1,6.3C224.3,92.4,227.4,93.5,230.5,94.7z"/>
	
		<linearGradient id="SVGID_3_" gradientUnits="userSpaceOnUse" x1="185.3264" y1="-282.4138" x2="558.9661" y2="-282.4138" gradientTransform="matrix(0.9906 0.1365 0.1365 -0.9906 -7.3473 -226.1548)">
		<stop  offset="0" style="stop-color:#38B7E9"/>
		<stop  offset="1" style="stop-color:#2A327C"/>
	</linearGradient>
	<path class="st5" d="M197,84.9c-0.5,0.3-0.9,0.6-1.2,0.9l-3.4,2.8l3.2-2.6C196.1,85.7,196.5,85.2,197,84.9z"/>
	
		<linearGradient id="SVGID_4_" gradientUnits="userSpaceOnUse" x1="185.3264" y1="-288.8481" x2="558.9661" y2="-288.8481" gradientTransform="matrix(0.9906 0.1365 0.1365 -0.9906 -7.3473 -226.1548)">
		<stop  offset="0" style="stop-color:#38B7E9"/>
		<stop  offset="1" style="stop-color:#2A327C"/>
	</linearGradient>
	<path class="st6" d="M247.7,103c-2.6-1.5-5.5-2.9-8.3-4.3c-1.8-0.9-3.8-1.8-5.8-2.6c2,0.8,4,1.7,5.8,2.6
		C242.1,100,245.1,101.5,247.7,103z"/>
	
		<linearGradient id="SVGID_5_" gradientUnits="userSpaceOnUse" x1="185.3264" y1="-281.8311" x2="558.9661" y2="-281.8311" gradientTransform="matrix(0.9906 0.1365 0.1365 -0.9906 -7.3473 -226.1548)">
		<stop  offset="0" style="stop-color:#38B7E9"/>
		<stop  offset="1" style="stop-color:#2A327C"/>
	</linearGradient>
	<path class="st7" d="M203.1,86.3c5.1,1.2,10.1,2.6,15,4.1C213.3,88.9,208.2,87.5,203.1,86.3z"/>
	<path class="st8" d="M256.9,109c-0.6-0.5-1.1-0.8-1.5-1.1c-1.2-0.9-2.5-1.7-3.7-2.5c1.2,0.8,2.5,1.7,3.7,2.5
		C256,108.3,256.4,108.6,256.9,109z"/>
	<path class="st8" d="M230.5,94.7c1.1,0.5,2,0.8,3.1,1.2C232.5,95.5,231.5,95.2,230.5,94.7c-3.1-1.2-6.1-2.3-9.4-3.4
		c-0.9-0.3-2-0.6-2.9-0.9c0.9,0.3,2,0.6,2.9,0.9C224.3,92.4,227.4,93.5,230.5,94.7z"/>
	
		<linearGradient id="SVGID_6_" gradientUnits="userSpaceOnUse" x1="185.3264" y1="-502.3572" x2="558.9661" y2="-502.3572" gradientTransform="matrix(0.9906 0.1365 0.1365 -0.9906 -7.3473 -226.1548)">
		<stop  offset="0" style="stop-color:#38B7E9"/>
		<stop  offset="1" style="stop-color:#2A327C"/>
	</linearGradient>
	<path class="st9" d="M455.9,366.4c-7.4,5.5-15,10.6-22.9,15c-2,1.1-3.8,2.1-5.8,3.2c-2,1.1-4,2-6,3.1c-2,1.1-4,1.8-6,2.8
		c-2,0.9-4,1.8-6,2.6l-3.1,1.2c-1.1,0.5-2,0.8-3.1,1.2l-6.1,2.1l-6.1,2c-1.1,0.3-2,0.6-3.1,0.9l-3.1,0.8c-8.3,2.1-16.4,3.8-24.7,4.9
		c-8.3,0.9-16.6,1.5-24.7,1.4c-8.3,0-16.4-0.8-24.4-1.8c-8.1-1.1-16.1-2.9-23.8-5.2l-2.9-0.9c-0.9-0.3-2-0.6-2.9-0.9l-5.7-2
		c-3.7-1.5-7.5-3.1-11.1-4.9l-2.8-1.2c-0.9-0.5-1.7-0.9-2.6-1.4l-2.6-1.4c-0.9-0.5-1.7-0.9-2.6-1.5l-5.1-3.1l-4.9-3.4
		c-6.6-4.6-12.7-9.7-18.6-15.2c-5.8-5.5-11.1-11.5-15.8-17.8l-1.8-2.3l-0.9-1.2l-0.8-1.2l-3.4-4.9l-3.1-5.1
		c-0.6-0.8-0.9-1.7-1.5-2.6l-1.4-2.6c-3.7-6.9-7.1-14.1-9.7-21.5c-2.6-7.4-4.6-15-6-22.7l-0.9-5.8l-0.6-5.8c-0.2-0.9-0.2-2-0.3-2.9
		l-0.2-2.9c0-0.9-0.2-2-0.2-2.9v-2.9v-2.9v-1.5v-1.5l0.2-5.8c0.3-3.8,0.5-7.8,1.1-11.7l0.3-2.9c0.2-0.9,0.3-2,0.5-2.9
		c0.3-1.8,0.6-3.8,1.1-5.7l1.4-5.7c0.2-0.9,0.5-1.8,0.8-2.8l0.8-2.8c0.3-0.9,0.5-1.8,0.8-2.8l0.9-2.8c0.6-1.8,1.2-3.7,2-5.5l2.1-5.4
		l2.5-5.2c2.3-4.8,4.8-9.4,7.5-13.8c-0.3,0.3-0.5,0.8-0.8,1.1c-23.8,34.4-40.1,74.5-40.1,119.6c0,41.1,12,79.5,32.4,111.9
		c6.9,5.7,14.3,10.9,21.8,15.7l7.1,4.1l7.2,3.8c1.2,0.6,2.5,1.2,3.7,1.8l3.7,1.7c1.2,0.6,2.5,1.2,3.7,1.7l3.8,1.5
		c5.1,2.1,10.1,3.8,15.2,5.7l7.8,2.3c1.2,0.5,2.6,0.8,4,1.1l4,0.9c21,5.1,42.7,6.6,64,4.3c10.6-1.2,21.2-3.2,31.3-6.3
		c10.1-2.9,20.1-6.9,29.5-11.7l3.5-1.8c1.2-0.6,2.3-1.2,3.4-1.8l6.8-4l6.4-4.3c1.1-0.8,2.1-1.5,3.2-2.3l3.1-2.3
		c1.1-0.8,2.1-1.5,3.1-2.3l2.9-2.5l2.9-2.5c0.9-0.8,1.8-1.7,2.9-2.6c3.8-3.5,7.4-7.1,10.7-10.9c13.5-15.2,24.1-32.7,29.9-51.4
		C470.6,354.5,463.4,360.7,455.9,366.4z"/>
	<path class="st10" d="M199.8,178.6c0.3-0.3,0.5-0.8,0.8-1.1c1.2-2.1,2.6-4.3,4-6.3c4.3-6.4,9.2-12.4,14.4-18.1l2-2.1
		c0.6-0.8,1.4-1.4,2-2l4.1-4l4.5-3.8c0.8-0.6,1.5-1.2,2.3-1.8l0,0c5.2-4.3,10.1-7.8,15.2-10.7c2.1-1.4,4.1-2.6,6.3-3.8
		c4.1-2.3,8.3-4.3,12.6-6.1c-2.8-2.6-7.4-6.8-11.1-9.5c-0.5-0.3-1.1-0.8-1.5-1.1c-1.2-0.9-2.5-1.7-3.7-2.5c-1.2-0.8-2.6-1.5-4-2.3
		c-2.6-1.5-5.5-2.9-8.3-4.3c-1.8-0.9-3.8-1.8-5.8-2.6c-0.9-0.5-2-0.8-3.1-1.2c-3.1-1.2-6.1-2.3-9.4-3.4c-0.9-0.3-2-0.6-2.9-0.9
		c-4.9-1.5-10-2.9-15-4.1c-2-0.5-4.1-0.9-6.1-1.4c-0.5,0.3-0.9,0.6-1.2,0.9l-3.4,2.5c-1.1,0.9-2.1,1.7-3.2,2.8l-6.3,5.5l-6,5.8
		c-1.1,0.9-2,2-2.9,3.1l-2.9,3.1c-3.8,4.1-7.4,8.4-10.9,12.7c-3.5,4.5-6.8,8.9-9.8,13.5c-6.1,9.4-11.5,19.2-16.1,29.3l-3.2,7.7
		c-0.5,1.2-0.9,2.6-1.5,4c-0.5,1.4-0.9,2.6-1.5,4c-0.5,1.2-0.9,2.6-1.4,4c-0.5,1.4-0.8,2.6-1.2,4l-1.2,4c-0.5,1.4-0.8,2.8-1.1,4
		c-0.3,1.4-0.8,2.8-1.1,4c-0.3,1.4-0.6,2.8-0.9,4l-1.4,8.1c-0.3,1.4-0.5,2.8-0.6,4.1c-0.2,1.4-0.5,2.8-0.6,4.1
		c-0.2,0.6-0.2,1.2-0.3,1.8c-0.2,0.8-0.3,1.5-0.3,2.3l-0.5,4.1c-0.2,1.4-0.3,2.8-0.5,4.1c-0.2,2.8-0.3,5.5-0.5,8.3
		c0,1.4-0.2,2.8-0.2,4.1v8.3v2.1l0.2,2.1l0.2,4.1c0.6,11.1,2.1,22.1,4.6,32.9c2.5,10.7,5.7,21.3,9.8,31.6c1.8,4.5,3.8,8.9,6,13.4
		c2.6,5.5,5.5,11.1,8.8,16.3c5.7,9.5,12,18.4,19.2,26.7c2.6,3.1,5.4,6.1,8.3,9.2c2.8,2.9,5.7,6,8.8,8.8c2,1.8,4,3.7,6.1,5.5l0,0
		c1.5,1.2,3.1,2.5,4.6,3.7c-20.6-32.4-32.4-70.8-32.4-111.9C159.7,253,176,213,199.8,178.6z"/>
	
		<linearGradient id="SVGID_7_" gradientUnits="userSpaceOnUse" x1="267.9313" y1="391.7312" x2="483.7703" y2="391.7312" gradientTransform="matrix(1 0 0 -1 0 602)">
		<stop  offset="0" style="stop-color:#38B7E9"/>
		<stop  offset="1" style="stop-color:#2A327C"/>
	</linearGradient>
	<path class="st11" d="M479.4,146.8c-0.8-3.1-1.5-6.3-2.5-9.4L446,154.8c-0.9-1.1-2,1.2-3.2,3.5c0,10.7-1.1,21.5-2.8,31.9
		c-2.1,12.4-12,79.5-44.2,78c-8.4,0-24.9-7.1-28.4-42.8c-10.3-102.9-31.6-116.7-33.9-119.5c-4-0.2-7.8-0.2-11.8,0
		c-7.7,0.3-15.4,1.2-23,2.8c-7.5,1.5-15,3.5-22.3,6.3c-2.9,1.1-5.7,2.1-8.4,3.4c32.2,35.8,37.5,55.1,48.5,103.3
		c13.7,59.3,34.7,78.5,53.1,86.3c88.6,37.9,112.9-97,113.8-113.3C484.6,178.9,483,162.5,479.4,146.8z"/>
	<path class="st12" d="M442.8,152.2c0.2,2.1,0.2,4.1,0.2,6.3c12-7.1,34.1-20.9,34.1-20.9c-3.7-12.4-28.6-73.7-97.8-89.2
		C439.9,84.9,442.2,139.3,442.8,152.2z"/>
</g>
</svg>
