<?xml version="1.0" encoding="utf-8"?>
<!-- Generator: Adobe Illustrator 22.0.1, SVG Export Plug-In . SVG Version: 6.00 Build 0)  -->
<svg version="1.1" id="Capa_1" xmlns="http://www.w3.org/2000/svg" xmlns:xlink="http://www.w3.org/1999/xlink" x="0px" y="0px"
	 width="600px" height="600px" viewBox="0 0 600 600" style="enable-background:new 0 0 600 600;" xml:space="preserve">
<style type="text/css">
	.st0{fill:#8CB6DC;}
	.st1{fill:#B24E88;}
	.st2{fill:#4E5190;}
	.st3{fill:#D0984A;}
	.st4{fill:#AF3134;}
	.st5{fill:#E9CE52;}
	.st6{fill:#3D4E7F;}
	.st7{fill:#339BC1;}
</style>
<g>
	<path class="st0" d="M327,116.8c3.4-5.9,6.9-12,10.4-17.9c-1.1-9.9-3.2-21.1-6.7-33.8c-2.5,3.3-6,8-9.7,13.6c1.6,6,3.2,12,4.5,18
		C326.7,102.5,327.1,109.6,327,116.8"/>
	<path class="st0" d="M275.1,96.7c1.3-6,2.8-12,4.5-18c-3.7-5.6-7.2-10.3-9.7-13.6c-3.5,12.6-5.6,23.7-6.7,33.6
		c3.5,5.9,7,11.9,10.4,17.9C273.5,109.4,273.9,102.4,275.1,96.7"/>
	<path class="st1" d="M261.3,154.4c1.4,3.4,3,8.4,4.9,14.5c0.8-1.9,1.6-3.8,2.4-5.6c0.5-1.1,1-2.2,1.5-3.3c0.5-1.1,1.1-2.2,1.6-3.3
		c1.4-2.8,3-5.6,4.6-8.4c-0.7-4.6-1.5-10.9-2.1-17.8c-3.6-6.7-7.7-13.9-11.9-21.1c-0.9-1.6-1.9-3.2-2.8-4.8
		c-0.9-1.5-1.8-3.1-2.7-4.6c-7.4-12.4-14.4-23.7-18.8-30.7c-1.9,17.5-1.9,34.1-0.6,49.8C247.2,130.6,257.1,143.9,261.3,154.4"/>
	<path class="st1" d="M324.4,146.9c1.8,3,3.4,6.1,4.8,9.1c0.5,1.1,1.1,2.2,1.6,3.4c0.5,1.1,1,2.3,1.5,3.4c0.5,1.2,1,2.4,1.5,3.7
		c1.5-4.9,2.9-9.1,4.1-12c4.4-11,15.3-25.3,25.5-37.3c1.1-15.1,1.1-31.1-0.8-47.8c-4.4,7-11.5,18.4-18.9,30.9
		c-0.9,1.5-1.8,3-2.7,4.6c-0.9,1.6-1.9,3.2-2.8,4.8c-4.2,7.2-8.3,14.4-11.9,21.1C325.8,136.8,325.1,142.5,324.4,146.9"/>
	<path class="st0" d="M242.8,188.9c0.2-0.9,0.4-1.9,0.6-2.8l0.8-3.6l0.2-0.9l3.7,2.7l0.1,0.1c1.4,1,2.8,2.1,4.2,3.1
		c2.3,1.8,4.6,3.6,6.8,5.4c0.8-4.7,2-9.4,3.5-14.2c-2.7-9.5-5.2-17.4-7-22c-3.1-7.7-9.7-17.3-17-26.5c-1.2-1.5-2.3-2.9-3.5-4.3
		c-1.2-1.4-2.4-2.9-3.6-4.3c-7.1-8.3-14-15.7-18.1-20c-3,16.6-3.8,32.7-2.3,48C220.5,161.5,232.3,176.4,242.8,188.9"/>
	<path class="st0" d="M343.6,156.7c-1.7,4.3-4,11.4-6.5,19.9c1.1,4.3,2,8.5,2.5,12.7c1.5-1.7,3.1-3.4,4.7-5.1l3.2-3.4l1.7,4.1
		l0.1,0.2c0.6,1.3,1.1,2.6,1.6,4c0.6,1.5,1.1,2.9,1.7,4.4c0.1,0.4,0.3,0.7,0.4,1.1c10.4-11.9,23.7-28.4,34.9-42.5
		c1.8-16.1,1.1-32.9-2-50.5c-3.8,4-10,10.6-16.5,18.1c-1.2,1.3-2.3,2.7-3.5,4.1c-1.2,1.4-2.3,2.8-3.5,4.2
		C354.4,137.9,346.9,148.4,343.6,156.7"/>
	<path class="st2" d="M242.2,237.5c0.8,0.4,1.6,0.7,2.3,1.1c-0.6-1.6-1.1-3.3-1.6-5c-0.6-2.2-1.1-4.6-1.5-6.9
		c-1.6-9.2-1.6-19.2,0-30c-9.1-10.7-19.6-23.7-28.7-35.2c-1.3-1.6-2.5-3.2-3.7-4.7c-1.2-1.6-2.4-3.1-3.6-4.5
		c-4.7-6-8.8-11.3-11.7-15c-3.3,30.2,0.9,56.9,12.4,79.9C221.1,227,234.2,233.7,242.2,237.5"/>
	<path class="st2" d="M355.2,201.2c2.4,7.8,3.9,15.4,4.6,22.7c0.1,1.6,0.3,3.2,0.3,4.7c0.1,1.7,0.1,3.3,0.1,4.9c0,1.7-0.1,3.3-0.2,5
		c7.1-3.3,19.6-9.5,34.3-18.8c14.1-24.3,19.4-53.2,15.8-86.2c-3.8,5-9.7,12.6-16.5,21.2c-1.2,1.5-2.4,3.1-3.7,4.7
		c-1.3,1.6-2.6,3.2-3.9,4.8C375.5,177.3,364.1,191.2,355.2,201.2"/>
	<path class="st1" d="M475.3,268.5c-15.6,4.1-31.1,7.6-33.1,8c-1.4,0.5-10.5,3.9-23.7,8.9c-3.8,9.6-7.8,19.2-11.9,28.7
		c38.2-17.1,66.7-36.8,83.4-49.8C485.9,265.6,481,267,475.3,268.5"/>
	<path class="st2" d="M281,136.7c0.4,3.4,0.8,6.5,1.1,9.1l0.6,1.4c0.4,0.9,0.7,1.8,1.1,2.7c0.1,0.2,0.1,0.3,0.2,0.5
		c2.2,5.1,4.6,10,7.1,14.8c0.1,0.3,0.3,0.5,0.4,0.8c0.7,1.3,1.4,2.6,2.1,3.9c0.6,1.2,1.3,2.3,1.9,3.5c0.1,0.1,0.1,0.2,0.2,0.3
		c0.1,0.2,0.2,0.4,0.4,0.6c0.6-1.2,1.2-2.4,1.8-3.7c1.3-2.8,2.7-5.6,4-8.4c0.7-1.5,1.4-3,2.1-4.5c0.7-1.6,1.4-3.1,2.1-4.7
		c2.3-5.2,4.4-10.6,6.2-16.1l1.9-5.8l2.9,4.2l0.6,0.9c0.5,0.7,0.9,1.3,1.3,2c0.1,0.2,0.3,0.4,0.4,0.6c0.1-0.6,0.1-1.1,0.2-1.7
		c0.3-2.5,0.5-5.2,0.7-8c0.8-10.7,1-22.7-0.8-31c-0.9-4.1-1.9-8.2-3-12.3c-0.4-1.4-0.7-2.7-1.1-4.1c-0.4-1.3-0.7-2.7-1.1-4
		c-4.9-17.4-10.7-33.6-14-42.6c-3.4,9-9.1,25.2-14,42.6c-0.4,1.3-0.7,2.6-1.1,4c-0.4,1.4-0.7,2.7-1.1,4.1c-1.1,4.1-2.1,8.2-3,12.3
		c-1.8,8.2-1.6,20.1-0.8,30.8C280.5,131.5,280.7,134.2,281,136.7"/>
	<path class="st3" d="M332.2,182.5c-0.4-2-0.9-4-1.5-6c-0.8-2.7-1.7-5.4-2.7-8.1c-0.4-1.1-0.8-2.2-1.3-3.2c-0.4-1.1-0.9-2.1-1.4-3.2
		c-0.9-1.9-1.8-3.8-2.7-5.7c-0.7-1.4-1.4-2.7-2.2-4.1c-0.8-1.4-1.5-2.7-2.4-4.1c-0.1-0.2-0.2-0.3-0.3-0.5c-0.6-1-1.2-2-1.8-3
		c-1.3,3.6-2.8,7.1-4.3,10.5c-1.1,2.6-2.3,5.1-3.4,7.6c-0.7,1.4-1.4,2.9-2,4.3l-0.2,0.3c-0.6,1.3-1.2,2.6-1.9,3.9
		c-0.3,0.6-0.6,1.3-0.9,1.9c-1.2,2.5-2.4,5-3.6,7.5c0.1,0.2,0.3,0.5,0.4,0.7c1.1,1.9,2.2,3.8,3.2,5.7c0.9,1.5,1.7,3.1,2.5,4.6
		c0.2,0.3,0.4,0.6,0.5,1c0.6,1.2,1.3,2.4,1.9,3.6c0,0.1,0.1,0.2,0.1,0.2c0.6,1.1,1.2,2.2,1.7,3.3c2.9,5.7,5.5,11.4,7.5,17.2
		c1.2-1.7,2.3-3.4,3.6-5.1c1.6-2.2,3.2-4.3,4.9-6.5c1.5-2,3.1-4,4.7-6c1-1.3,2.1-2.5,3.2-3.8c-0.1-2-0.2-4-0.5-6.1
		C333.2,187.3,332.7,184.9,332.2,182.5"/>
	<path class="st4" d="M296.5,187.6c-0.6-1-1.2-2.1-1.8-3.2l-0.1-0.1c-0.3-0.6-0.6-1.1-0.9-1.7c-0.2-0.4-0.4-0.7-0.6-1.1
		c-0.1-0.2-0.2-0.4-0.3-0.6c-0.6-1-1.1-2-1.7-3c-0.5-0.9-1-1.8-1.5-2.7c-0.2-0.3-0.4-0.7-0.6-1l-0.6-1.1c-2.1-3.8-4.1-7.7-6.1-11.7
		c-1-2.1-2-4.3-3-6.4c-0.4,0.8-0.8,1.5-1.2,2.3c-0.9,1.7-1.8,3.4-2.6,5.1c-0.5,1-1,2.1-1.5,3.1c-0.5,1-0.9,2.1-1.4,3.1
		c-1.4,3.3-2.7,6.7-3.8,9.9c-0.6,1.8-1.2,3.6-1.7,5.4c-0.6,2.1-1.1,4.1-1.5,6.1c-0.5,2.4-0.9,4.8-1.2,7.2c1.4,1.2,2.8,2.5,4.2,3.8
		c1.4,1.3,2.8,2.7,4.2,4c1.5,1.4,2.9,2.9,4.3,4.3c1.4,1.4,2.7,2.8,4,4.3c0.9,1,1.7,2,2.6,2.9c0.9,1,1.8,2.1,2.6,3.1
		c2.7,3.3,5.3,6.6,7.7,10c1,1.5,2.1,3,3,4.5c1,1.5,2,3.1,2.9,4.6c0.1,0.1,0.1,0.2,0.2,0.3c0,0.1,0.1,0.2,0.2,0.3
		c0.4,0.7,1.1,1.9,2,3.5c0.4-0.8,0.8-1.6,1.2-2.4c0.9-1.8,1.8-3.6,2.8-5.4c2.1-3.9,4.4-7.8,6.9-11.7c-1.6-5.2-3.6-10.3-6-15.5
		c-0.2-0.4-0.4-0.9-0.6-1.3c-0.5-1.1-1.1-2.2-1.6-3.4c-0.1-0.2-0.2-0.5-0.4-0.7c-0.5-0.9-0.9-1.8-1.4-2.7c-0.4-0.8-0.8-1.5-1.2-2.3
		c-1.4-2.7-2.9-5.4-4.5-8.1C297.3,188.9,296.9,188.3,296.5,187.6"/>
	<path class="st0" d="M219.6,253.1l0.4,0.2c0,0,0,0,0.1,0c-0.4-2.1-0.7-4.2-1.1-6.4c-0.3-1.8-0.5-3.7-0.7-5.6
		c-0.2-1.8-0.4-3.7-0.5-5.5c-0.1-1.2-0.2-2.5-0.3-3.7l0-0.8c-1.6-0.9-3.2-1.9-4.9-2.9c-1.8-1.1-3.7-2.3-5.6-3.5
		c-1.7-1.1-3.5-2.2-5.2-3.4c-14.2-9.4-29.9-21.5-44.8-36.5c9.9,16.7,24.1,38.4,42.8,60.1C207.9,248.2,215,251,219.6,253.1"/>
	<path class="st0" d="M392.7,227.9c-2.2,1.3-4.3,2.6-6.3,3.8c-12.5,7.2-22.4,11.9-27.3,14c-0.3,2.2-0.8,4.3-1.3,6.5
		c-0.8,3.4-1.9,6.7-3.2,9.9c-0.4,1.1-0.9,2.1-1.4,3.2c2.7-1.4,5.4-2.8,8.1-4.3c5-2.7,9.9-5.6,14.6-8.8l1.4-0.9l3.7-2.5l-0.2,4.5
		l0.2-0.1c5.2-2.4,13.5-5.5,23.1-9.2c0.8-0.3,1.7-0.6,2.5-1c17.8-21,31.4-41.9,40.9-58c-16.4,16.5-33.9,29.5-49.1,39.3
		C396.6,225.5,394.6,226.7,392.7,227.9"/>
	<path class="st5" d="M261.1,202.4c-0.9-0.8-1.9-1.7-2.9-2.5c-0.5-0.4-1-0.9-1.6-1.3c-1.6-1.3-3.2-2.6-4.8-3.9
		c-1.2-0.9-2.3-1.8-3.5-2.7c-0.1,0.5-0.2,1-0.3,1.5c-0.1,0.5-0.2,0.9-0.2,1.4c-0.2,1.3-0.4,2.7-0.6,4c-0.2,1.4-0.3,2.7-0.5,4.1
		c-1.3,13.2,0.1,25,4.1,35.3c1.3,3.2,2.8,6.3,4.6,9.2c0.1,0.2,0.3,0.5,0.4,0.7c0.2,0.1,0.4,0.2,0.5,0.3c3.4,1.7,6.7,3.4,10,5.1
		c3.1,1.6,6.2,3.2,9.2,4.9c0.9,0.5,1.7,1,2.6,1.5c0.3,0.2,0.7,0.4,1,0.6c1.2,0.7,2.4,1.5,3.6,2.2c0.6,0.4,1.2,0.7,1.8,1.1
		c1.3,0.8,2.5,1.7,3.8,2.6c1.3,0.9,2.6,1.9,3.8,2.8c0.1,0.1,0.2,0.1,0.3,0.2c0.1-0.4,0.2-0.7,0.3-1c0-0.1,0-0.2,0.1-0.2
		c0.3-1,0.6-2,0.8-2.9c0.1-0.4,0.3-0.9,0.4-1.3c0.6-1.9,1.1-3.4,1.5-4.4c0.2-0.5,0.3-0.8,0.4-1.1c0.1-0.3,0.2-0.6,0.3-0.9
		c0.7-1.9,1.4-3.7,2.2-5.6c0.3-0.7,0.6-1.4,0.9-2c-0.1-0.2-0.2-0.4-0.3-0.6c-0.8-1.5-1.6-3-2.4-4.5c-0.5-0.9-1-1.7-1.5-2.6
		c-0.4-0.6-0.8-1.3-1.2-1.9c-2.3-3.8-4.9-7.6-7.8-11.4c-1-1.3-2-2.6-3-3.9c-0.8-1-1.7-2.1-2.6-3.1c-0.1-0.1-0.2-0.3-0.3-0.4
		c-1.3-1.6-2.7-3.1-4.1-4.6c-1.4-1.5-2.8-3.1-4.3-4.6c-2.5-2.5-5.1-5.1-7.8-7.5C263.1,204.2,262.1,203.3,261.1,202.4"/>
	<path class="st5" d="M321.9,221.7c-0.6,1-1.3,1.9-1.9,2.9c-0.8,1.2-1.5,2.4-2.3,3.6c-0.4,0.6-0.7,1.1-1.1,1.7
		c-0.4,0.7-0.8,1.4-1.2,2.1c-3,5-5.6,10-8,15c-0.5,1-1,2.1-1.4,3.1c-0.2,0.5-0.5,1.1-0.7,1.6c-0.3,0.7-0.6,1.4-0.9,2.1l0,0
		c-0.3,0.7-0.6,1.4-0.9,2.1c-0.2,0.6-0.5,1.2-0.7,1.9c-0.2,0.4-0.3,0.8-0.5,1.3c-0.2,0.6-0.4,1.1-0.7,1.7c-0.4,1-0.7,2-1.1,3
		c-0.6,1.7-1.1,3.5-1.7,5.2c-0.3,1-0.6,2.1-0.9,3.1c-0.2,0.6-0.3,1.2-0.5,1.7c1.4,1.3,2.7,2.6,4,3.9c0.6,0.7,1.3,1.3,1.9,2
		c0.8,0.8,1.5,1.7,2.2,2.6c0.7,0.8,1.3,1.6,1.9,2.5c1.1,1.5,2.1,3,3.1,4.6c2-1.5,4-3,6.1-4.4c1.1-0.7,2.2-1.4,3.3-2.1
		c7.3-4.6,15.2-8.6,23.3-12.7c0.2-0.1,0.3-0.2,0.5-0.2c0.3-0.6,0.6-1.1,1-1.7c4.6-8.3,7.5-17.2,8.6-26.7c0-0.1,0-0.1,0-0.2
		c0.2-1.7,0.3-3.3,0.4-5c0.1-1.6,0.1-3.3,0.1-4.9c-0.1-7.9-1.3-16.3-3.7-24.9c-0.3-1.1-0.6-2.3-1-3.4c-0.1-0.3-0.2-0.6-0.3-0.9
		c-0.3-0.8-0.5-1.6-0.8-2.5c-0.2-0.7-0.5-1.3-0.7-2c-0.5-1.4-1-2.9-1.6-4.3c-0.2-0.5-0.4-1-0.6-1.6c-1.8,2-3.6,4-5.3,6
		c-1,1.2-2.1,2.4-3.1,3.7c-1.1,1.4-2.2,2.7-3.3,4.1c-2.4,3-4.7,6-6.9,9C325.1,216.9,323.5,219.3,321.9,221.7"/>
	<path class="st1" d="M183.4,287.1c-5.2-2-9.2-3.6-11.6-4.6c-6.2-2.4-12.8-4.9-20.1-6.7c-2-0.5-4-1-6.1-1.5c-10-2.5-20.3-5-30.3-8.1
		c-0.8-0.2-2-0.5-3.5-0.9c-0.6-0.1-1.2-0.3-1.8-0.4c20.2,16.7,44.7,32.3,73,46.5c4.3,2.2,8.7,4.2,13,6.2c-0.2-0.4-0.4-0.9-0.6-1.3
		C191.3,306.6,187.3,296.8,183.4,287.1"/>
	<path class="st2" d="M168.8,269.9c1.4,1.1,4.9,3.1,10,5.8c-2.7-6.9-5.3-13.6-7.9-20.3l-5-12.9l54.8,53.2l0.2,0.2
		c0.3,0.3,0.6,0.5,0.9,0.8c0-0.2,0-0.4,0-0.6c0.2-3.6,0.5-6.2,0.6-7.1l0.7-6.3l15.4,15.1c-3.2-4.2-6-8.7-8.5-13.7
		c-1.1-2.2-2.1-4.5-3.1-6.8c-0.8-2-1.6-4.1-2.3-6.2c-1.1-3.1-2-6.3-2.9-9.7c-1.9-1.1-3.5-2.1-4.9-2.9c-2.2-1-5-2.2-8.3-3.4
		c-2-0.8-4.1-1.6-6.3-2.4c-2-0.8-4.1-1.6-6.3-2.4c-0.6-0.2-1.1-0.4-1.7-0.7c-25.9-9.8-61.5-23.4-81.2-38.1
		C124,230.5,142.7,250.1,168.8,269.9"/>
	<path class="st2" d="M422.5,275.3c4.7-2.5,7.9-4.4,9.3-5.4c26.1-19.8,44.8-39.4,55.7-58.4c-18.7,14-51.8,26.9-77.2,36.6
		c-1.3,0.5-2.7,1-4,1.5c-0.7,0.3-1.5,0.6-2.2,0.8c-2.1,0.8-4.2,1.6-6.1,2.3c-5.8,2.2-10.8,4.2-14.3,5.8c-1,0.6-2.1,1.3-3.4,2
		c-0.4,3.9-0.8,7.7-1.5,11.4c-0.3,1.7-0.6,3.3-0.9,4.9c-0.4,1.7-0.8,3.5-1.2,5.2c-0.2,0.9-0.4,1.7-0.7,2.6l1.9-1.9l0.7,6.3
		c0.1,0.7,0.3,2.6,0.5,5.2c0.1,0.7,0.1,1.5,0.2,2.3l0.4-0.2c0.2-0.1,0.3-0.3,0.5-0.4l3.6-3.5l51.4-49.9l-5,12.9
		C427.7,261.9,425.1,268.6,422.5,275.3"/>
	<path class="st1" d="M224.7,244.3c0.2,1.8,0.5,3.6,0.8,5.3c0.3,1.8,0.6,3.6,1,5.4c0.2,0.8,0.4,1.6,0.6,2.5c0.3,1.4,0.7,2.7,1,4.1
		c0.4,1.4,0.8,2.8,1.2,4.2c1.6,5.2,3.5,10.1,5.7,14.6c1.2,2.5,2.5,4.8,3.9,7.1c1.8,3,3.8,5.8,5.9,8.4c3,3.8,6.4,7.2,10,10.2
		c0.7,0.6,1.5,1.2,2.3,1.7c0.6-0.8,1.1-1.6,1.6-2.3c0.7-1,1.3-1.8,1.8-2.5c0.4-0.5,0.7-1,1-1.3l0.9-1.2l1.3-1.7l0.1,0.1l4.7,4.7
		l4.7,4.7l11.1,11.3c1.3,0.3,2.6,0.5,4,0.7c1.4-3.9,3-7.4,4.9-10.7c0.5-0.9,1.1-1.8,1.6-2.7c0,0,0-0.1,0.1-0.1
		c0.6-0.9,1.1-1.7,1.7-2.5c0,0,0,0,0,0c0.6-0.8,1.2-1.6,1.8-2.4c2.4-3.1,5.1-5.9,8-8.5c-1.6-2.7-3.4-5.2-5.4-7.5
		c-1-1.3-2.1-2.5-3.2-3.7c-0.5-0.5-1-1-1.5-1.5c-0.5-0.5-1-0.9-1.5-1.4c-0.4-0.4-0.8-0.7-1.1-1.1c-0.4-0.4-0.8-0.7-1.3-1.1
		c-0.4-0.4-0.9-0.8-1.3-1.1c-2-1.7-4.2-3.3-6.4-4.8c-1.2-0.8-2.4-1.6-3.6-2.4c-1.2-0.8-2.3-1.5-3.6-2.2c-3.9-2.3-7.9-4.6-12.1-6.8
		c-0.8-0.4-1.6-0.8-2.4-1.2c-1.8-0.9-3.5-1.8-5.3-2.7c-0.4-0.2-0.8-0.4-1.1-0.6c-1.1-0.6-2.2-1.1-3.3-1.7c-0.2-0.1-0.3-0.2-0.5-0.2
		c-0.3-0.2-0.7-0.3-1-0.5c-0.9-0.5-1.8-0.9-2.8-1.4c-8.3-4.1-16.6-8.5-24.8-13.6C224.2,240,224.4,242.2,224.7,244.3"/>
	<path class="st1" d="M301,315.6c3.7,0,10.1,8.8,10.2,9c0.2,0.2,0.3,0.4,0.5,0.6l9.2-9.3l16.8-17.1l0,0c0,0,9.2,13.4,9.6,13.9
		l19.1-18.7c0.6-1.6,1.3-3.2,1.8-4.9c0.6-1.7,2.6-8.7,3-10.4c1.1-4.6,1.9-9.4,2.5-14.5c0.1-1.2,0.3-2.5,0.4-3.7c0,0,0,0,0,0
		c-0.3,0.2-0.7,0.4-1,0.6c-4.8,3-25.3,13.6-25.5,13.7c-1,0.5-6.2,3.1-6.8,3.4c-1.6,0.8-3.2,1.6-4.7,2.4c-8.2,4.3-15.8,8.7-22.4,14.1
		c-0.8,0.7-4,3.4-4.8,4.2c-2.1,2-4.1,4.1-5.9,6.4c-0.2,0.2-2.7,3.6-2.9,4c-0.2,0.3-2.2,3.5-2.3,3.7c-0.5,0.8-2.8,5.6-3.5,7.3
		C295.3,319.4,298.4,315.6,301,315.6"/>
	<path class="st3" d="M224.5,333.1c-0.1-0.2-0.2-0.5-0.3-0.8c-0.5-1.1-0.8-2.3-1.2-3.7c-1.6-6.7-1.8-16.1-1.5-24.2
		c-0.9-0.8-1.9-1.6-2.7-2.4c-0.5-0.4-0.9-0.9-1.4-1.3c-0.2-0.2-0.4-0.4-0.6-0.6l-4.9-4.8l-0.4-0.4l-5.8-5.7l-0.7-0.7l-23.2-22.6
		c1.8,4.5,3.6,9.1,5.4,13.8c0.3,0.8,0.6,1.6,1,2.4c0.3,0.6,0.5,1.3,0.8,1.9c0.3,0.7,0.5,1.3,0.8,2c0.3,0.8,0.6,1.6,0.9,2.4
		c0.2,0.5,0.4,1,0.6,1.6c3.2,7.9,6.5,15.8,9.9,23.5c0.9,2,1.7,4.2,2.6,6.4c0.1,0.3,0.2,0.6,0.4,0.9c0.5,1.3,1,2.7,1.6,4
		c0.6,1.4,1.2,2.7,1.8,4.1c1.8,3.8,3.8,7.3,6.3,9.9c5.1,5.3,14.6,10.1,21.9,9.9c-3.8-4.2-7.1-8.7-9.4-12.5
		C225.6,335.2,225,334.1,224.5,333.1"/>
	<path class="st5" d="M247.6,344.5c-0.2-0.5-0.5-0.9-0.7-1.4c-0.5-1-0.8-1.9-1.2-2.8c-0.1-0.3-0.2-0.6-0.3-0.9
		c-0.1-0.2-0.2-0.5-0.2-0.7c-0.2-0.8-0.3-1.7-0.4-2.6c0-1.4,0.1-2.9,0.5-4.4c0.3-1.5,0.8-3.1,1.4-4.7c0.4-1.2,0.9-2.4,1.5-3.7
		c0.8-1.7,1.6-3.4,2.5-5.1l-3.6-3.5l-2.5-2.4l-3.6-3.6l-2.4-2.3l-3.9-3.8l-2.1-2l-4.6-4.5c-0.1,0.8-0.1,1.7-0.2,2.5
		c0,0.3,0,0.6,0,0.9c0,0.8-0.1,1.5-0.1,2.3c0,0,0,0,0,0c0,0.3,0,0.6,0,1c0,0.8-0.1,1.5-0.1,2.3c0,0.2,0,0.4,0,0.6c0,0.1,0,0.3,0,0.4
		c0,1.2,0,2.4-0.1,3.5c0,8.3,0.5,16.7,2.5,20.8c0.1,0.3,0.3,0.6,0.4,0.9c0.7,1.3,1.5,2.7,2.4,4.1c0.9,1.4,1.9,2.8,3,4.2
		c1.9,2.5,4,5,6.2,7.2c0.7,0.7,1.5,1.5,2.2,2.1c0.8,0.7,1.6,1.4,2.3,2c3.1,2.5,6.1,4.1,8.4,4.2c-2.2-2.5-4.1-5.1-5.7-7.6
		C248.7,346.5,248.1,345.5,247.6,344.5"/>
	<path class="st0" d="M283.1,334.2c0.5-0.7,1.1-1.4,1.6-2.1c0.3-0.4,0.7-0.9,1-1.3c0.1-0.1,0.2-0.3,0.3-0.4l-0.7-0.7l-0.1-0.1
		l-4.3-4.4l-0.1-0.1l-0.4-0.4l-3.8-3.8l-1.3-1.3l-0.7-0.7l-2.9-2.9l-5.9-6l-1.8-1.8c-0.1,0.2-0.2,0.3-0.3,0.5
		c-0.5,0.8-1.1,1.6-1.7,2.4c-0.4,0.5-0.7,1.1-1.1,1.6c-0.2,0.3-0.4,0.6-0.6,0.9c0,0,0,0,0,0c-0.4,0.6-0.7,1.1-1,1.7
		c-0.2,0.3-0.4,0.6-0.6,0.9c0,0,0,0,0,0c-0.2,0.3-0.3,0.6-0.5,0.9c-0.2,0.3-0.3,0.6-0.5,0.8c-0.2,0.3-0.4,0.6-0.5,1
		c-0.2,0.3-0.4,0.6-0.5,0.9c-0.5,0.9-1,1.9-1.5,2.8c-1.6,3.2-2.9,6.2-3.7,8.7c-0.7,2.3-0.9,4.2-0.5,5.6c0.1,0.3,0.2,0.6,0.3,1
		c0.2,0.5,0.4,1.1,0.7,1.7c0.3,0.6,0.6,1.3,1,2c0.7,1.2,1.4,2.5,2.3,3.8c1.3,1.9,2.7,3.8,4.4,5.6c0.7,0.8,1.5,1.6,2.2,2.4
		c0.7,0.7,1.5,1.5,2.3,2.1c2.4,2.1,4.9,3.9,7.4,5.2c-0.7-2.2-0.7-5.4,1.7-10.8c0-0.1,0.1-0.2,0.1-0.3c0.4-0.8,0.8-1.6,1.2-2.5
		c0.5-0.9,1-1.8,1.5-2.8c0.9-1.5,1.9-3.1,3.1-4.8C280.4,337.9,281.6,336.1,283.1,334.2"/>
	<path class="st3" d="M410.7,288.3c0.5-1.2,1-2.5,1.5-3.7c0.1-0.2,0.2-0.4,0.3-0.6c0.4-1.1,0.9-2.1,1.3-3.2c0.2-0.4,0.3-0.8,0.5-1.1
		c1.8-4.5,3.6-9,5.3-13.4l-21,20.4l-1.6,1.6l-4,3.9l-3,2.9l-2.7,2.6l-2.7,2.7c-0.5,0.4-0.9,0.9-1.4,1.3c-1,0.9-2.1,1.9-3.3,2.9
		c0.2,6.8,0.1,14.6-0.9,20.9c-0.2,1.3-0.4,2.4-0.7,3.6c-0.3,1.3-0.7,2.6-1.2,3.6c-0.1,0.2-0.2,0.4-0.2,0.6
		c-2,4.2-6.2,10.3-11.1,15.8c7.3,0.2,16.7-4.6,21.9-9.9c3.3-3.4,5.7-8.4,7.8-13.4c0.5-1.3,1.1-2.6,1.6-3.9c0.2-0.5,0.4-1,0.6-1.6
		c0.3-0.9,0.7-1.7,1-2.5c0.5-1.4,1.1-2.7,1.6-3.9c3.6-8.3,7.2-16.8,10.6-25.3C410.7,288.4,410.7,288.3,410.7,288.3"/>
	<path class="st5" d="M370.6,331.6c0.2-0.4,0.4-0.7,0.5-1.1c0.4-0.8,0.7-1.7,1-2.7c1.2-4.5,1.6-11.3,1.6-18.1c0-1.3,0-2.5-0.1-3.8
		c0-0.1,0-0.1,0-0.2c0-0.9-0.1-1.8-0.1-2.7l0-0.5c0-0.2,0-0.5,0-0.7c0-0.7-0.1-1.4-0.1-2c0-0.2,0-0.4,0-0.5
		c-0.1-0.9-0.1-1.8-0.2-2.7c0-0.2,0-0.3,0-0.5l-0.9,0.9l-0.6,0.6l-4.7,4.6l-0.4,0.4l-1.3,1.3l-4.4,4.3l-0.1,0.1l-6,5.9l-0.1,0.1
		l-4,4c0.1,0.1,0.1,0.2,0.2,0.3c0.5,0.9,1,1.9,1.5,2.9c0.3,0.6,0.6,1.3,0.9,1.9c0.2,0.4,0.3,0.7,0.5,1.1c0.4,0.9,0.7,1.7,1,2.6
		c0.6,1.6,1.1,3.2,1.4,4.7c0.1,0.4,0.2,0.9,0.2,1.3c0.2,1.1,0.3,2.1,0.2,3.1c0,1-0.1,1.9-0.4,2.7c-0.1,0.2-0.1,0.4-0.2,0.6
		c-0.1,0.3-0.2,0.6-0.3,1c-0.5,1.3-1.1,2.7-1.9,4.1c-0.5,1-1.1,2.1-1.8,3.1c-1.6,2.5-3.5,5.1-5.7,7.6c2.3,0,5.2-1.7,8.4-4.2
		c0.8-0.6,1.6-1.3,2.3-2c0.7-0.7,1.5-1.4,2.2-2.1c3.4-3.4,6.7-7.5,9.2-11.3C369.1,334.2,369.9,332.8,370.6,331.6"/>
	<path class="st0" d="M349.1,339.7c0.3-0.6,0.5-1.2,0.7-1.8c0.1-0.3,0.2-0.6,0.3-0.9c0.2-0.7,0.2-1.5,0.1-2.4
		c-0.1-0.9-0.3-2-0.7-3.1c-0.3-0.9-0.6-1.9-1-2.9c-0.4-0.9-0.8-1.9-1.2-2.9c-0.4-0.9-0.9-1.9-1.4-2.8c0,0,0-0.1-0.1-0.1
		c-0.5-0.9-1-1.9-1.5-2.8c-0.2-0.4-0.4-0.8-0.6-1.1c-0.3-0.5-0.6-1.1-0.9-1.6c-0.2-0.4-0.4-0.7-0.6-1.1c0-0.1-0.1-0.2-0.1-0.2
		c-0.5-0.8-1-1.6-1.5-2.4c0-0.1-0.1-0.2-0.2-0.2c-0.6-0.9-1.1-1.7-1.7-2.6c-0.1-0.2-0.3-0.4-0.4-0.6c-0.4-0.7-0.9-1.3-1.3-1.9
		l-5.5,5.5l-0.9,0.9l-4.6,4.7l-0.3,0.3l-3.8,3.8l-1,1.1l-1,1.1l-0.6,0.6l-3.3,3.3l-0.6,0.6c1.1,1.4,2.2,2.8,3.3,4.3
		c0.3,0.4,0.6,0.7,0.8,1.1c0.7,0.9,1.3,1.8,1.9,2.7c0.7,0.9,1.3,1.9,1.8,2.7c0.1,0.1,0.2,0.3,0.3,0.4c0.6,1,1.2,1.9,1.7,2.8
		c0.6,1,1.1,1.9,1.6,2.8c3.7,6.9,4.1,11,3.4,13.6c2.2-1.2,4.4-2.8,6.5-4.7c0.8-0.7,1.5-1.4,2.3-2.1c0.8-0.8,1.5-1.6,2.2-2.4
		c2.8-3.2,5.2-6.6,6.8-9.6C348.6,340.9,348.9,340.3,349.1,339.7"/>
	<path class="st2" d="M323.4,353c-0.6-1.5-1.5-3.2-2.6-5c-0.4-0.6-0.7-1.3-1.2-1.9c-0.2-0.3-0.4-0.6-0.5-0.9
		c-0.6-0.9-1.2-1.8-1.8-2.8c-0.1-0.1-0.2-0.3-0.3-0.4c-0.6-0.9-1.3-1.8-1.9-2.7c0,0,0,0,0-0.1c-0.7-0.9-1.4-1.9-2.1-2.8
		c-0.5-0.7-1.1-1.4-1.7-2.2c-0.6-0.8-1.3-1.6-1.9-2.4c-0.1-0.1-0.1-0.2-0.2-0.2c-0.2-0.3-0.5-0.6-0.7-0.9c-0.3-0.4-0.7-0.8-1-1.2
		c-0.1-0.1-0.2-0.3-0.4-0.4c-0.2-0.3-0.4-0.5-0.6-0.8c-0.3-0.3-0.6-0.7-0.8-1c-0.2-0.3-0.5-0.5-0.7-0.8c-0.2-0.2-0.4-0.4-0.5-0.6
		c-0.1-0.1-0.2-0.3-0.3-0.4c-0.4-0.4-0.7-0.8-1.1-1.2c-0.1-0.1-0.9-1.1-2-1.1c-1.1,0-1.8,0.8-2,1.1c-0.4,0.4-0.7,0.8-1.1,1.2
		c-0.5,0.6-1,1.2-1.5,1.7c-0.4,0.4-0.8,0.9-1.1,1.3c-0.2,0.3-0.4,0.5-0.7,0.8c-0.2,0.2-0.3,0.4-0.5,0.5c-0.3,0.4-0.6,0.7-0.9,1.1
		c-0.2,0.2-0.3,0.4-0.5,0.6c-0.1,0.1-0.2,0.2-0.3,0.3c-0.1,0.1-0.2,0.2-0.3,0.4c-0.3,0.4-0.6,0.8-0.9,1.2c-0.3,0.4-0.6,0.7-0.9,1.1
		c0,0.1-0.1,0.1-0.1,0.2c-0.7,1-1.5,1.9-2.2,2.9c-0.3,0.4-0.6,0.8-0.9,1.3c-0.7,0.9-1.3,1.9-2,2.8c-0.5,0.7-0.9,1.4-1.4,2
		c-0.4,0.7-0.8,1.3-1.2,1.9c-0.2,0.4-0.5,0.8-0.7,1.2c-0.3,0.5-0.6,1.1-0.9,1.6c-0.3,0.4-0.5,0.9-0.7,1.3c-0.3,0.5-0.5,1-0.8,1.5
		c-0.2,0.5-0.5,0.9-0.7,1.4c-1.3,3-1.8,5.4-1.1,6.7c0.6,1.1,2.3,2.2,5,3.2c1.4,0.5,3.1,1,5,1.4c1.4,0.3,2.9,0.5,4.6,0.7
		c2.7,0.3,5.6,0.5,8.8,0.5h0c2.9,0,5.6-0.2,8.1-0.4c1.7-0.2,3.3-0.4,4.7-0.7c2-0.4,3.8-0.9,5.3-1.4c2.8-1,4.7-2.2,5.3-3.3
		c0.4-0.8,0.4-1.9,0-3.4C324.2,355.1,323.8,354.1,323.4,353"/>
</g>
<g>
	<path class="st6" d="M333,389.2c1.8,0.5,3,0.9,3.5,1.2c0.5,0.3,0.7,1.1,0.7,2.2c0,1.6-1,4.8-2.9,9.7c-2,4.8-4.5,10.8-7.6,17.8
		c-3.1,7-6.6,15-10.5,24c-3.9,9-7.8,18.4-11.7,28.3c3.5,0.9,6.2,2.3,8.3,4.1c2.1,1.8,3.6,3.9,4.5,6c0.9,2.2,1.4,4.4,1.6,6.6
		c0.1,2.2,0.1,4-0.2,5.4c-0.5,5.5-1.7,10.4-3.6,14.7c-2,4.3-4.3,7.8-7.1,10.5c-2.8,2.8-5.6,4.9-8.5,6.4c-2.9,1.5-5.5,2.2-7.8,2.2
		c-2.3,0-4.1-1.3-5.5-4c-1.4-2.6-2.1-7.9-2.1-15.7c0-3.4,0.2-7,0.7-10.5c0.5-3.6,1-6.7,1.6-9.5c0.6-2.8,1.1-5.1,1.7-6.9
		c0.6-1.8,0.9-3,0.9-3.5c-1.4,0-4.3-0.1-8.6-0.3c-4.4-0.2-8.5-0.1-12.4,0.3c-4.6,5.3-10.2,12-16.9,20c-6.7,8.1-14.1,15.9-22.3,23.6
		c-8.2,7.7-16.7,14.3-25.7,19.8c-9,5.5-17.9,8.3-26.9,8.3c-6.7,0-12.3-2.1-16.9-6.2c-4.6-4.1-6.7-10.5-6.2-19
		c0.2-3.5,1.1-7.1,2.8-11c1.6-3.9,4.3-6.8,7.9-8.6h0.7c1.4-0.5,2.8,0.3,4.1,2.4c1.4,2.1,1.8,3.8,1.4,5.2c-0.5,0.9-0.7,0.9-0.7,0v-1
		l-0.3-0.3c-1.8,0.7-3.3,1.8-4.5,3.3c-1.2,1.5-2.1,2.8-2.8,4c-1.4,2.3-2.2,5-2.4,7.9c-0.2,3,0.2,5.9,1.4,8.6c1.1,2.8,3,5.1,5.5,7.1
		c2.5,2,5.9,2.9,10,2.9c6.2,0.2,12.2-1.4,17.9-4.8c5.8-3.5,11.7-8.2,17.8-14.2c6.1-6,12.5-13,19.2-21.1c6.7-8.1,13.8-16.6,21.4-25.5
		c-9.7,0.7-19.3,2.2-28.8,4.5c-9.6,2.3-18.2,3.5-26.1,3.5c-4.8,0-8.6-0.4-11.4-1.2c-2.8-0.8-5-1.7-6.6-2.8c-1.6-1-2.6-2.1-3.1-3.1
		c-0.5-1-0.7-1.8-0.7-2.2c0.2-4.1,1.8-6.7,4.7-7.8c2.9-1,5.4-1.3,7.4-0.9c0,0.2,0.1,0.6,0.2,1c0.1,0.5,0.6,0.9,1.4,1.4
		c0.8,0.5,2.2,0.9,4.1,1.2c2,0.3,4.8,0.5,8.5,0.5c3.5,0,7.4-0.2,11.7-0.7c4.4-0.5,9.1-1,14.2-1.7c5.1-0.7,10.4-1.3,16.1-1.7
		c5.6-0.5,11.2-0.7,16.7-0.7c9-10.4,17.9-22.1,26.7-35.2c8.9-13.1,18.6-26.2,29.2-39.3c0-0.2,1.3-1.3,4-3.1
		C323,389.4,327.2,388.7,333,389.2 M276.7,468.9c1.1,0.2,2.8,0.3,5,0.3c2.2,0,5.5,0.3,9.8,1c0.2-0.9,1-3.1,2.2-6.6
		c1.3-3.5,2.6-7.1,4-10.9c1.4-3.8,2.6-7.2,3.6-10.2c1-3,1.6-4.6,1.6-4.8c-0.5-0.7-1.8,0.3-4.1,2.9c-2.3,2.6-4.9,5.8-7.8,9.5
		c-2.9,3.7-5.7,7.4-8.5,11C279.8,465,277.9,467.5,276.7,468.9 M313.3,494.8c0.5-3.9-0.3-7.2-2.4-9.8c-2.1-2.6-5.1-4.5-9-5.7
		c-1.6,4.1-3.4,9.4-5.5,15.9c-2.1,6.4-3.3,13.3-3.8,20.7c-0.2,2.5,0.3,4.3,1.6,5.3c1.3,1,2.9,0.7,5-0.9c0.7-0.5,1.7-1.3,3.1-2.6
		c1.4-1.3,2.9-3,4.5-5.2c1.6-2.2,3-4.8,4.3-7.8C312.3,501.8,313.1,498.5,313.3,494.8"/>
	<path class="st6" d="M406.2,484.8c1.1-0.2,2,0.1,2.4,0.9c0.5,0.8,0.1,2.1-1,4c-3.9,6.9-7.2,12.6-10,17.1c-2.8,4.5-6,9.5-9.7,15
		c-2.5,3.7-4.7,5.8-6.4,6.4c-1.7,0.6-3.3,0.7-4.7,0.5c-1.6-0.5-2.9-1.2-3.8-2.2c-0.9-1-1.5-3-1.7-6c0-3,0.3-6.3,0.9-10
		c0.6-3.7,1.4-7.4,2.4-11.2c1-3.8,2.2-7.4,3.6-10.7c1.4-3.3,2.6-6,3.8-8.1c-2.3,3.2-4.7,6.8-7.2,10.7c-2.5,3.9-5,7.7-7.2,11.4
		c-2.3,3.7-4.4,7-6.2,10c-1.8,3-3.2,5.3-4.1,6.9c-2.5,3.5-4.5,5.9-6,7.2c-1.5,1.4-3.2,2.1-5,2.1c-1.6-0.5-2.9-1.1-3.8-2.1
		c-0.9-0.9-1-3.3-0.3-7.2c0.5-3.2,1.4-7.9,2.8-14c1.4-6.1,3.3-12.1,5.9-18.1c0.5-1.6,0.2-1.7-0.7-0.3c-2.8,3.7-5.7,7.8-8.8,12.4
		c-3.1,4.6-6,8.9-8.6,12.9c-2.6,4-5,7.5-6.9,10.4c-2,2.9-3,4.4-3.3,4.7c-1.8,1.6-4.1,2-6.7,1.2c-2.6-0.8-3.8-2.2-3.6-4.3
		c1.4-6.2,3.1-12.5,5-19c2-6.4,3.9-12.4,5.9-17.9c2-5.5,3.7-10.1,5.4-13.8c1.6-3.7,2.6-5.9,3.1-6.6c0.9-1.4,2.2-2.4,3.8-2.9
		c1.6-0.6,3.2-0.9,4.8-0.9c1.6,0,3,0.3,4.3,1c1.3,0.7,2,1.7,2.2,3.1c0.2,1.2-0.1,2.2-1,3.1c-1.8,1.2-3.4,2.8-4.7,4.8
		c-1.3,2.1-2.4,4.3-3.3,6.7c-0.9,2.4-1.7,4.8-2.4,7.1c-0.7,2.3-1.3,4.1-1.7,5.5c2.5-3.7,5.3-7.9,8.3-12.6c3-4.7,6.1-9.1,9.3-13.3
		c1.4-1.8,3-3.2,5-4c2-0.8,3.8-1,5.5-0.7c1.7,0.3,3,1.3,4,2.9c0.9,1.6,1,3.9,0.3,6.9c-0.2,1.4-0.8,3.4-1.7,6
		c-0.9,2.6-1.9,5.5-2.9,8.6l-3.1,9.3c-1,3.1-1.8,5.6-2.2,7.4v0.3c0.9-0.9,1.9-2.2,2.9-3.8c1-1.6,2.1-3.3,3.3-5.2
		c1.4-2.3,3.5-5.6,6.2-9.8c2.8-4.3,6-8.7,9.7-13.3c3.9-5.3,7.1-8.4,9.7-9.3c2.5-0.9,4.9-0.8,7.2,0.3c1.8,1.2,2.9,2.6,3.3,4.5
		c0.3,1.8-0.5,4.8-2.6,9c-2.5,4.8-5.1,9.9-7.6,15.2c-2.5,5.3-4.4,11.5-5.5,18.6v2.8c0,1.2,0.3,1.7,1,1.7c0.7,0,1.5-0.5,2.4-1.6
		c0.9-1,1.8-2.2,2.8-3.6c0.9-1.4,1.7-2.7,2.4-4c0.7-1.3,1.3-2.2,1.7-2.9c2.3-3.4,4.9-7.3,7.8-11.6
		C403.4,488.3,405.2,485.7,406.2,484.8"/>
	<path class="st6" d="M438.6,503.1c-1.8,0.9-3.5,1.4-4.8,1.4c-1.8,3.5-3.7,6.7-5.5,9.8c-1.8,3.1-3.9,5.8-6.2,8.1
		c-2.5,2.5-4.7,4.2-6.6,5c-1.8,0.8-4,1.2-6.6,1.2c-3.2,0-5.9-1-7.9-3.1c-2.1-2.1-3.6-4.7-4.7-7.8c-1-3.1-1.6-6.6-1.7-10.4
		c-0.1-3.8,0.3-7.4,1.2-10.9c2.1-9.2,6.7-17.7,13.8-25.5c3-3.2,6-5.5,9.1-6.9c3.1-1.4,6-2,8.8-1.9c2.8,0.1,5.2,0.9,7.2,2.4
		c2.1,1.5,3.6,3.6,4.5,6.4c2.1,6.9,0.8,16.7-3.8,29.3c1.4-0.2,2.8-0.6,4.3-1.2c1.5-0.6,2.9-1.1,4.3-1.6c0.7-0.5,1.4-0.9,2.1-1.2
		c0.7-0.3,1.4-0.7,2.1-1.2c0.9-0.5,1.7-0.8,2.4-1c0,0.9-0.3,1.5-1,1.7c-0.7,0.5-1.4,1-2.1,1.7c-0.7,0.5-1.4,1-2.1,1.6
		c-0.7,0.6-1.4,1.1-2.1,1.6C441.8,501.6,440.2,502.4,438.6,503.1 M412.7,520c1.6,0,3.3-0.8,5-2.4c1.7-1.6,3.3-3.3,4.7-5.2
		c1.4-1.8,2.5-3.6,3.3-5.2c0.8-1.6,1.1-2.5,0.9-2.8c-2.3-2.1-3.9-4.5-4.8-7.2c-0.9-2.8-1.4-5.5-1.4-8.3c0-2.8,0.3-5.3,0.9-7.6
		c0.6-2.3,1.1-4,1.6-5.2c-2.8,0.5-5.6,2.2-8.5,5.4c-2.9,3.1-5.6,8.9-8.1,17.4c-1.8,6.4-2.1,11.6-0.7,15.5
		C406.9,518.4,409.3,520.2,412.7,520 M428.6,499.6c0.7-1.6,1.3-3.6,1.7-6c0.5-2.4,0.9-4.8,1.2-7.2c0.3-2.4,0.5-4.6,0.3-6.6
		c-0.1-2-0.5-3.2-1.2-3.6c-1.4,1.2-2.4,2.8-2.9,5c-0.6,2.2-0.9,4.5-1,6.9c-0.1,2.4,0,4.7,0.3,6.9
		C427.4,497.2,427.9,498.7,428.6,499.6"/>
	<path class="st6" d="M488.7,478.6c1.8-0.2,2.1,1.4,0.7,4.8c-4.8,5.3-8.4,9.4-10.7,12.4c-2.3,3-4.3,5.1-5.9,6.2
		c-1.4,1.2-2.8,1.2-4.1,0.2c-1.4-1-2-2.8-1.7-5.3c0.2-2.5,0.5-5.4,0.9-8.5c0.3-3.1,0.9-6.7,1.6-10.9c0-0.9-0.2-1.4-0.7-1.4
		c-0.2-0.2-0.5-0.1-0.7,0.3c-0.2,0.5-0.5,0.9-0.7,1.4c-1.6,2.3-3.9,6-6.7,11c-2.9,5.1-5.8,10.2-8.8,15.4c-3,5.2-5.7,10-8.1,14.3
		c-2.4,4.4-4,7-4.7,7.9c-0.9,1.2-2.5,1.8-4.7,2.1c-2.2,0.2-3.3-1.4-3.3-4.8v-0.3h0.3c0-1.6,0.2-3,0.7-4.1c0-0.5,0.1-1,0.3-1.7
		c0.2-0.7,0.5-1.4,0.7-2.1c1.4-5.7,3-11.4,4.8-17.1c1.8-5.6,3.5-10.8,5-15.4c1.5-4.6,2.9-8.5,4.1-11.6c1.3-3.1,2.1-5,2.6-5.7
		c0.7-1.4,1.8-2.4,3.3-2.9c1.5-0.6,3-0.8,4.5-0.7c1.5,0.1,2.9,0.5,4.1,1.2c1.3,0.7,2,1.7,2.2,3.1c0,0.5-0.1,1-0.3,1.6
		c-0.2,0.6-0.6,1.1-1,1.6c-1.2,0.9-2.4,2.6-3.8,5.2c-1.4,2.5-2.6,5.4-3.8,8.6c-0.2,0.7-0.5,1.4-0.7,2.1c-0.2,0.7-0.5,1.5-0.7,2.4
		c2.8-4.6,5.7-9.1,8.8-13.6c3.1-4.5,5.1-7.1,6-7.8c1.1-1.1,2.5-2,4.1-2.6c1.6-0.6,3-0.7,4.3-0.3c1.3,0.3,2.3,1.2,3.1,2.4
		c0.8,1.3,1,2.9,0.5,5c-0.5,1.8-1,4-1.6,6.4c-0.6,2.4-1.2,4.7-1.7,6.9c-0.6,2.2-1.2,4.2-1.7,6c-0.6,1.8-0.9,2.9-0.9,3.1
		c-0.2,0.9-0.2,1.3,0,1c0.2-0.2,0.6-0.5,1-0.7c0.7-0.9,2.4-3,5.2-6.4C483.5,484,486.1,481.1,488.7,478.6"/>
	<path class="st7" d="M400.4,536.3c-1.2,2.4-2.3,4.8-3.3,7.1c-1,2.4-2.1,4.8-3.1,7.2l1.3-2c0.9-1.5,1.9-3,2.8-4.6c1-1.5,2-3,3.1-4.4
		c1-1.3,2.2-2.7,3.4-4.1c1.2-1.4,2.6-2.4,4.2-3.1c1-0.4,2-0.6,3.1-0.6c1.1,0,2.1,0.2,3,0.6c0.9,0.4,1.7,1,2.3,1.8
		c0.6,0.8,0.9,1.8,0.9,3.1c-0.1,1.4-0.3,2.8-0.6,4.1c-0.4,1.3-0.9,2.6-1.5,3.9c1.7-2.3,3.5-4.7,5.5-7c1.9-2.3,4.1-4.2,6.5-5.6
		c1.3-0.8,2.6-1.1,3.8-1.1c1.2,0.1,2.2,0.5,3,1.2c0.8,0.7,1.4,1.7,1.7,2.9c0.3,1.2,0.4,2.5,0.1,4c-0.5,2.8-1.3,5.3-2.6,7.7
		c-1.2,2.4-2.5,4.7-4,7c-0.8,1.2-1.6,2.5-2.3,3.7c-0.7,1.3-1.4,2.5-2.1,3.7c-0.2,0.3-0.4,0.7-0.6,1.3c-0.2,0.6-0.4,1.1-0.5,1.6
		c-0.1,0.5,0,0.9,0.2,1.2c0.2,0.3,0.7,0.4,1.3,0.2c1.6-0.4,3.2-1.1,4.7-2.2c1.5-1.1,3-2.3,4.3-3.7c1.3-1.3,2.5-2.7,3.6-4.1
		c1-1.4,1.9-2.6,2.6-3.6c1.3-2.1,2.2-3.5,2.7-4.2c0.4-0.7,0.8-1.1,1.1-1.3c0.6-0.4,1.1-0.3,1.3,0.2c0.3,0.5,0.4,1,0.2,1.5
		c-0.2,0.6-0.5,1.1-1,1.7c-0.5,0.6-0.9,1.2-1.2,1.7c-1.9,2.8-4,5.4-6.4,7.9c-2.3,2.5-4.9,4.6-7.6,6.5c-0.6,0.4-1.3,0.9-2.2,1.3
		c-0.8,0.4-1.6,0.7-2.4,0.8c-0.8,0.1-1.6,0-2.3-0.3c-0.7-0.3-1.3-0.9-1.7-1.9c-0.4-0.9-0.6-1.9-0.6-3c0-1.1,0-2.2,0.2-3.3
		c0.2-1.1,0.5-2.2,0.9-3.3c0.4-1.1,0.8-2,1.2-2.9c1.1-2.3,2.3-4.4,3.6-6.5c1.3-2.1,2.4-4,3.3-5.8c0.9-1.8,1.5-3.3,1.8-4.6
		c0.3-1.3,0-2.2-0.9-2.8c-0.6-0.4-1.3-0.3-2.2,0.1c-0.9,0.5-1.8,1.1-2.6,1.8c-0.9,0.7-1.7,1.5-2.4,2.3c-0.7,0.8-1.3,1.3-1.6,1.7
		c-1.6,1.7-3.1,3.5-4.5,5.3c-1.4,1.8-2.7,3.7-4.1,5.6c-1.2,1.7-2.3,3.3-3.3,5c-1,1.7-2,3.4-3.1,5.1c-0.7,1.2-1.2,2.1-1.5,2.9
		c-0.2,0.8-0.5,1.5-0.8,2.2c-0.2,0.4-0.4,0.6-0.7,0.7c-0.3,0.1-0.6,0.1-0.8,0c-0.3-0.1-0.5-0.3-0.6-0.6c-0.2-0.3-0.2-0.6-0.1-1
		c0.5-2.9,1.2-5.9,2.1-8.7c0.9-2.9,1.9-5.7,3.1-8.5c0.1-0.2,0.4-0.8,0.7-1.8c0.4-0.9,0.8-1.9,1.2-3.1c0.4-1.1,0.8-2.3,1.1-3.5
		c0.3-1.2,0.5-2.3,0.6-3.2c0-0.9-0.1-1.6-0.5-2s-1-0.4-2,0c-1.5,0.7-2.8,1.7-4,3c-1.2,1.3-2.2,2.6-3.2,3.8c-1.2,1.5-2.4,3.1-3.4,4.7
		c-1,1.6-2.1,3.2-3,4.8c-1,1.8-2.1,3.5-3.1,5.2c-1,1.7-1.9,3.5-2.6,5.4c-0.3,0.7-0.6,1.4-0.8,2.2c-0.2,0.8-0.6,2-1,3.5
		c-0.2,0.7-0.6,1.1-1.2,1.1c-0.6,0-1-0.4-1.2-1.2c-0.1-0.4,0-0.8,0-1.3c0.1-0.5,0.2-1,0.2-1.4c0.4-3.8,1.2-7.5,2.3-11.2
		c1.1-3.7,2.2-7.3,3.3-11c0.5-1.5,0.9-3,1.4-4.7c0.4-1.7,1.1-3.1,2-4.3c0.6-0.7,1.2-1.1,2-1.1c0.8-0.1,1.5,0,2.1,0.3
		c0.6,0.3,1.1,0.8,1.3,1.5C400.9,534.8,400.8,535.5,400.4,536.3"/>
	<path class="st7" d="M455.3,568.1c-0.8-0.4-1.5-0.9-2.3-1.5c-0.7-0.6-1.4-1.4-2-2.2c-0.6-0.8-1.1-1.6-1.5-2.4
		c-0.4-0.8-0.7-1.6-0.8-2.3l-7.5,7.6l-6.1,6.2c-0.3,0.3-0.7,0.7-1.1,1.2c-0.4,0.5-0.8,0.7-1.3,0.6c-0.5-0.1-0.8-0.4-0.9-0.9
		c-0.1-0.5,0-0.8,0.3-1.2c2.8-2.8,5.5-5.6,8.1-8.4c2.7-2.8,5.3-5.7,7.9-8.6c-0.4-3.2-0.3-6.7,0.2-10.2l-1.7,2.9
		c-0.2,0.4-0.5,0.6-1,0.6c-0.2,0-0.4-0.1-0.6-0.2c-0.7-0.4-0.8-0.9-0.4-1.7c1.3-2.3,2.4-4.3,3.3-6c0.9-1.7,1.6-3,1.9-3.8
		c0.2-0.7,0.4-1.5,0.6-2.3c0.2-0.8,0.6-1.4,1.1-1.9c0.6-0.6,1.2-0.8,1.8-0.8c0.7,0,1.3,0.2,1.8,0.5c0.6,0.3,1,0.8,1.2,1.4
		c0.3,0.6,0.3,1.3,0,2c-1.3,4-2.2,8.2-2.8,12.3c0.5-0.7,1-1.3,1.5-2c0.5-0.7,1-1.4,1.5-2.1c1.7-2.5,3.2-5,4.6-7.5
		c1.4-2.5,2.6-5.2,3.5-8.1c0.4-1,0.7-2.1,0.9-3.1c0.2-1,0.5-2.1,0.7-3.2c0.1-0.7,0.4-1.2,0.9-1.7c0.5-0.4,1-0.7,1.6-0.8
		c0.6-0.1,1.2-0.1,1.7,0.2c0.6,0.2,1,0.7,1.4,1.4c0.2,0.5,0.4,1,0.3,1.6c0,0.6-0.1,1.1-0.3,1.7c-0.2,0.6-0.4,1.2-0.6,1.7
		c-0.2,0.6-0.5,1.1-0.6,1.5c-0.5,1.5-1.1,2.9-1.7,4.3c-0.7,1.4-1.4,2.8-2.2,4.2c-1.7,2.8-3.6,5.5-5.6,8.1c-2,2.6-4.1,5.1-6.4,7.5
		l-1.6,1.7c0.1,0.9,0.1,1.9,0.2,3.1c0.1,1.2,0.2,2.4,0.5,3.6c0.2,1.2,0.5,2.3,1,3.2c0.4,0.9,1,1.5,1.7,1.7c0.9,0.3,1.7,0.2,2.4-0.4
		c0.7-0.6,1.3-1.3,1.7-2.3c0.4-1,0.7-2,0.8-3.2c0.1-1.2,0-2.2-0.4-3.1c-0.2-0.7-0.2-1.2,0.2-1.4c0.4-0.2,0.8-0.1,1.4,0.1
		c0.6,0.3,1.1,0.8,1.6,1.5c0.5,0.7,0.8,1.6,0.8,2.7c0.1,1.1-0.2,2.2-0.8,3.4c-0.6,1.1-1.4,2.1-2.4,2.9c-1,0.8-2.1,1.4-3.4,1.7
		C457.6,568.7,456.4,568.6,455.3,568.1"/>
	<path class="st7" d="M140.8,411c1.8-0.5,3.5-1.3,4.9-2.5c1.4-1.2,2.7-2.6,3.7-4.3c1-1.6,1.8-3.4,2.4-5.2c0.6-1.9,0.9-3.7,1-5.4
		c0.1-1.8-0.3-3.5-1.2-5.1c-0.9-1.6-2.3-2.4-4.4-2.5c-2.2-0.1-4.3,0.6-6.3,2c-2,1.4-3.7,2.8-5.1,4.3c-3.2,3.3-6,6.9-8.4,10.8
		c-2.4,3.9-4.5,7.9-6.2,12c-1.8,4.1-3.3,8.4-4.5,13c-1.2,4.6-1.5,9.1-1,13.7c0.2,1.9,0.7,3.8,1.4,5.7c0.7,1.9,1.9,3.4,3.6,4.4
		c1.7,1.1,3.7,1.6,5.9,1.5c2.2-0.1,4.2-0.5,6-1.1c4.1-1.4,7.7-3.8,10.7-7.1c3-3.3,5.7-6.7,8-10.3c0.8-1.1,1.5-2.4,2.3-3.9
		c0.8-1.5,1.6-2.8,2.5-3.8c0.6-0.8,1.3-0.9,2-0.5c0.7,0.5,0.9,1.1,0.5,2.1c-0.2,0.6-0.6,1.2-1,1.8c-0.5,0.6-0.8,1.2-1.1,1.7
		c-2.4,3.6-4.9,7.2-7.6,10.6c-2.7,3.4-5.9,6.4-9.5,8.8c-1.4,0.9-2.9,1.8-4.6,2.6c-1.7,0.8-3.4,1.4-5.1,1.8c-1.7,0.4-3.5,0.5-5.2,0.4
		c-1.8-0.1-3.5-0.6-5.1-1.4c-1.7-0.8-3.1-2-4.2-3.4c-1.1-1.4-2.1-3-2.8-4.7c-0.7-1.7-1.3-3.5-1.7-5.3c-0.4-1.8-0.6-3.6-0.8-5.4
		c-0.3-3.8-0.1-7.7,0.5-11.6c0.6-3.9,1.7-7.8,3.1-11.5c1.4-3.8,3.1-7.4,5.1-10.8c2-3.4,4.3-6.5,6.8-9.4c1.2-1.4,2.6-2.7,4.1-4
		c1.5-1.3,3.1-2.4,4.8-3.4c1.7-0.9,3.5-1.7,5.4-2.2c1.9-0.5,3.8-0.8,5.8-0.8c2.1,0,3.9,0.5,5.4,1.5c1.5,1,2.7,2.2,3.6,3.8
		c0.9,1.5,1.5,3.2,1.8,5.1c0.3,1.9,0.3,3.8,0.1,5.7c-0.4,3.5-1.5,6.9-3.3,10.1c-1.8,3.2-4.2,5.8-7.2,7.8c-0.5,0.4-1.1,0.7-1.8,1.1
		c-0.6,0.3-1.3,0.6-2,0.7c-0.7,0.2-1.3,0.2-2,0c-0.6-0.2-1.2-0.5-1.8-1.1c-1-1.2-1.2-2.4-0.6-3.7C138.5,412.2,139.4,411.4,140.8,411
		"/>
	<path class="st7" d="M195,413.2c-1.6,2.7-3.1,5.4-4.5,8.3c-1.4,2.9-2.7,5.7-3.8,8.6c-0.2,0.3-0.4,1-0.8,2.1
		c-0.4,1.1-0.8,2.3-1.3,3.8c-0.5,1.4-1,3-1.5,4.6c-0.5,1.6-0.9,3.2-1.1,4.6c-0.3,1.4-0.4,2.6-0.4,3.6c0,1,0.2,1.5,0.7,1.6
		c0.9,0.2,1.9-0.1,2.8-0.8c1-0.7,2-1.5,2.9-2.6c0.9-1,1.8-2.1,2.6-3.3c0.8-1.1,1.5-2.1,2.1-2.8c0.9-1.3,1.8-2.6,2.6-4
		c0.8-1.4,1.7-2.7,2.5-4.1c0.5-0.8,1.1-1.8,1.6-2.8c0.5-1,1.1-1.9,1.7-2.7c0.4-0.5,0.8-0.7,1.4-0.7c0.5,0,0.9,0.2,1.3,0.7
		s0.3,1,0,1.5c-0.3,0.5-0.6,0.9-0.8,1.3c-0.8,1.3-1.7,2.6-2.5,3.9c-0.8,1.3-1.6,2.6-2.5,3.9c-0.8,1.2-1.7,2.5-2.7,3.9
		c-0.9,1.4-2,2.8-3,4.1c-1.1,1.3-2.2,2.6-3.4,3.7c-1.2,1.1-2.5,2.1-3.8,2.8c-1.1,0.6-2.1,0.9-3,0.7c-0.8-0.1-1.6-0.5-2.2-1
		c-0.6-0.6-1.1-1.3-1.6-2.2c-0.5-0.9-0.8-1.9-1.1-2.8c-0.4-1-0.6-2-0.7-3.1c-0.1-1.1-0.1-2.1,0-3.2c-1.3,2.3-2.7,4.4-4.2,6.4
		c-1.5,2-3.3,3.6-5.2,4.9c-1.8,1.1-3.4,1.6-4.9,1.4c-1.5-0.2-2.9-0.9-4-1.9c-1.2-1-2.2-2.3-3.1-3.9c-0.9-1.6-1.5-3.1-1.8-4.7
		c-0.8-3.4-0.7-6.8,0.3-10.3c1-3.4,2.2-6.7,3.7-9.7c1.3-2.6,2.9-5.2,4.8-7.8c1.9-2.6,4.2-4.5,6.8-5.8c0.9-0.5,1.9-0.9,3.1-1.3
		c1.1-0.4,2.3-0.6,3.5-0.7c1.2-0.1,2.4-0.1,3.5,0.1c1.2,0.2,2.2,0.5,3.1,1.1c1,0.7,1.7,1.6,2.3,2.6c0.5,1.1,0.9,2.2,1.3,3.3
		c0.3-0.6,0.6-1.2,1-1.9c0.3-0.6,0.7-1.3,1.1-1.9c0.4-0.8,0.9-1.6,1.4-2.2c0.6-0.6,1.3-0.9,2.3-1c0.7-0.1,1.3,0.1,1.9,0.4
		c0.6,0.3,1.1,0.8,1.4,1.4c0.3,0.6,0.5,1.2,0.6,1.9C195.5,411.9,195.4,412.6,195,413.2 M181.1,411.5c-1.4-0.8-2.8-0.8-4.2-0.1
		c-1.4,0.7-2.8,1.8-4,3.1c-1.3,1.4-2.5,2.8-3.5,4.4c-1,1.6-1.8,2.8-2.3,3.7c-1,1.6-2.1,3.5-3.3,5.6c-1.2,2.1-2.3,4.4-3.2,6.7
		c-0.9,2.3-1.5,4.6-1.8,6.9c-0.3,2.3,0.1,4.4,1,6.3c0.9,2,2.1,2.8,3.4,2.6c1.4-0.2,2.8-1,4.2-2.2c1.4-1.3,2.7-2.7,3.9-4.3
		c1.2-1.6,2-2.8,2.4-3.6c2-3.4,3.8-7,5.4-10.7c1.6-3.7,3.2-7.6,4.7-11.7c0-1.4-0.2-2.7-0.6-3.9C182.7,413,182.1,412.1,181.1,411.5"
		/>
	<path class="st7" d="M218.1,417.2c1.6,0.2,2.8-0.2,3.5-1.1c0.7-0.9,1-1.9,1-3c-0.1-1.1-0.5-2.2-1.3-3.2c-0.8-1-1.9-1.5-3.4-1.6
		c-1.3,0-2.5,0.3-3.6,0.9s-2.2,1.3-3.1,2.2c-0.9,0.9-1.6,2-2.2,3.1c-0.5,1.2-0.8,2.3-0.9,3.5c-0.1,1.6,0.2,2.9,0.9,3.9
		c0.7,1,1.5,2,2.5,2.8c1,0.8,2,1.7,3.1,2.5c1.1,0.8,2,1.8,2.8,2.9c0.9,1.4,1.5,3,1.9,4.8c0.3,1.7,0.4,3.5,0.2,5.2
		c-0.2,1.7-0.7,3.4-1.4,5c-0.7,1.6-1.7,3.1-2.8,4.3c-1.5,1.7-3.3,2.8-5.2,3.5c-2,0.6-3.9,0.8-5.9,0.5c-1.9-0.3-3.7-1-5.4-2.2
		c-1.7-1.1-3-2.7-4-4.7c-1-2-1.5-4-1.6-6c-0.1-2,0.2-3.9,0.9-5.7c0.7-1.8,1.7-3.4,3.1-5c1.4-1.5,3-2.8,4.8-3.8
		c0.9-0.5,1.9-0.6,2.9-0.3c-1-3-1-6.1,0.1-9.3c1.1-3.2,2.9-5.8,5.6-7.9c1.4-1.1,3-1.9,4.8-2.3c1.9-0.4,3.6-0.4,5.3,0
		c1.7,0.4,3,1.3,4.1,2.6c1.1,1.3,1.5,3.1,1.4,5.5c-0.2,1.9-0.9,3.5-2.1,4.9c-1.3,1.4-2.8,2.2-4.6,2.6c-1.1,0.2-1.9,0.1-2.5-0.4
		c-0.6-0.5-1-1.1-1.1-1.7c-0.1-0.6,0-1.2,0.4-1.8C216.6,417.3,217.2,417.1,218.1,417.2 M200.5,435.8c-1.4,1.7-2.2,3.6-2.2,5.7
		s0.5,3.9,1.5,5.5c1,1.6,2.5,2.8,4.3,3.5c1.9,0.7,3.9,0.6,6.1-0.4c1.8-0.8,3.2-2.2,4.2-4c0.9-1.9,1.2-3.7,0.9-5.6
		c-0.4-1.9-1.2-3.5-2.5-4.7c-1.3-1.3-2.5-2.5-3.8-3.7l-1.5-1.4c-0.3,0.7-0.8,1.2-1.4,1.7c-0.6,0.4-1.3,0.8-1.9,1.1
		c-0.7,0.3-1.4,0.7-2.1,1.1C201.5,434.8,200.9,435.2,200.5,435.8"/>
	<path class="st7" d="M252.2,447.1c-0.4-1-0.6-2-0.7-3.1c-0.1-1.1-0.1-2.1,0-3.2c-1.3,2.3-2.7,4.4-4.2,6.4c-1.5,2-3.3,3.6-5.2,4.9
		c-1.7,1.1-3.4,1.6-4.9,1.4c-1.5-0.2-2.9-0.9-4-1.9c-1.2-1-2.2-2.3-3.1-3.9c-0.9-1.6-1.5-3.1-1.8-4.7c-0.8-3.4-0.7-6.8,0.3-10.3
		c1-3.4,2.2-6.7,3.7-9.7c1.3-2.6,2.9-5.2,4.8-7.8c1.9-2.6,4.2-4.5,6.8-5.8c0.9-0.5,1.9-0.9,3.1-1.3c1.1-0.4,2.3-0.6,3.5-0.7
		c1.2-0.1,2.4-0.1,3.5,0.1c1.2,0.2,2.2,0.5,3.1,1.1c1,0.7,1.7,1.6,2.3,2.6c0.5,1.1,0.9,2.2,1.3,3.3c0.3-0.6,0.6-1.2,1-1.9
		c0.3-0.6,0.7-1.3,1.1-1.9c0.4-0.8,0.9-1.6,1.4-2.2c0.6-0.6,1.3-0.9,2.3-1c0.7-0.1,1.3,0.1,1.9,0.4c0.6,0.3,1.1,0.8,1.4,1.4
		c0.3,0.6,0.5,1.2,0.6,1.9c0,0.7-0.1,1.3-0.5,1.9c-1.6,2.7-3.1,5.4-4.5,8.3c-1.4,2.9-2.7,5.7-3.8,8.6c-0.2,0.5-0.6,1.7-1.4,3.7
		c-0.8,2-1.5,4.2-2.2,6.5c-0.7,2.3-1.2,4.4-1.4,6.3c-0.3,1.9,0,3,0.9,3.2c1.4,0.4,2.7,0.2,3.9-0.5c1.3-0.7,2.4-1.7,3.4-3
		c1-1.3,1.9-2.8,2.7-4.5c0.8-1.7,1.4-3.4,1.8-5.2c0.4-1.7,0.6-3.4,0.7-5c0-1.6-0.2-2.8-0.6-3.7c-0.3-0.6-0.2-1,0.2-1.3
		c0.4-0.3,1-0.3,1.7-0.2c0.7,0.1,1.4,0.5,2.1,1.1c0.7,0.6,1.3,1.6,1.7,2.8c0.5,1.7,0.3,3.7-0.5,6c-0.8,2.3-1.9,4.6-3.4,6.8
		c-1.5,2.2-3.2,4.2-5.2,6c-2,1.8-3.9,2.9-5.8,3.4c-2.4,0.5-4.1,0.2-5.2-0.9S252.8,449,252.2,447.1 M255.9,411.5
		c-1.4-0.7-2.8-0.7-4.2,0.1c-1.4,0.7-2.7,1.8-4,3.1c-1.3,1.4-2.4,2.8-3.4,4.3c-1,1.5-1.8,2.7-2.3,3.6c-1,1.6-2.1,3.5-3.3,5.6
		c-1.2,2.1-2.3,4.4-3.2,6.7c-0.9,2.3-1.5,4.6-1.8,6.9c-0.3,2.3,0.1,4.4,1,6.3c0.9,2,2.1,2.8,3.4,2.6c1.4-0.2,2.8-1,4.2-2.2
		c1.4-1.3,2.7-2.7,3.9-4.3c1.2-1.6,2-2.8,2.4-3.6c2-3.4,3.8-7,5.4-10.7c1.6-3.7,3.2-7.6,4.7-11.7c0-1.4-0.2-2.7-0.6-3.9
		C257.7,413,256.9,412.1,255.9,411.5"/>
</g>
</svg>
