<?xml version="1.0" encoding="utf-8"?>
<!-- Generator: Adobe Illustrator 22.0.1, SVG Export Plug-In . SVG Version: 6.00 Build 0)  -->
<svg version="1.1" id="Capa_1" xmlns="http://www.w3.org/2000/svg" xmlns:xlink="http://www.w3.org/1999/xlink" x="0px" y="0px"
	 width="591.1px" height="253.6px" viewBox="0 0 591.1 253.6" style="enable-background:new 0 0 591.1 253.6;" xml:space="preserve"
	>
<style type="text/css">
	.st0{fill:#BE0000;}
	.st1{fill:#000C5C;}
	.st2{fill:#002F8E;}
	.st3{fill:#8B0000;}
</style>
<g>
	<path d="M282.8,115.1V71h4l27.9,36.1V71h4.5v44.2h-4l-27.9-36.2v36.2H282.8z"/>
	<path d="M335.9,110.8c-3.3-3.4-5-8.2-5-14.4V71h4.7v25.4c0,9.6,5.1,15.1,13.4,15.1c8.3,0,13.4-5.6,13.4-15.1V71h4.7v25.4
		c0,6.2-1.7,11-5,14.4c-3.3,3.4-7.6,5.1-13,5.1S339.3,114.2,335.9,110.8z"/>
	<path d="M378.8,115.1V71h4.6l16,21.4l16-21.4h4.5v44.2h-4.6V78l-14.4,19.3H398L383.4,78v37.1H378.8z"/>
	<path d="M428,115.1l19.7-44.4h4.4l19.7,44.4h-4.9l-5.5-12.2h-23.2l-5.4,12.2H428z M439.8,98.8h20.1l-10-22.3L439.8,98.8z"/>
	<path d="M479.8,115.1V71h4l27.9,36.1V71h4.5v44.2h-4l-27.9-36.2v36.2H479.8z"/>
</g>
<path d="M129.9,91.7c-3.2,0-6.4,1.2-8.8,3.6L98.4,118c-2.3,2.3-3.6,5.5-3.6,8.8c0,3.3,1.3,6.4,3.6,8.8l22.7,22.7
	c2.3,2.3,5.5,3.6,8.8,3.6c3.3,0,6.4-1.3,8.8-3.6l22.7-22.7c2.3-2.3,3.6-5.5,3.6-8.8c0-3.3-1.3-6.4-3.6-8.8l-22.7-22.7
	C136.2,92.9,133,91.7,129.9,91.7z"/>
<g>
	<path d="M282.9,182.5v-51.9h20.7c8.4,0,15.3,2.4,20.7,7.3c5.3,4.8,8,11,8,18.7c0,7.6-2.7,13.9-8,18.8c-5.3,4.8-12.2,7.2-20.7,7.2
		H282.9z M296.2,170.8h6.4c10.1,0,15.9-5.1,15.9-14.2c0-9.1-5.8-14.2-15.9-14.2h-6.4V170.8z"/>
	<path d="M340.8,182.5v-51.9h13.3v51.9H340.8z"/>
	<path d="M370.8,176c-5.4-5.1-8.1-11.6-8.1-19.4c0-7.9,2.7-14.4,8.2-19.4c5.4-5,12.3-7.6,20.6-7.6c5.4,0,10.4,1.3,15.1,3.7v12.5
		c-4.7-2.6-9.5-3.9-14.2-3.9c-4.7,0-8.6,1.4-11.6,4.2c-3,2.7-4.4,6.3-4.4,10.7c0,4.6,1.4,8.2,4.2,10.9c2.8,2.7,6.2,4,10.3,4
		c3.5,0,6.2-0.8,8.2-2.4v-17h13.4v23c-2.1,2.3-5,4.2-9,5.9c-3.9,1.6-8.2,2.4-12.7,2.4C383,183.6,376.2,181,370.8,176z"/>
	<path d="M421.2,182.5v-51.9h13.3v51.9H421.2z"/>
	<path d="M457.5,182.5v-40.2h-15.6v-11.7h44.5v11.7h-15.6v40.2H457.5z"/>
	<path d="M481.9,182.5l21.8-52.2h12.8l21.8,52.2H524l-4.4-11h-19.3l-4.4,11H481.9z M504.5,160.9h10.8l-5.4-13.9L504.5,160.9z"/>
	<path d="M544,182.5v-51.9h13.3v40.2h24.9v11.7H544z"/>
</g>
<g>
	<path class="st0" d="M247.9,110.2l-16.6-16.6l-82.9-82.9c-9.2-9.2-24-9.2-33.2,0v0c-9.2,9.2-9.2,24,0,33.2l66.3,66.3
		c-0.1-0.2-0.2-0.5,1.7,1.4c26.1,26.1,31.4,63.3,12.4,84.2l35.7-35.7l16.6-16.6C257.1,134.2,257.1,119.4,247.9,110.2z"/>
</g>
<g>
	<path class="st1" d="M82.1,143.4c-9.2-9.2-9.2-24,0-33.2l0,0c0.1-0.2,0.5-0.8-1.6,1.3c-26,26-31.4,63.1-12.6,84l0.1,0.1
		c9.2,9.2,24,9.2,33.2,0l0,0c9.2-9.2,9.2-24,0-33.2L82.1,143.4z"/>
</g>
<g>
	<path class="st2" d="M80.5,111.5c1.3-1.3,1.7-1.6,1.7-1.5c0,0,0,0.1-0.1,0.2l19-19c9.2-9.2,9.2-24,0-33.2v0c-9.2-9.2-24-9.2-33.2,0
		L32.4,93.6l-16.6,16.6c-9.2,9.2-9.2,24,0,33.2L32.4,160l35.6,35.6C49.1,174.6,54.4,137.6,80.5,111.5z"/>
</g>
<path class="st3" d="M183.2,111.5c-2.4-2.4-1.6-1.3-1.6-1.3c9.2,9.2,9.2,24,0,33.2l-66.3,66.3c-9.2,9.2-9.2,24,0,33.2l0,0
	c9.2,9.2,24,9.2,33.2,0l46.9-46.9C214.7,175.2,209.4,137.8,183.2,111.5z"/>
</svg>
