<?xml version="1.0" encoding="utf-8"?>
<!-- Generator: Adobe Illustrator 22.0.1, SVG Export Plug-In . SVG Version: 6.00 Build 0)  -->
<svg version="1.1" id="Capa_1" xmlns="http://www.w3.org/2000/svg" xmlns:xlink="http://www.w3.org/1999/xlink" x="0px" y="0px"
	 width="170px" height="176.3px" viewBox="0 0 170 176.3" style="enable-background:new 0 0 170 176.3;" xml:space="preserve">
<style type="text/css">
	.st0{fill-rule:evenodd;clip-rule:evenodd;}
	.st1{fill:#ECE052;}
</style>
<g>
	<ellipse class="st0" cx="85" cy="89.7" rx="85" ry="87"/>
	<g>
		<path class="st1" d="M32.1,114.6c7.1,15.3,18.4,26,33.9,31.7c13,4.8,26.1,4.6,39-0.2c26.1-9.8,41.7-36.9,37.6-64.7
			c-4.2-28.7-28-49.7-55.5-50.6c-29.1-0.9-51.4,19-57.9,43.2c3.7,0,7.4,0,11.2,0c-5,10.2-10,20.4-15,30.7c-5-10.3-10-20.4-15-30.7
			c1.4,0,2.6,0,3.8,0c2.3,0,4.6,0,6.9,0c0.5,0,0.8-0.1,0.9-0.7c1.5-5.8,3.7-11.4,6.7-16.6c4.9-8.5,11.2-15.6,19.2-21.3
			c5.5-3.9,11.5-6.9,17.9-9c4.5-1.4,9.2-2.4,13.9-2.7c3.2-0.3,6.5-0.3,9.7-0.1c6.3,0.4,12.4,1.8,18.3,4c6.6,2.5,12.6,6,18.1,10.5
			c6.8,5.6,12.3,12.3,16.5,20.1c3.7,6.9,6.1,14.2,7.2,22c0.4,2.6,0.5,5.3,0.7,7.9c0.3,6.7-0.5,13.3-2.3,19.8
			c-3.2,11.6-9,21.6-17.5,30.1c-6.2,6.2-13.4,10.9-21.5,14.2c-6,2.4-12.1,3.9-18.5,4.4c-2.6,0.2-5.1,0.3-7.7,0.2
			c-9.4-0.3-18.3-2.6-26.7-7c-8.8-4.6-16.3-10.8-22.4-18.8c-1.9-2.5-3.5-5.3-5.2-8c-0.2-0.3-0.2-0.6,0-0.9c1.2-2.4,2.4-4.8,3.5-7.2
			C32,114.8,32.1,114.7,32.1,114.6z"/>
		<path class="st1" d="M93.5,93c-1.4,0-2.7,0-4.1,0c0-1.6,0-3.2,0-4.8c3.3,0,6.5,0,9.9,0c0,0.2,0,0.4,0,0.6c0,4.4,0,8.8,0,13.2
			c0,0.3,0,0.6-0.4,0.7c-4.3,1.3-8.6,1.8-13,1c-5.9-1.2-9.9-6-10-12.2c-0.1-3.1,0.4-6,2-8.7c2-3.3,5.1-5.2,8.7-6
			c3.5-0.8,7-0.7,10.5,0.3c0.4,0.1,0.9,0.3,1.3,0.5c-0.4,1.7-0.9,3.3-1.2,4.8c-1.3-0.3-2.6-0.7-3.8-0.9c-1.9-0.3-3.8-0.3-5.7,0.3
			c-3.3,1.1-5,3.4-5.4,6.8c-0.3,2.4,0,4.8,1.3,6.9c1.7,2.6,4.2,3.5,7.1,3.5c0.8,0,1.5-0.1,2.3-0.3c0.2,0,0.4-0.2,0.4-0.4
			C93.6,96.7,93.5,94.9,93.5,93z"/>
		<path class="st1" d="M49,103.8c0.6-2,1.1-3.8,1.7-5.7c2.1-6.9,4.1-13.8,6.2-20.7c0.2-0.6,0.4-0.9,1.1-0.9c2.2,0.1,4.3,0,6.5,0
			c0.4,0,0.6,0.1,0.8,0.5c1.8,6,3.6,11.9,5.4,17.9c0.8,2.8,1.7,5.6,2.5,8.3c0,0.1,0.1,0.2,0.1,0.4c-0.7,0-1.3,0-2,0
			c-1.3,0-2.6,0-3.9,0c-0.4,0-0.6-0.1-0.7-0.5c-0.6-2-1.2-4-1.8-6c-0.1-0.4-0.3-0.5-0.6-0.5c-2.2,0-4.4,0-6.6,0
			c-0.4,0-0.5,0.1-0.6,0.5c-0.5,2-1.1,4-1.6,5.9c-0.1,0.4-0.3,0.6-0.7,0.6C52.9,103.8,51,103.8,49,103.8z M63.8,92.2
			c-1-3.6-2-7.2-3-10.8c-0.9,3.6-1.8,7.2-2.8,10.8C60,92.2,61.9,92.2,63.8,92.2z"/>
		<path class="st1" d="M121.9,76.6c0,1.7,0,3.3,0,5c-3.4,0-6.8,0-10.3,0c0,1.9,0,3.8,0,5.7c3.2,0,6.4,0,9.7,0c0,1.7,0,3.3,0,5
			c-3.2,0-6.4,0-9.7,0c0,2.2,0,4.3,0,6.4c3.6,0,7.2,0,10.8,0c0,1.7,0,3.3,0,5c-5.6,0-11.3,0-16.9,0c0-9,0-18.1,0-27.1
			C111,76.6,116.4,76.6,121.9,76.6z"/>
	</g>
</g>
</svg>
