<?xml version="1.0" encoding="utf-8"?>
<!-- Generator: Adobe Illustrator 22.0.1, SVG Export Plug-In . SVG Version: 6.00 Build 0)  -->
<svg version="1.1" id="Capa_1" xmlns="http://www.w3.org/2000/svg" xmlns:xlink="http://www.w3.org/1999/xlink" x="0px" y="0px"
	 width="600px" height="600px" viewBox="0 0 600 600" style="enable-background:new 0 0 600 600;" xml:space="preserve">
<style type="text/css">
	.st0{fill:#FFFFFF;}
</style>
<g>
	<g>
		<path class="st0" d="M300,414.6l-2-1.5c0.3-0.5,0.7-1,1-1.5l2.1,1.3C300.8,413.6,300.4,414.1,300,414.6z"/>
	</g>
	<g>
		<path class="st0" d="M304.6,546.7c-6.4,21.7-23.1,30.8-38.3,30.8c-30.2,0-42.4-19.8-42.9-49v-95.3h14.6v-2.8h-48.8v2.8h14.6v90.8
			c0,44.4,29.4,61.2,56.8,61.2c20.6,0,38.7-10.3,47-30.4C306.5,552.2,305.5,549.5,304.6,546.7z"/>
	</g>
	<g>
		<path class="st0" d="M210.2,579.4v2.8h-48.8v-2.8h17.3l-18.2-49.8h-52.8l-19.5,49.8h17.9v2.8H71.7v-2.8h11.6l60.2-153.7
			l56.2,153.7H210.2z M159.4,526.8l-24.4-66.9l-26.1,66.9H159.4z"/>
	</g>
	<g>
		<path class="st0" d="M416.6,430.3H397v2.8h14.6V526c0,36.8-21.7,51.5-41,51.5c-30.2,0-42.4-19.8-42.9-49V413.7h14.6v-2.8h-48.8
			v2.8h14.6v110.2c0,44.4,29.4,61.2,56.8,61.2c28.1,0,51.7-19.2,51.7-56.2v-68.8v-27V430.3z"/>
	</g>
	<g>
		<polygon class="st0" points="494.1,430.3 494.1,433.1 508.7,433.1 508.7,550.7 422.1,430.3 416.6,430.3 411.8,430.3 397,430.3 
			397,433.1 411.7,433.1 411.7,449.5 416.6,455.9 513.7,588.5 513.7,433.1 528.3,433.1 528.3,430.3 		"/>
	</g>
	<g>
		<g>
			<path class="st0" d="M402.4,85.3l-21.6-0.6c0,0,11.9,6.8,13.1,16.2C401.9,98.1,402.4,85.3,402.4,85.3z"/>
		</g>
		<g>
			<path class="st0" d="M273.1,89.5c1.5-3.6-6.3,4-8.4,7.3c-37.8,59.3,94.4,181.8,21.4,257.7C416.9,288.1,232.9,186.7,273.1,89.5z"
				/>
		</g>
		<g>
			<path class="st0" d="M229.9,11.5c-35,0-63.4,28.4-63.4,63.4c0,96.8,12.7,279.6-23.8,316.8c74.4,0,91.8-88.4,91.4-118.3
				c-1-69.5-64.7-106.2-22.4-167.2c3.9-5.6-5.9-21.5,0.1-37.3c6-15.8,35.7-38.6,68.9-41.5c0.6,0,7.4-5,15-6.5
				c9.4-1.9,16.6-2.1,25.4,6.6c0.2,0.2,50.7-2.8,46.5,26.6c-0.1,0.7,22.9,14.3,22.9,14.3c0.2,0.1,0.4,0.1,0.7,0.1c0,0,7,0.1,7.3,0.3
				c0,0,9.5,6.2,9.5,9.2c0,3.2,5.5,3.2,8.2,7c2.7,3.6,19,10.5,23.3,17.8c0.2,0.4,11.7,5.5,12.5,5.8c0.1,0,9,5.7,8.1,9
				c-0.5,1.8-1.6,4.3-2.5,6.2c-3.2-2.8-8.5-5.1-9.2-6.5c-1.2-2.8-3.9-0.2-4.3,1.3c-0.4,1.4,0,8.8,9.9,12.6c0.4,1.2,0.6,2.3,0.7,3.4
				c-1,3.9-2.7,8.4-5.6,11.3c-0.5,0.6-1.4,0.7-2.1,0.5c-2.1-0.8-21-7.8-27.7,5.9c0,0,0,0,0,0c-2.4,16.1,15.5,9.2,16.2,8.7
				c0,0,3.1-1.6,4.7-2.5c1.3-0.7,2.9,0.2,3,1.6c0,0,0,0.1,0,0.1c0,3.3-4.3,6.8-4.4,7.4c-0.6,3.2-6.4,21.9-19.3,21.8
				c-6.6-0.1-13.7-19.5-23.5-18.7c-12.3,2,26.8,34.8,18.9,54.5c0,0.1-0.1,0.3-0.2,0.7c-22.3-54-138.3-90-87-156.7
				c0.5-0.6-0.4-1.3-0.9-0.8c-62.9,58.5,59.1,130.6,79.8,181.8c0.6,2,1.4,4.7,2.4,7.9c1.3,7.1,0.2,13.8-4.3,19.9
				c7.8-10.1,82.8-48.9,82.8-201.1V11.5H229.9z"/>
		</g>
	</g>
</g>
</svg>
