<?xml version="1.0" encoding="utf-8"?>
<!-- Generator: Adobe Illustrator 22.0.1, SVG Export Plug-In . SVG Version: 6.00 Build 0)  -->
<svg version="1.1" id="Capa_1" xmlns="http://www.w3.org/2000/svg" xmlns:xlink="http://www.w3.org/1999/xlink" x="0px" y="0px"
	 width="170px" height="176.3px" viewBox="0 0 170 176.3" style="enable-background:new 0 0 170 176.3;" xml:space="preserve">
<style type="text/css">
	.st0{fill-rule:evenodd;clip-rule:evenodd;}
	.st1{fill-rule:evenodd;clip-rule:evenodd;fill:#ECE052;}
</style>
<g>
	<circle class="st0" cx="86" cy="90" r="87.3"/>
	<g>
		<path class="st1" d="M66,51.1L65.9,51L66,51.1L65.8,51l-0.1-0.1l0,0l-0.1-0.1l-0.1-0.1l0,0l-0.1-0.1l-0.1-0.1l0,0l-0.1-0.1
			l-0.1-0.1l0,0l-0.1-0.1l-0.1-0.1l0,0l-0.1-0.1l-0.1-0.1l0,0l-0.1-0.1L65,50l0.1,0L64.9,50l-0.1-0.1l0.1,0l-0.1-0.1l-0.1-0.1l0.1,0
			l-0.1-0.1l0.1,0l-0.1-0.1l0.1,0l-0.1-0.1l0.1,0l-0.1-0.1l0.1,0l-0.1-0.1l0.1,0l-0.1-0.1l0.1,0l-0.1-0.1l0.1,0l-0.1-0.1l0.1,0
			l-0.1-0.1l0.1,0l-0.1-0.1l0.1,0L64,49.4l0.1,0L64,49.3l0.1,0l-0.1-0.1l0.1,0l-0.1-0.1l0.1,0l-0.1-0.1l0.1,0l-0.1-0.1l0.1,0l-0.1,0
			l0.1,0l-0.1,0l0.1,0l-0.1,0l0.1,0l-0.1,0l0.1,0l0,0l-0.1,0l0.1,0l-0.2,0l0.1,0l-0.2,0l0.1,0l-0.2,0l0.1,0l-0.1,0v0v0l0,0l0,0l0,0
			l0,0L63,49.2l-0.1,0.1l0.1-0.1l-0.2,0.2l0.1-0.1l-0.1,0.1l-0.1,0.1l0.1-0.1l-0.1,0.2l-0.1,0.2l0-0.1l-0.1,0.2l-0.1,0.2l0-0.1
			l-0.1,0.2l-0.1,0.2l0-0.1l-0.1,0.2L62,50.7l-0.1,0.2l-0.1,0.2l-0.1,0.2l-0.1,0.2l-0.1,0.2l-0.1,0.2l-0.1,0.2l-0.1,0.2l-0.1,0.2
			L61,52.8l-0.2,0.5l-0.2,0.5l-0.2,0.5l-0.2,0.5l-0.2,0.5L59.9,56l0,0l-0.3,0.8l-0.1,0.4l-0.1,0.4l-0.1,0.4l-0.1,0.2L59,58.4
			L58.8,59l-0.2,0.6l-0.2,0.6l-0.2,0.6l-0.2,0.6l-0.2,0.6l-0.2,0.6l-0.2,0.6L57,64l-0.2,0.6l-0.2,0.6l-0.2,0.6l-0.2,0.7L56,67.2
			l-0.2,0.7l-0.2,0.7l-0.2,0.7l-0.2,0.7l-0.2,0.7l-0.2,0.7l-0.1,0.7l-0.1,0.7l-0.1,0.7l0,0.1L54.5,74l-0.1,0.7l-0.1,0.7L54.1,76
			L54,76.7l-0.1,0.7l-0.1,0.7l-0.1,0.7l-0.1,0.7l-0.1,0.7l-0.1,0.7l-0.1,0.7l-0.1,0.7L53.2,83l-0.1,0.7L53,84.4L53,85.1l-0.1,0.7
			l-0.1,0.7l-0.1,0.7l-0.1,0.7l-0.1,0.7l0,0.7l0,0.7l0,0.7l0,0.7l0,0.7l0,0.7l0,0.7l0,0.7l0,0.7l0,0.5v0.2l0,0.7V97l0,0.7l0,0.7
			l0,0.7l0,0.7l0,0.7l0,0.7l0,0.7l0,0.4l0,0.4l0,0.4l0,0.4l0,0.4l0,0.4l0,0.8l0,0.8l0,0.8l0,1.5l0,0.7l0,0.7l0,0.4l0,0.4v0.4l0,0.4
			l0,0.4l0,0.3l0,0.3l0,0.3l0,0.3l0,0.3l0,0.3l0,0.4l0,0.2l0,0.2l0,0.2l0,0.2l0,0.5l0,0.5v0.5l0,0.5l0,0.5l0,0.4l0,0.4l0,0.4l0,0.7
			l0,0.5l0,0.2l-0.1,0.5l-0.2,0.5l-0.3,0.5l-0.3,0.4l-0.4,0.4l-0.5,0.3l-0.5,0.2l-0.5,0.1l-0.5,0l-0.6,0l-0.5-0.1l-0.5-0.2l-0.5-0.3
			l-0.4-0.4l-0.3-0.4l-0.3-0.5l-0.2-0.5l-0.1-0.5l-0.1-0.5l-0.2-0.7l-0.2-0.9l-0.3-1l-0.3-1.1l-0.3-1.2l-0.3-1.2l0-0.1l-0.2-0.6
			l-0.2-0.6l-0.1-0.7l-0.1-0.7l-0.1-0.7l-0.1-0.7l-0.1-0.6l-0.1-0.6l-0.1-0.6l-0.1-0.6l-0.1-0.6l-0.1-0.6l-0.1-0.6l-0.1-0.5
			l-0.2-1.2l-0.2-1.2l-0.1-1.1l-0.1-1.2l-0.3-2.3L41.2,95l-0.3-2.3l-0.3-2.3l-0.1-1.1l-0.1-1.1L40.2,87L40,85.9l-0.2-1.1l0-0.3
			l-0.1-0.9l-0.1-1.1l-0.1-1.1l-0.1-1.1l-0.1-1.1L39.2,78l-0.1-1.1l-0.1-0.6L39,75.8l-0.1-0.6l-0.1-0.6l-0.1-0.6l-0.1-0.6L38.6,73
			l-0.1-0.6l-0.1-0.6l-0.1-0.6l-0.1-0.6l-0.1-0.4l0-0.1l0-0.6l0-0.6l0-0.6l0-0.6l0-0.2l0-0.3l0-0.3l0-0.3l0-0.3l0-0.3l0-0.3l0-0.3
			l0-0.6l0-0.7l0-0.7l0-0.7l0.1-1.5l0-0.7l0-0.7l0-0.7l0-0.7v-0.7l0-0.7l0-0.3l0-0.3l0-0.3l0-0.3l0-0.3l0-0.3l0-0.3l0,0l0-0.3l0-0.2
			l0,0l0-0.1l0,0.1l-1.1,0.5l-0.5-1.1l0-0.2l0.1-0.2l0.1-0.1l0.1-0.1l0.1-0.1l0.1-0.1l0.1-0.1l0.1-0.1l0.1-0.1l0.1-0.1l0.1-0.1
			l0.1-0.1l0.1-0.1l0.1-0.1l0.1-0.1l0.1-0.1l0.1-0.1l0.1-0.1l0.2-0.1l0.2,0l0.2,0h0.2l0.2,0l0.2,0l0.2,0.1l0.1,0.1l0.1,0.1l0.1,0.1
			l0.1,0.1l0.1,0.1l0.1,0.1l0.1,0.1l0.1,0.1l0.1,0.1l0.1,0.1l0.1,0.1l0.1,0.1l0.1,0.1l0.1,0.2l0.1,0.2l0.1,0.2l0.1,0.2l0.1,0.3
			l0.1,0.3l0.1,0.3l0.1,0.3l0.1,0.3l0.1,0.3l0.1,0.3l0.1,0.3l0.1,0.3l0.2,0.7l0.2,0.7l0.2,0.7l0.2,0.7l0.2,0.7l0.2,0.7l0.3,1.4
			l0.2,0.7l0.2,0.7l0.2,0.6l0.2,0.6l0.1,0.3l0.1,0.2l0.1,0.2l0.1,0.2l0.1,0.2l0.1,0.2l0,0l0.1,0.2l0.1,0.2l0,0l0.2,0.5l0.2,0.6
			l0.2,0.6l0.2,0.6l0,0.1l0.1,0.5l0.1,0.6l0.1,0.6l0.1,0.6l0.1,0.6l0.1,0.6l0.1,0.6l0.1,0.6l0.1,0.6l0.1,0.6l0.1,0.6l0.1,0.6
			l0.2,1.1l0.2,1.1l0.2,1.1l0.2,1.2l0.1,0.4l0.1-0.6l0.1-0.7l0.1-0.7l0.1-0.7l0.1-0.7l0.1-0.7l0.1-0.7l0.1-0.7l0.1-0.7l0.1-0.7
			l0.1-0.7l0.1-0.7l0-0.1l0.1-0.7l0.1-0.7l0.1-0.7l0.1-0.7l0.1-0.7l0.2-0.7L49,67l0.2-0.7l0.2-0.7l0.2-0.7l0.2-0.7l0.2-0.7l0.2-0.7
			l0.2-0.7l0.2-0.7l0.2-0.7l0.2-0.7l0.2-0.7l0.2-0.7l0.2-0.7l0.2-0.7l0.2-0.7l0.2-0.7l0-0.1l0-0.1l0,0.1l0.1-0.3l0.1-0.3l0.1-0.4
			l0.2-0.8l0,0l0.3-0.9l0.2-0.5l0.2-0.5l0.2-0.5l0.2-0.6l0.2-0.6l0.1-0.3l0.1-0.3l0.1-0.3l0.1-0.3l0.1-0.3l0.1-0.3l0.1-0.3l0.1-0.3
			l0.1-0.3l0.1-0.3l0.1-0.3l0.2-0.3l0.2-0.3l0.2-0.3l0.2-0.3l0.2-0.3l0.2-0.3l0.2-0.3l0.2-0.3l0.2-0.3l0.2-0.3l0.2-0.3l0.2-0.2
			l0.1-0.1l0.1-0.1l0.1-0.1l0.1-0.1l0.1-0.1l0.1-0.1l0.2-0.1l0.2-0.1l0.2-0.1l0.2-0.1l0.2-0.1l0.2-0.1l0.2-0.1l0.2-0.1l0.2-0.1
			l0.2-0.1l0.2-0.1l0.2-0.1l0.2-0.1l0.2-0.1l0.2-0.1l0.2-0.1l0.2,0l0.2,0l0.2,0l0.2,0l0.2,0l0.2,0h0.2l0.2,0l0.3,0l0.2,0l0.2,0
			l0.2,0l0.2,0l0.2,0l0.2,0l0.2,0l0.2,0.1l0.2,0.1l0.2,0.1l0.2,0.1l0.2,0.1l0.2,0.1l0.2,0.1l0.2,0.1l0.2,0.1l0.2,0.1l0.2,0.1
			l0.2,0.1l0.2,0.1l0.2,0.1l0.2,0.1l0.2,0.1l0.2,0.1l0.2,0.1l0.2,0.1l0.2,0.1l0.2,0.1l0,0l0.2,0.1l0.2,0.1L70,44l0.2,0.1l0.2,0.1
			l0.2,0.1l0.2,0.1l0.2,0.2l0.2,0.2l0.2,0.2l0.2,0.2l0.1,0.2l0.1,0.2l0.1,0.2l0.1,0.2L72,46l0.1,0.2l0.1,0.2l0.1,0.2l0.1,0.2
			l0.1,0.2l0.2,0.3l0.2,0.4l0.2,0.4l0.2,0.4l0.2,0.4l0.2,0.4l0.2,0.4l0.2,0.4l0.2,0.4l0.2,0.4l0.2,0.4l0.2,0.4l0.2,0.4l0.2,0.4
			l0.2,0.4l0.2,0.4l0.2,0.4l0.1,0.4l0.1,0.4l0.1,0.4l0.1,0.4l0.1,0.5l0.1,0.5l0.1,0.5l0.1,0.5l0.1,0.5l0.1,0.5l0.1,0.5l0.1,0.5
			l0.1,0.5l0.1,0.5l0.1,0.5l0.1,0.5l0.1,0.5l0.1,0.5l0.1,0.5l0.1,0.5l0.1,0.5l0.1,0.5l0.1,0.5l0.1,0.5l0.1,0.5l0.1,0.5l0.1,0.5
			l0.1,0.5l0.1,1l0.1,1l0.1,1l0.1,1l0.1,1l0.1,1l0.1,1l0.1,0.9l0.1,0.9l0.1,0.9l0.1,0.9l0,0.7l0.2-1.6l0.3-1.8l0.3-1.8l0.1-0.9
			l0.1-0.9l0.1-0.9l0.2-0.9l0.2-0.9l0.2-0.9l0.2-0.9l0.2-0.9l0.2-0.9l0.2-0.9l0.2-0.9l0.2-0.9l0.2-0.9l0.2-0.9l0.2-0.9l0.2-0.9
			l0.2-0.9l0.2-0.9l0.2-0.9l0.2-0.9l0.1-0.4l0.1-0.4l0.1-0.4L85,53l0.1-0.5l0.1-0.5l0.3-1.1l0.2-0.6l0.2-0.7l0.2-0.7l0.2-0.7
			l0.1-0.4l0.1-0.4l0.1-0.4l0.1-0.4l0.1-0.4l0.1-0.4l0.1-0.4l0.1-0.4l0.2-0.4l0.2-0.4l0.2-0.4l0.2-0.4l0.2-0.4l0.2-0.4l0.2-0.4
			l0.2-0.4l0.2-0.4l0.2-0.4l0.2-0.4l0.2-0.4l0.2-0.4l0.2-0.4l0.2-0.4l0.3-0.4l0.3-0.4l0.3-0.4l0.1-0.2l0.1-0.2l0.1-0.2l0.1-0.2
			l0.2-0.2l0.2-0.2l0.2-0.2l0.2-0.2l0.2-0.2l0.2-0.2l0.2-0.2l0.2-0.2l0.2-0.2l0.2-0.2l0.2-0.2l0.2-0.2l0.2-0.2l0.2-0.2l0.2-0.2
			l0.2-0.1l0.2-0.1l0.2-0.1l0.2-0.1l0.2-0.1l0.2-0.1l0.2-0.1L96,34l0.2-0.1l0.2-0.1l0.2-0.1l0.2-0.1l0.2-0.1l0.2-0.1l0.3-0.1
			l0.3-0.1l0.3-0.1l0.3-0.1l0.3-0.1l0.3-0.1l0.3-0.1l0.3,0l0.3,0l0.3,0l0.3,0l0.2,0l0.2,0l0.2,0l0.2,0h0.2l0.2,0l0.2,0l0.2,0l0.2,0
			l0.2,0l0.2,0l0.2,0l0.2,0l0.2,0l0.2,0l0.2,0l0.2,0l0.2,0.1l0.2,0.1l0.2,0.1l0.2,0.1l0.2,0.1l0.2,0.1l0.2,0.1l0.2,0.1l0.2,0.1
			l0.2,0.1l0.2,0.1l0.3,0.2l0.3,0.2l0.3,0.2l0.3,0.2l0.3,0.2l0.3,0.2l0.3,0.2l0.3,0.3l0.3,0.3l0.2,0.3l0.2,0.3l0.2,0.3l0.2,0.3
			l0.2,0.3l0.2,0.3l0.2,0.3l0.2,0.3l0.2,0.3l0.2,0.3l0.2,0.3l0.2,0.3l0.1,0.2l0.1,0.1l0.1,0.3l0.1,0.3l0.1,0.3l0.1,0.3l0.1,0.3
			l0.1,0.3l0.1,0.3l0.1,0.3l0.1,0.3l0.1,0.3l0.1,0.3l0.1,0.3l0.1,0.3l0.1,0.3l0.1,0.3l0.1,0.3l0.1,0.3l0.1,0.3l0.1,0.3l0.1,0.3
			l0.1,0.3l0.1,0.3l0.1,0.3l0.1,0.3l0.1,0.3l0.1,0.3l0.1,0.3l0.1,0.4l0.1,0.7l0.1,0.7l0.1,0.7l0.1,0.7l0.1,0.7l0.1,0.7l0.1,0.7
			l0.1,0.7l0.1,0.7l0,0.7l0,0.7l0,0.6l0,0.6l0,0.6l0,0.6l0,0.6l0,0.6l0,0.6l0,0.6l0,0.6l0,1l0,1v0.9v0.8v0.7v0.6l0,1l0,1.1v1.1
			l0,1.1l0,1.1l0,1.1l0,1.1l0,1.1l0,1.1l0,1.1l0,2.1l-0.1,2.1l-0.1,2.1l-0.1,4.2l-0.1,2.1l-0.1,2.1l-0.1,2.1l0,2.1l0,2.1l0,1l0,1
			l0,1l0,1l0,1l0,1l0,0.8l0,0.2l0,1l0,1l0,1l0,1l0,1l0,1l0,1l0,1l0,1l0,1l0,1l0,1l0.1,1l0.1,1l0.1,1l0.1,1l0.1,1l0.1,1l0.1,1l0.1,1
			l0.1,1l0.1,1l0.1,0.5l0.1,0.5l0.1,0.5l0.1,0.5l0.1,0.5l0.1,0.5l0.1,0.5l0.1,0.5l0.1,0.5l0.1,0.6l0,0.3l0,0.3l0,0.3l0,0.3l0,0.3
			l0,0.3l0,0.3l0,0.3l0,0.6l0,0.6l0,0.7l0,0.7l0,0.9l-0.1,0.6l-0.1,0.7l-0.1,0.7l-0.1,0.7l-0.1,0.7l-0.1,0.7l0,0.4l0,0.4l0,0.4
			l0,0.3l0,0.3l0,0.3l0,0.3l0,0.3l0,0.3l0,0.3l0,0.2l0,0l0.2-0.1l0.2-0.1l0.2-0.1l0.4-0.2l0.3-0.2l0.4-0.2l0.4-0.2l0.4-0.2l0.4-0.2
			l0.4-0.2l0.4-0.2l0.4-0.2l0.4-0.3l0.4-0.3l0.4-0.3l0.4-0.3l0.4-0.3l0.4-0.3l0.4-0.3l0.4-0.3l0.4-0.3l0.4-0.3l0.4-0.3l0.4-0.3
			l0.4-0.3l0.4-0.3l0.4-0.3l0.4-0.3l0.4-0.3l0.4-0.3l0.4-0.3l0.4-0.3l0.8-0.7l0.6-0.5l0.2-0.1l0.7-0.6l0.7-0.6l0.7-0.6l0.7-0.6
			l0.6-0.6l0.6-0.5l0.6-0.5l1-0.9l0.4-0.4l0.4-0.4l0.4-0.4l0.4-0.4l0.4-0.4l0.4-0.4l0.4-0.4l0.4-0.4l0.4-0.4l0.4-0.4l0.4-0.4
			l0.4-0.4l0.4-0.4l0.4-0.5l0.4-0.5l0.4-0.5l0.4-0.5l0.3-0.5l0.3-0.5l0.3-0.5l0.3-0.5l0.3-0.5l0.3-0.5l0.3-0.5l0.1-0.1l0.3-0.4
			l0.4-0.4l0.3-0.5l0.3-0.5l0.2-0.2l0.2-0.2l0.2-0.2l0.2-0.2l0.1-0.2l0.1-0.2l0.1-0.2l0.1-0.2l1.4-0.6l0.6,1.4l-0.1,0.3l-0.1,0.3
			l-0.1,0.3l-0.1,0.3l-0.1,0.3l-0.1,0.3l-0.1,0.3L147,121l-0.2,0.6l-0.2,0.6l-0.2,0.6l-0.2,0.5l0,0.1l-0.3,0.6l-0.3,0.6l-0.3,0.5
			l-0.3,0.6l-0.3,0.5l-0.3,0.5l-0.3,0.5l-0.3,0.5l-0.3,0.5l-0.3,0.5l-0.3,0.5l-0.3,0.5l-0.3,0.5l-0.3,0.5l-0.3,0.5l-0.4,0.5
			l-0.4,0.5l-0.4,0.5l-0.4,0.5l-0.4,0.5l-0.4,0.5l-0.4,0.5l-0.4,0.5l-0.4,0.4l-0.9,1.1l-0.5,0.6l-0.5,0.6l-0.6,0.7l-0.6,0.7
			l-0.6,0.7l-0.6,0.7l-0.7,0.8l-0.1,0.2l-0.6,0.6l-0.7,0.8l-0.4,0.4l-0.4,0.4l-0.4,0.4l-0.4,0.4l-0.4,0.4l-0.4,0.4l-0.4,0.4
			l-0.4,0.4l-0.4,0.4l-0.4,0.4l-0.4,0.4l-0.4,0.4l-0.4,0.4l-0.4,0.4l-0.4,0.4l-0.4,0.4l-0.4,0.4l-0.4,0.4l-0.4,0.4l-0.4,0.3
			l-0.4,0.3l-0.4,0.3l-0.4,0.3l-0.4,0.3l-0.4,0.3l-0.4,0.3l-0.4,0.3l-0.4,0.3l-0.4,0.3l-0.2,0.1l-0.2,0.1l-0.2,0.1l-0.2,0.1
			l-0.2,0.1l-0.2,0.1l-0.2,0.1l-0.2,0.1l-0.2,0.1l-0.2,0.1l-0.2,0.1l-0.2,0.1l-0.2,0.1l-0.2,0.1l-0.2,0.1l-0.2,0.1l-0.2,0.1
			l-0.2,0.1l-0.3,0.1l-0.3,0.1l-0.3,0.1l-0.3,0.1l-0.3,0.1l-0.3,0l-0.3,0l-0.3,0l-0.3,0h-0.4l-0.4,0l-0.4,0l-0.4-0.1l-0.4-0.1
			l-0.4-0.1l-0.3-0.1l-0.3-0.2l-0.3-0.2l-0.3-0.2l-0.3-0.2l-0.2-0.2l-0.2-0.2l-0.2-0.2l-0.2-0.2l-0.2-0.2l-0.2-0.2l-0.2-0.2
			l-0.1-0.2l-0.1-0.2l-0.1-0.2l-0.1-0.2l-0.1-0.2l-0.1-0.2l-0.1-0.2l-0.1-0.2l-0.1-0.2L107,151l-0.1-0.2l-0.1-0.2l-0.1-0.2l-0.1-0.4
			l-0.1-0.4l-0.1-0.4l-0.1-0.4l-0.1-0.4l-0.1-0.4l-0.1-0.4l-0.1-0.4l-0.1-0.4l0-0.4l0-0.4l0-0.4l0-0.4l0-0.4l0-0.4l0-0.4l0-0.4
			l0-0.4l0-0.8l0-0.8l0-0.8l0-0.8l0-0.8l0-0.6l0-0.9l0-0.7l0-0.6l0-0.5l0-0.5v-0.2l0-0.2l0-0.1l0-0.1l0-0.1l0,0l-0.1-0.5l-0.1-0.5
			l-0.1-0.5l-0.1-0.5l-0.1-0.5l-0.1-0.5l-0.1-0.5l-0.1-0.5l-0.1-0.5l-0.1-0.5l-0.1-1.1l-0.1-1.1l-0.1-1.1l-0.1-1.1l-0.1-1.1
			l-0.1-1.1l-0.1-1.1l-0.1-1.1l-0.1-1.1l-0.1-1.1l-0.1-1.1l0-1.1l0-1.1l0-1.1l0-1.1l0-1.1l0-1.1l0-1.1l0-1.1l0-1.1l0-1.1l0-1.1
			l0-0.2l0-0.8l0-1.1l0-1.1l0-1.1l0-1.1l0-1.1l0-1.1l0.1-2.1l0.1-2.1l0.1-2.1l0.1-2.1l0.1-2.1l0.2-4.2l0.1-2.1l0.1-2.1l0.1-2.1l0-1
			l0-1l0-1l0-1l0-1l0-1l0-1l0-1l0-1l0-1l0-0.6l0-0.7l0-0.8l0-0.8l0-0.9l0-1v-0.5v-0.5l0-0.5l0-0.5l0-0.6l0-0.6l0-0.6l0-0.6l0-0.6
			l0-0.6l0-0.6l0-0.6l0-0.6l0-0.6l-0.1-0.6l-0.1-0.6l-0.1-0.6l-0.1-0.6l-0.1-0.6l-0.1-0.6l0-0.3l0-0.3l0-0.3l0-0.3l0-0.3l-0.1-0.3
			l-0.1-0.3l-0.1-0.3l-0.1-0.3l-0.1-0.3l-0.1-0.3l-0.1-0.3l-0.1-0.2l-0.1-0.2l-0.1-0.2l-0.1-0.2l-0.1-0.2l-0.1-0.2l-0.1-0.2
			l-0.1-0.2l-0.1-0.2l-0.1-0.2l-0.1-0.2l-0.1-0.2l-0.1-0.2l0,0.1l-0.1-0.2l-0.1-0.2l0,0.1l-0.1-0.2l0-0.1l-0.1-0.1l-0.1-0.1
			l-0.1-0.2l-0.1-0.1l-0.1-0.2l-0.1-0.1l-0.1-0.1l0-0.1l-0.1-0.1l0-0.1l-0.1-0.1l-0.1-0.1l-0.1-0.1l-0.1-0.1l-0.1,0l0,0l0,0l0,0l0,0
			l0,0l0,0l0,0l0,0l0,0l0,0l0,0l0,0l0,0l0,0l0,0l0,0l0,0l0,0l0,0l0,0l0,0l0,0l0,0h0l0,0l0,0h0l0,0h0h0h0l0,0h0l0,0l-0.1,0l-0.1,0
			l-0.1,0l-0.1,0l-0.1,0l-0.1,0l-0.1,0l-0.1,0l-0.1,0l-0.1,0l-0.1,0l-0.1,0l-0.1,0l-0.1,0l-0.1,0l-0.1,0l-0.1,0l-0.1,0l-0.1,0
			l-0.1,0l-0.1,0l-0.1,0l-0.1,0l0,0l-0.1,0.1l0.1-0.1l-0.1,0.1l-0.1,0.1l0.1-0.1l-0.1,0.1l-0.1,0.1l0.1-0.1l-0.1,0.1l-0.1,0.1
			l0.1-0.1l-0.1,0.1l-0.1,0.1l0.1-0.1L99,42.9L99,43l0,0l-0.1,0.1l-0.1,0.1l0,0l-0.1,0.1l-0.1,0.1l0,0l-0.1,0.1l-0.1,0.1l0,0
			l-0.1,0.1l-0.1,0.1l0,0l-0.1,0.1L98.1,44L98,44.2l-0.2,0.2l-0.2,0.2l-0.2,0.2l-0.2,0.2l-0.1,0.3l-0.1,0.3L97,45.9l-0.1,0.3
			l-0.1,0.3l-0.1,0.3L96.4,47l-0.1,0.3l-0.1,0.3L96,47.9l-0.1,0.3l-0.1,0.3l-0.1,0.3l-0.1,0.3l-0.1,0.3l-0.1,0.3l-0.1,0.3L95,50.4
			l-0.1,0.3L94.8,51l-0.2,0.6l-0.2,0.6l-0.2,0.6l-0.2,0.6l-0.3,1.1l-0.2,0.5l-0.2,0.5L93.3,56l-0.1,0.4L93,56.8l-0.1,0.4L92.7,58
			l-0.2,0.8l-0.2,0.8L92,60.4l-0.2,0.8l-0.2,0.8L91.4,63l-0.2,0.8L91,64.6l-0.2,0.9l-0.2,0.9l-0.2,0.9l-0.2,0.9L90.2,69L90,69.8
			l-0.2,0.9l-0.2,0.9l-0.2,0.9l-0.2,0.9l-0.2,0.9L88.9,76l-0.3,1.8l-0.3,1.8L88,81.4l-0.3,1.8l-0.3,1.8l-0.3,1.8l-0.2,0.9l-0.2,0.9
			l-0.1,0.6l0,0.3l-0.1,0.9l-0.2,0.9l-0.2,0.9L86,93.2l-0.2,0.9L85.7,95l-0.2,0.9l-0.2,0.9l-0.2,0.9L85,98.7l-0.2,0.9l-0.2,0.9
			l-0.2,0.9l-0.2,0.9l-0.2,0.9l-0.2,0.9l-0.1,0.4l-0.1,0.4l-0.1,0.4l-0.1,0.4l-0.1,0.4l-0.1,0.4l-0.1,0.4l-0.1,0.4l-0.1,0.4
			l-0.1,0.4l-0.1,0.4l-0.1,0.4l-0.1,0.4l-0.2,0.4l-0.2,0.4l-0.2,0.4l-0.2,0.4l-0.2,0.4l-0.1,0.2l-0.1,0.2l-0.1,0.2l-0.1,0.3
			l-0.2,0.3l-0.4,0.5l-0.3,0.3l-0.5,0.4l-0.5,0.3l0,0l0,0l-0.7,0.3l-0.7,0.2l0,0l0,0l-0.7,0.1l-0.7,0h0l-0.7-0.1l-0.6-0.2l0,0
			l-0.5-0.3l-0.5-0.3l0,0l-0.5-0.4l0,0l-0.4-0.5l-0.3-0.4l-0.3-0.8l-0.1-0.5l-0.1-0.4l0-0.3l0-0.2l0-0.3l0-0.3l0-0.3l0-0.3l0-0.3
			l0-0.3l0-0.6l0-0.7l0-0.7l0-0.7l0-0.3l0-0.3l0-0.3l0-0.3v-0.2l0-0.3v0.1l0-0.2l0-0.2l0,0.1l0-0.1l0,0.1l0-0.1l0,0.1l0-0.1l0,0.1
			l0-0.1l-0.1-0.4l-0.1-0.5l-0.1-0.5l-0.1-0.5l0-0.5l0-0.5l0-0.4l0-0.4l0-0.4l0-0.4l-0.1-0.9l0-0.9l0-0.8l0-0.8l0-0.8l0-0.2l0-0.6
			l0-0.4l0-0.4l0-0.4l0-0.4l0-0.4l0-0.4l0-0.4l0-0.4l0-0.4l0-0.4l0-0.5l0-0.6l0-0.6l0-0.6l0-0.6l0-0.6l0-0.7l0-0.7l0-1.4l0-1.5
			l0-1.6l0-1.7l0-0.9l0-0.9l0-0.9l0-0.9l0-0.9l0-0.9l-0.1-0.9l-0.1-0.9l-0.1-0.9l-0.1-0.9l-0.1-0.9l-0.1-0.9l-0.1-0.9l0-0.5l0-0.5
			l-0.1-0.5l-0.1-0.5l-0.1-0.5l-0.1-0.4L70,64.7L70,64.3l-0.1-0.4l-0.1-0.4L69.8,63l-0.1-0.4l-0.1-0.4l-0.1-0.4l-0.1-0.4l-0.1-0.4
			l-0.1-0.4L69.3,60l-0.1-0.4l-0.1-0.4L69,58.8l-0.1-0.4l-0.1-0.4l-0.1-0.4l-0.1-0.4l-0.1-0.4l-0.1-0.4l-0.1-0.4l-0.1-0.3l-0.1-0.3
			L68,55.2l-0.1-0.3l-0.1-0.3l-0.1-0.3l-0.1-0.3l-0.1-0.3l-0.1-0.3l-0.1-0.3L67,52.8l-0.1-0.3l-0.1-0.2l-0.1-0.2l-0.2-0.3l0,0.1
			l-0.2-0.3l-0.2-0.2l0,0.1l-0.1-0.1L66,51.1l0.1,0.1L66,51.1z M112.9,147.2l-0.1,0L112.9,147.2L112.9,147.2l0.1,0L112.9,147.2
			l0.2,0l0,0L112.9,147.2l0.1,0l-0.3,0L112.9,147.2l-0.2,0L112.9,147.2l-0.2,0L112.9,147.2z M113.1,147.2L113.1,147.2L113.1,147.2
			L113.1,147.2z M113.2,147.2L113.2,147.2L113.2,147.2L113.2,147.2L113.2,147.2z M113.2,147.2L113.2,147.2L113.2,147.2L113.2,147.2z
			 M72.8,108.4L72.8,108.4l-0.1,0.1L72.8,108.4L72.8,108.4L72.8,108.4z M38.5,53.9L38.5,53.9L38.5,53.9L38.5,53.9L38.5,53.9z
			 M38.5,53.9L38.5,53.9L38.5,53.9L38.5,53.9z M38.5,53.9L38.5,53.9L38.5,53.9L38.5,53.9z M38.6,53.8L38.6,53.8L38.6,53.8L38.6,53.8
			L38.6,53.8L38.6,53.8L38.6,53.8L38.6,53.8L38.6,53.8L38.6,53.8L38.6,53.8L38.6,53.8L38.6,53.8L38.6,53.8L38.6,53.8L38.6,53.8
			L38.6,53.8z M63.1,49.1L63.1,49.1L63.1,49.1L63.1,49.1z M63.1,49.1L63.1,49.1L63.1,49.1L63.1,49.1L63.1,49.1z M63.1,49.1
			L63.1,49.1L63.1,49.1L63.1,49.1L63.1,49.1z M63.2,49L63.2,49L63.2,49z M63.2,49L63.2,49L63.2,49z M63.2,49L63.2,49L63.2,49
			L63.2,49L63.2,49z M63.2,49L63.2,49L63.2,49L63.2,49L63.2,49z M63.2,49L63.2,49L63.2,49L63.2,49L63.2,49z M63.2,49L63.2,49
			L63.2,49L63.2,49z M63.2,49L63.2,49L63.2,49L63.2,49L63.2,49z M63.2,49L63.2,49L63.2,49L63.2,49L63.2,49z M63.2,49L63.2,49
			L63.2,49L63.2,49L63.2,49z M63.2,49L63.2,49L63.2,49L63.2,49z M63.2,49L63.2,49L63.2,49L63.2,49L63.2,49z M63.2,49L63.2,49
			L63.2,49L63.2,49L63.2,49z M63.2,49L63.2,49L63.2,49L63.2,49L63.2,49z M63.2,49L63.2,49L63.2,49L63.2,49L63.2,49z M63.2,49
			L63.2,49L63.2,49L63.2,49L63.2,49z M63.2,49L63.2,49L63.2,49L63.2,49L63.2,49z M63.2,49L63.2,49L63.2,49L63.2,49z M63.2,49
			L63.2,49L63.2,49L63.2,49z M63.2,49L63.2,49L63.2,49L63.2,49L63.2,49z M63.2,49L63.2,49L63.2,49L63.2,49L63.2,49z M63.2,49
			L63.2,49L63.2,49L63.2,49L63.2,49z M63.2,49L63.2,49L63.2,49L63.2,49L63.2,49z M63.2,49L63.2,49L63.2,49L63.2,49z M63.2,49
			L63.2,49L63.2,49L63.2,49z M63.2,49L63.2,49L63.2,49L63.2,49L63.2,49z M63.2,49L63.2,49L63.2,49L63.2,49z M63.2,49L63.2,49
			L63.2,49L63.2,49L63.2,49z M63.2,49L63.2,49L63.2,49L63.2,49z M63.2,49L63.2,49L63.2,49L63.2,49L63.2,49z M63.2,49L63.2,49
			L63.2,49L63.2,49z M63.2,49L63.2,49L63.2,49L63.2,49L63.2,49z M63.2,49L63.2,49L63.2,49L63.2,49z M63.2,49L63.2,49L63.2,49
			L63.2,49z M63.2,49L63.2,49L63.2,49L63.2,49L63.2,49L63.2,49L63.2,49L63.2,49L63.2,49L63.2,49L63.2,49L63.2,49L63.2,49L63.2,49
			L63.2,49L63.2,49L63.2,49z"/>
		<path class="st1" d="M148.7,123.7L148.7,123.7L148.7,123.7l0,0.4l0,0.4l0,0.4l0,0.4l0,0l0,0.4l-0.1,0.4l-0.1,0.4l-0.1,0.4
			l-0.1,0.4l-0.1,0.4l-0.1,0.4l-0.1,0.4l-0.1,0.4l-0.1,0.4l-0.1,0.4l-0.1,0.4l-0.1,0.4l-0.1,0.4l-0.1,0.4l-0.1,0.4l-0.1,0.4
			l-0.1,0.3l0,0.1l-0.1,0.4l-0.1,0.4l-0.1,0.4l-0.1,0.4l-0.1,0.4l-0.1,0.4l-0.1,0.4l-0.1,0.4l-0.1,0.4l-0.1,0.4l-0.3,0.7l-0.1,0.1
			l-0.3,0.6l-0.3,0.7l-0.3,0.7l-0.3,0.7l-0.3,0.7l-0.3,0.7l-0.4,0.7l-0.1,0.1l-0.3,0.6l-0.4,0.7l-0.4,0.7l-0.4,0.7l-0.7,1.4
			l-0.7,1.5l-1.2,0.6l-0.4-1.3l0.5-1.6l0.5-1.6l0.2-0.8l0.2-0.8l0.2-0.8l0.2-0.6l0-0.1l0.2-0.8l0.2-0.8l0.2-0.8l0.2-0.7l0.2-0.7
			l0.2-0.7l0.1-0.6l0-0.1l0.2-0.7l0.1-0.4l0.1-0.4l0.1-0.4l0.1-0.4l0.1-0.4l0.1-0.4l0.1-0.4l0.1-0.4l0.1-0.4l0.1-0.4l0-0.1l0.1-0.3
			l0.1-0.4l0.1-0.4l0.1-0.4l0.1-0.4l0.1-0.4l0.1-0.4l0.1-0.4l0.1-0.4l0.1-0.4l0.1-0.4l0.1-0.4l0.1-0.4l0-0.4l0-0.4l0-0.4l0-0.4
			l0-0.3l0,0l0-0.4l0-0.4l0-0.4l0-0.4l0-0.1l0-0.2l0-0.3l0.1-0.4l0.1-0.5l0.1-0.4l0,0l-0.3,0.2l-0.3,0.2l-0.3,0.2l-0.3,0.2l-0.3,0.2
			l-0.2,0.1l-0.1,0.1l-0.3,0.2l-0.3,0.2l-0.3,0.2l-0.3,0.2l-0.3,0.2l-0.6,0.3l-0.6,0.3l-1.3,0.7l-0.6,0.3l-0.6,0.3l-0.2,0.1
			l-0.5,0.2l-0.3,0.2l-0.3,0.2l-0.2,0.1l-0.3,0.1l-0.6,0.3l-0.1,0l-0.5,0.2l-0.7,0.3l-0.7,0.3l-0.7,0.3l-0.3,0.1l-1.1,0.5l-0.7,0.3
			l-0.6,0.3l-0.6,0.2l-0.3,0.1l-0.2,0.1l-0.2,0.1l0,0l-0.2,0.1l-0.2,0.1l0,0l-0.1,0.1l0,0l0,0l-0.1,0l0,0l0,0l0,0l0,0l0.1-0.1l0,0
			l0-0.1l-1.1,0.3l0,0l-0.1-0.1l-0.1-0.1l0,0l-0.1-0.1l-0.1-0.1l0-0.1l0,0l0-0.1l0-0.1v-0.1v0l0-0.1l0-0.1l0-0.1l0,0l0-0.1l0.1-0.1
			l0-0.1l0.1-0.1l0.1-0.1l0.1-0.1l0,0l0.1-0.1l0.2-0.1l0.2-0.1l0.2-0.1l0.2-0.2l0.2-0.2l0.5-0.4l0.6-0.4l0.6-0.4l1-0.7l0.3-0.2
			l0.7-0.4l0.6-0.4l0.6-0.4l0.5-0.3l0.1-0.1l0.5-0.3l0.2-0.1l0.2-0.1l0.3-0.2l0.3-0.2l0.4-0.3l0.2-0.1l0.6-0.4l0.6-0.4l1.2-0.7
			l0.6-0.4l0.6-0.4l0.3-0.2l0.3-0.2l0.3-0.2l0.3-0.2l0.3-0.2l0.1-0.1l0.2-0.1l0.3-0.2l0.3-0.2l0.3-0.2l0.3-0.2l0.3-0.2l0.3-0.2
			l0.2-0.2l0.2-0.2l0.2-0.2l0.2-0.2l0.2-0.2l0.3-0.3l0.2-0.2l0.2-0.2l0.3-0.2l0.3-0.2l0.3-0.2l0.3-0.2l0.2-0.1l0.1-0.1l0.2-0.1
			l0.2-0.1l0.2-0.1l0.2-0.1l0.2-0.1l0.2-0.1l0.2-0.1l0.2-0.1l0.2,0l0.2,0l0.3,0l0.4,0l0.2,0.1l0.3,0.1l0.3,0.2l0.3,0.2l0.2,0.3
			l0.2,0.3l0.1,0.3l0,0l0.1,0.3l0,0.3l0,0.1l0,0.2l0,0.3l0,0.2l0,0.1l-0.1,0.4l-0.1,1.1l-0.2,1.2l-0.2,1.3l-0.1,1.1l-0.1,0.5l0,0.4
			L148.7,123.7L148.7,123.7L148.7,123.7L148.7,123.7z M127.3,129.8L127.3,129.8l0.1-0.3l0-0.3l-0.2-0.3l-0.2-0.2L127.3,129.8z
			 M147.9,118.7L147.9,118.7L147.9,118.7L147.9,118.7z M147.9,118.7L147.9,118.7L147.9,118.7L147.9,118.7z M147.9,118.7L147.9,118.7
			L147.9,118.7L147.9,118.7z"/>
	</g>
</g>
</svg>
