<?xml version="1.0" encoding="utf-8"?>
<!-- Generator: Adobe Illustrator 22.0.1, SVG Export Plug-In . SVG Version: 6.00 Build 0)  -->
<svg version="1.1" id="Capa_1" xmlns="http://www.w3.org/2000/svg" xmlns:xlink="http://www.w3.org/1999/xlink" x="0px" y="0px"
	 width="1365.7px" height="1080px" viewBox="0 0 1365.7 1080" style="enable-background:new 0 0 1365.7 1080;" xml:space="preserve"
	>
<style type="text/css">
	.st0{fill:#FFFFFF;}
	.st1{fill:#ECE052;}
</style>
<g>
	<g>
		<path class="st0" d="M120.9,188.3c0,14.1,10.2,21.2,30.6,21.2c20.4,0,30.6-6.3,30.6-19c0-6.8-3.5-12.3-10.4-16.6
			c-7-4.3-15.4-7.9-25.3-10.7c-9.9-2.9-19.9-6.2-29.8-10c-9.9-3.8-18.4-9.7-25.3-17.8c-7-8.1-10.4-18.2-10.4-30.3
			c0-51.4,33.1-77.1,99.2-77.1c24.2,0,42.4,4.6,54.8,13.7c12.4,9.1,18.6,21.8,18.6,37.9c0,5.9-0.8,11.6-2.3,17
			c-1.5,5.4-3.1,9.3-4.8,11.5l-2.5,3.7h-54.4c4.5-4.7,6.8-10.6,6.8-17.8c0-13.3-8.7-20-26.1-20c-21.9,0-32.9,7-32.9,20.9
			c0,7,3.5,12.5,10.4,16.6c7,4.1,15.4,7.3,25.3,9.7c9.9,2.4,19.9,5.3,29.9,8.8c10,3.5,18.5,9.3,25.5,17.4c7,8.1,10.4,18.6,10.4,31.5
			c0,26-7.8,45.3-23.3,57.9c-15.6,12.6-39.5,18.9-71.9,18.9c-32.4,0-54.5-5.7-66.3-17.2c-8.8-8.6-13.2-20.5-13.2-35.6
			c0-5.7,0.6-12,1.8-18.7l0.9-4.9h55.3l-0.6,3.7C121.1,184.8,120.9,186.7,120.9,188.3z"/>
	</g>
	<g>
		<path class="st0" d="M480.2,78.1h-75.6l-30.4,173.2h-55.6l30.4-173.2h-75.9l8.6-47.9h207L480.2,78.1z"/>
	</g>
	<g>
		<path class="st0" d="M566.5,251.3l1.8-48.2h-51.3L502,251.3h-58.7l78.9-221.1h101.4l1.2,221.1H566.5z M553.9,83.9l-24.3,78h40.2
			l3.4-78H553.9z"/>
	</g>
	<g>
		<path class="st0" d="M805.5,170.2h-81.7l-14.1,81.1H654l39-221.1h154.2l-8.6,47.9h-98.9l-7.7,44.2h81.7L805.5,170.2z"/>
	</g>
	<g>
		<path class="st0" d="M990.3,170.2h-81.7l-14.1,81.1h-55.6l39-221.1h154.2l-8.6,47.9h-98.9l-7.7,44.2h81.7L990.3,170.2z"/>
	</g>
</g>
<g>
	<g>
		<path class="st1" d="M470.2,523.7c-33.7,0-56.4-6-69.1-18.3c-9.6-9.4-14.4-22.3-14.4-38.5c0-5.9,0.6-12.5,1.9-19.4l1.5-8.2h63.3
			l-1.4,8.5c-0.4,1.8-0.5,3.4-0.5,4.7c0,7.4,2.8,17.2,26.6,17.2c26.6,0,26.6-10.9,26.6-15c0-5.3-2.8-9.6-8.5-13.2
			c-6.6-4.1-14.8-7.5-24.3-10.3c-10-2.9-20.1-6.3-30.1-10.1c-10.5-4-19.6-10.4-26.9-18.9c-7.6-8.8-11.4-19.8-11.4-32.9
			c0-53.8,34.7-81.1,103.2-81.1c24.9,0,44.2,4.9,57.2,14.4c13.4,9.9,20.2,23.7,20.2,41.2c0,6.3-0.8,12.4-2.5,18.1
			c-1.7,5.9-3.4,10-5.3,12.7l-3.6,5.4h-65.9l6.5-6.8c3.8-4,5.6-8.9,5.6-15c0-6.9-2.3-16-22.1-16c-28.9,0-28.9,12.7-28.9,16.9
			c0,5.5,2.8,9.8,8.5,13.1c6.6,3.9,14.7,7,24.2,9.2c10,2.4,20.2,5.4,30.3,8.9c10.7,3.7,19.8,9.9,27.2,18.5
			c7.6,8.8,11.4,20.3,11.4,34.1c0,27.1-8.4,47.7-24.8,61C528.4,517.1,503.3,523.7,470.2,523.7z M396.7,447.2l-0.3,1.7
			c-1.2,6.5-1.8,12.5-1.8,18c0,14.2,3.9,24.9,12,32.8c11,10.7,32.4,16.1,63.5,16.1c31.3,0,54.6-6.1,69.3-18
			c14.5-11.7,21.9-30.2,21.9-54.8c0-11.8-3.2-21.6-9.5-28.9c-6.5-7.5-14.5-12.9-23.8-16.2c-9.9-3.4-19.8-6.3-29.6-8.6
			c-10.3-2.4-19.2-5.8-26.4-10.1c-8.2-4.8-12.4-11.6-12.4-20c0-11.4,6.4-24.9,36.9-24.9c24.9,0,30.1,13,30.1,24
			c0,5.1-1,9.7-3.1,13.8h44.5l1.4-2c0.9-1.3,2.4-4.1,4.1-10.3c1.4-5,2.2-10.4,2.2-16c0-15-5.5-26.3-17-34.7
			c-11.6-8.6-29.3-12.9-52.4-12.9c-64.1,0-95.2,23.9-95.2,73.1c0,11.2,3.1,20.2,9.5,27.6c6.5,7.5,14.5,13.2,23.7,16.7
			c9.8,3.7,19.7,7.1,29.5,9.9c10.2,3,19.1,6.7,26.3,11.2c8.2,5.1,12.3,11.8,12.3,20c0,10.5-6,23-34.6,23s-34.6-13.7-34.6-25.2
			c0-1.6,0.2-3.4,0.5-5.2H396.7z"/>
	</g>
	<g>
		<path class="st1" d="M704.2,519.4h-63.7l30.4-173.2H595l10-55.9h215.1l-10,55.9h-75.5L704.2,519.4z M650,511.4h47.5l30.4-173.2
			h75.6l7.2-39.9H611.8l-7.2,39.9h75.8L650,511.4z"/>
	</g>
	<g>
		<path class="st1" d="M955.5,519.4H889l1.8-48.2h-44.2l-15.1,48.2h-67.3l81.8-229.1h108.1L955.5,519.4z M897.3,511.4h50.2
			l-1.2-213.1h-94.6l-76.1,213.1h50l15.1-48.2h58.4L897.3,511.4z M900.3,430h-49.5l26.8-86h26.5L900.3,430z M861.7,422h31l3-70
			h-12.2L861.7,422z"/>
	</g>
	<g>
		<path class="st1" d="M1039.6,519.4h-63.7l40.4-229.1h162.3l-10,55.9h-98.9l-6.3,36.2h81.7l-9.7,55.9h-81.7L1039.6,519.4z
			 M985.4,511.4h47.5l14.1-81.1h81.7l6.9-39.9h-81.7l9.1-52.2h98.9l7.2-39.9h-146L985.4,511.4z"/>
	</g>
	<g>
		<path class="st1" d="M1224.5,519.4h-63.7l40.4-229.1h162.3l-10,55.9h-98.9l-6.3,36.2h81.7l-9.7,55.9h-81.7L1224.5,519.4z
			 M1170.3,511.4h47.5l14.1-81.1h81.7l6.9-39.9h-81.7l9.1-52.2h98.9l7.2-39.9h-146L1170.3,511.4z"/>
	</g>
</g>
<g>
	<g>
		<path class="st0" d="M143.6,787.9c-33.7,0-56.4-6-69.1-18.3c-9.6-9.4-14.4-22.3-14.4-38.5c0-5.9,0.6-12.5,1.9-19.4l1.5-8.2h63.3
			l-1.4,8.5c-0.4,1.8-0.5,3.4-0.5,4.7c0,7.4,2.8,17.2,26.6,17.2c26.6,0,26.6-10.9,26.6-15c0-5.3-2.8-9.6-8.5-13.2
			c-6.6-4.1-14.8-7.5-24.3-10.3c-10-2.9-20.1-6.3-30.1-10.1c-10.5-4-19.6-10.4-26.9-18.9c-7.6-8.8-11.4-19.8-11.4-32.9
			c0-53.8,34.7-81.1,103.2-81.1c24.9,0,44.2,4.9,57.2,14.4c13.4,9.9,20.2,23.7,20.2,41.2c0,6.3-0.8,12.4-2.5,18.1
			c-1.7,5.9-3.4,10-5.3,12.7l-3.6,5.4H180l6.5-6.8c3.8-4,5.6-8.9,5.6-15c0-6.9-2.3-16-22.1-16c-25.9,0-28.9,9.6-28.9,16.9
			c0,5.5,2.8,9.8,8.5,13.1c6.6,3.9,14.7,7,24.2,9.2c10,2.4,20.2,5.4,30.3,8.9c10.7,3.7,19.8,9.9,27.2,18.5
			c7.6,8.8,11.4,20.3,11.4,34.1c0,27.1-8.4,47.7-24.8,61C201.8,781.2,176.7,787.9,143.6,787.9z M70.1,711.4l-0.3,1.7
			c-1.2,6.5-1.8,12.5-1.8,18c0,14.2,3.9,24.9,12,32.8c11,10.7,32.4,16.1,63.5,16.1c31.3,0,54.6-6.1,69.3-18
			c14.5-11.7,21.9-30.2,21.9-54.8c0-11.8-3.2-21.6-9.5-28.9c-6.5-7.5-14.5-12.9-23.8-16.2c-9.9-3.4-19.8-6.3-29.6-8.6
			c-10.3-2.4-19.2-5.8-26.4-10.1c-8.2-4.8-12.4-11.6-12.4-20c0-11.4,6.4-24.9,36.9-24.9c24.9,0,30.1,13,30.1,24
			c0,5.1-1,9.7-3.1,13.8h44.5l1.4-2c0.9-1.3,2.4-4.1,4.1-10.3c1.4-5,2.2-10.4,2.2-16c0-15-5.5-26.3-17-34.7
			c-11.6-8.6-29.3-12.9-52.4-12.9c-64.1,0-95.2,23.9-95.2,73.1c0,11.2,3.1,20.2,9.5,27.6c6.5,7.5,14.5,13.2,23.7,16.7
			c9.8,3.7,19.7,7.1,29.5,9.9c10.2,3,19.1,6.7,26.3,11.2c8.2,5.1,12.3,11.8,12.3,20c0,10.5-6,23-34.6,23s-34.6-13.7-34.6-25.2
			c0-1.6,0.2-3.3,0.5-5.2H70.1z"/>
	</g>
	<g>
		<path class="st0" d="M377.6,783.6h-63.7l30.4-173.2h-75.9l10-55.9h215.1l-10,55.9H408L377.6,783.6z M323.4,775.6h47.5l30.4-173.2
			h75.6l7.2-39.9H285.2l-7.2,39.9h75.8L323.4,775.6z"/>
	</g>
	<g>
		<path class="st0" d="M628.9,783.6h-66.5l1.8-48.2H520L505,783.6h-67.3l81.8-229.1h108.1L628.9,783.6z M570.7,775.6h50.2
			l-1.2-213.1h-94.6L449,775.6h50l15.1-48.2h58.4L570.7,775.6z M573.7,694.2h-49.5l26.8-86h26.5L573.7,694.2z M535.1,686.2h31l3-70
			h-12.2L535.1,686.2z"/>
	</g>
	<g>
		<path class="st0" d="M713,783.6h-63.7l40.4-229.1H852l-10,55.9h-98.9l-6.3,36.2h81.7l-9.7,55.9h-81.7L713,783.6z M658.8,775.6
			h47.5l14.1-81.1h81.7l6.9-39.9h-81.7l9.1-52.2h98.9l7.2-39.9h-146L658.8,775.6z"/>
	</g>
	<g>
		<path class="st0" d="M897.9,783.6h-63.7l40.4-229.1h162.3l-10,55.9H928l-6.3,36.2h81.7l-9.7,55.9H912L897.9,783.6z M843.7,775.6
			h47.5l14.1-81.1H987l6.9-39.9h-81.7l9.1-52.2h98.9l7.2-39.9h-146L843.7,775.6z"/>
	</g>
</g>
<g>
	<g>
		<path class="st0" d="M143.6,1052c-33.7,0-56.4-6-69.1-18.3c-9.6-9.4-14.4-22.3-14.4-38.5c0-5.9,0.6-12.5,1.9-19.5l1.5-8.2h63.3
			l-1.4,8.5c-0.4,1.8-0.5,3.4-0.5,4.7c0,7.4,2.8,17.2,26.6,17.2c26.6,0,26.6-10.9,26.6-15c0-5.3-2.8-9.6-8.5-13.2
			c-6.6-4.1-14.8-7.5-24.3-10.3c-10-2.9-20.1-6.3-30.1-10.1c-10.5-4-19.6-10.4-26.9-18.9c-7.6-8.8-11.4-19.8-11.4-32.9
			c0-53.8,34.7-81.1,103.2-81.1c24.9,0,44.2,4.9,57.2,14.4c13.4,9.9,20.2,23.7,20.2,41.2c0,6.3-0.8,12.4-2.5,18.1
			c-1.7,5.9-3.4,10-5.3,12.7l-3.6,5.4H180l6.5-6.8c3.8-4,5.6-8.9,5.6-15c0-6.9-2.3-16-22.1-16c-28.9,0-28.9,12.7-28.9,16.9
			c0,5.5,2.8,9.8,8.5,13.1c6.6,3.9,14.7,7,24.2,9.2c10,2.4,20.2,5.4,30.3,8.9c10.7,3.7,19.8,9.9,27.2,18.5
			c7.6,8.8,11.4,20.3,11.4,34.1c0,27.1-8.4,47.7-24.8,61C201.8,1045.3,176.7,1052,143.6,1052z M70.1,975.5l-0.3,1.7
			c-1.2,6.5-1.8,12.5-1.8,18c0,14.2,3.9,24.9,12,32.8c11,10.7,32.4,16.1,63.5,16.1c31.3,0,54.6-6.1,69.3-18
			c14.5-11.7,21.9-30.2,21.9-54.8c0-11.8-3.2-21.6-9.5-28.9c-6.5-7.5-14.5-12.9-23.8-16.2c-9.9-3.4-19.8-6.3-29.6-8.6
			c-10.3-2.4-19.2-5.8-26.4-10.1c-8.2-4.8-12.4-11.6-12.4-20c0-11.4,6.4-24.9,36.9-24.9c24.9,0,30.1,13,30.1,24
			c0,5.1-1,9.7-3.1,13.8h44.5l1.4-2c0.9-1.3,2.4-4.1,4.1-10.3c1.4-5,2.2-10.4,2.2-16c0-15-5.5-26.3-17-34.7
			c-11.6-8.6-29.3-12.9-52.4-12.9c-64.1,0-95.2,23.9-95.2,73.1c0,11.2,3.1,20.2,9.5,27.6c6.5,7.5,14.5,13.2,23.7,16.7
			c9.8,3.7,19.7,7.1,29.5,9.9c10.2,3,19.1,6.7,26.3,11.2c8.2,5.1,12.3,11.8,12.3,20c0,10.5-6,23-34.6,23s-34.6-13.7-34.6-25.2
			c0-1.6,0.2-3.4,0.5-5.2H70.1z"/>
	</g>
	<g>
		<path class="st0" d="M377.6,1047.7h-63.7l30.4-173.2h-75.9l10-55.9h215.1l-10,55.9H408L377.6,1047.7z M323.4,1039.7h47.5
			l30.4-173.2h75.6l7.2-39.9H285.2l-7.2,39.9h75.8L323.4,1039.7z"/>
	</g>
	<g>
		<path class="st0" d="M628.9,1047.7h-66.5l1.8-48.2H520l-15.1,48.2h-67.3l81.8-229.1h108.1L628.9,1047.7z M570.7,1039.7h50.2
			l-1.2-213.1h-94.6L449,1039.7h50l15.1-48.2h58.4L570.7,1039.7z M573.7,958.3h-49.5l26.8-86h26.5L573.7,958.3z M535.1,950.3h31
			l3-70h-12.2L535.1,950.3z"/>
	</g>
	<g>
		<path class="st0" d="M713,1047.7h-63.7l40.4-229.1H852l-10,55.9h-98.9l-6.3,36.2h81.7l-9.7,55.9h-81.7L713,1047.7z M658.8,1039.7
			h47.5l14.1-81.1h81.7l6.9-39.9h-81.7l9.1-52.2h98.9l7.2-39.9h-146L658.8,1039.7z"/>
	</g>
	<g>
		<path class="st0" d="M897.9,1047.7h-63.7l40.4-229.1h162.3l-10,55.9H928l-6.3,36.2h81.7l-9.7,55.9H912L897.9,1047.7z
			 M843.7,1039.7h47.5l14.1-81.1H987l6.9-39.9h-81.7l9.1-52.2h98.9l7.2-39.9h-146L843.7,1039.7z"/>
	</g>
</g>
</svg>
