<?xml version="1.0" encoding="utf-8"?>
<!-- Generator: Adobe Illustrator 22.0.1, SVG Export Plug-In . SVG Version: 6.00 Build 0)  -->
<svg version="1.1" id="Capa_1" xmlns="http://www.w3.org/2000/svg" xmlns:xlink="http://www.w3.org/1999/xlink" x="0px" y="0px"
	 width="596.7px" height="166.7px" viewBox="0 0 596.7 166.7" style="enable-background:new 0 0 596.7 166.7;" xml:space="preserve"
	>
<style type="text/css">
	.st0{fill:#ECE052;}
	.st1{fill:none;stroke:#ECE052;stroke-miterlimit:10;}
</style>
<g>
	<path class="st0" d="M47.6,15.1c9.4,0,16,2.4,20,7.1c2.9,3.6,4.4,8,4.4,13.4c0,1.9-0.2,4-0.5,6.1l-4.2,23.9
		c-1.4,8.1-4.9,14.5-10.5,19.4c-5.6,4.9-12.8,7.3-21.6,7.3H4l13.6-77.1H47.6z M40.8,31.8h-7l-7.6,43.7h10.2c3.4,0,6-0.9,7.9-2.7
		c1.9-1.8,3.2-4.8,3.9-8.9l3.1-17.6c0.3-1.6,0.4-3,0.4-4.3C51.8,35.2,48.1,31.8,40.8,31.8z"/>
	<path class="st0" d="M112.8,92.2l0.6-16.8H95.6l-5.2,16.8H69.9l27.5-77.1h35.3l0.4,77.1H112.8z M108.4,33.8L100,61h14l1.2-27.2
		H108.4z"/>
	<path class="st0" d="M188,15.1c8.1,0,13.9,1.8,17.3,5.4c2.6,2.7,3.9,6.1,3.9,10.3c0,1.4-0.1,2.9-0.4,4.5l-1.5,8.4
		c-0.9,4.6-2.3,8.4-4.4,11.2c-2.1,2.9-4.4,4.9-7,6.1l9.7,31.3h-21.6l-9-28.8h-6.6l-4.4,28.8h-20.6l13.6-77.1H188z M181.2,31.8h-8
		l-2.8,18.6h7.5c3.8,0,6.5-0.9,8.1-2.7c1.6-1.8,2.5-4.2,2.5-7.2C188.5,34.7,186.1,31.8,181.2,31.8z"/>
	<path class="st0" d="M254.7,14.3c17.2,0,25.8,7,25.8,21.1c0,2.4-0.3,4.9-0.7,7.6L276,64.4c-1.7,9.9-5.4,17.3-11.1,22.1
		c-5.7,4.8-13.7,7.2-24.1,7.2c-10.4,0-17.6-2.4-21.6-7.2c-2.8-3.3-4.2-7.8-4.2-13.6c0-2.6,0.3-5.4,0.9-8.5l3.7-21.4
		C222.9,23.9,234.6,14.3,254.7,14.3z M243.7,77.1c3.6,0,6.4-0.9,8.6-2.8c2.1-1.9,3.6-5.3,4.5-10.3l3.6-20.6c0.2-1.4,0.3-2.7,0.3-3.9
		c0-5.8-2.9-8.7-8.8-8.7c-7.4,0.1-11.7,4.3-13.2,12.5L235.1,64c-0.3,1.8-0.4,3.6-0.4,5.6C234.7,74.6,237.7,77.1,243.7,77.1z"/>
	<path class="st0" d="M357.2,15.1l-13.5,77.1h-19.4L310.8,50l-7.3,42.2h-19.4l13.6-77.1h19.9l13.3,39.4l7-39.4H357.2z"/>
	<path class="st0" d="M420.7,68.7h-12.7l-4.2,23.5h-19.3l13.6-77.1h32.7c8.1,0,13.8,1.9,17.2,5.6c2.5,2.9,3.7,6.5,3.7,10.9
		c0,1.5-0.1,3.1-0.4,4.7l-2.1,12.1c-1.1,5.9-4.2,10.8-9.4,14.6C434.5,66.8,428.2,68.7,420.7,68.7z M424,31.8h-9.6L410.8,52h9.5
		c5.9,0,9.2-2.6,10.2-7.8l0.7-4.4c0.1-0.6,0.2-1.5,0.2-2.6c0-1.1-0.5-2.2-1.6-3.5C428.8,32.4,426.9,31.8,424,31.8z"/>
	<path class="st0" d="M494.5,14.3c17.2,0,25.8,7,25.8,21.1c0,2.4-0.3,4.9-0.7,7.6l-3.7,21.4c-1.7,9.9-5.4,17.3-11.1,22.1
		c-5.7,4.8-13.7,7.2-24.1,7.2c-10.4,0-17.6-2.4-21.6-7.2c-2.8-3.3-4.2-7.8-4.2-13.6c0-2.6,0.3-5.4,0.9-8.5l3.7-21.4
		C462.7,23.9,474.4,14.3,494.5,14.3z M483.4,77.1c3.6,0,6.4-0.9,8.6-2.8c2.1-1.9,3.6-5.3,4.5-10.3l3.6-20.6c0.2-1.4,0.3-2.7,0.3-3.9
		c0-5.8-2.9-8.7-8.8-8.7c-7.4,0.1-11.7,4.3-13.2,12.5L474.9,64c-0.3,1.8-0.4,3.6-0.4,5.6C474.4,74.6,477.4,77.1,483.4,77.1z"/>
	<path class="st0" d="M577.7,92.2h-53.8l13.6-77.1h53.8l-3,16.7h-34.5l-2.5,14.5h28.5l-3,16.7h-28.5l-2.1,12.5h34.5L577.7,92.2z"/>
	<path class="st0" d="M283.6,118.8c3.9,0,6.7,0.9,8.3,2.6c1.2,1.3,1.9,3,1.9,4.9c0,0.7-0.1,1.4-0.2,2.2l-0.7,4
		c-0.4,2.2-1.1,4-2.1,5.4c-1,1.4-2.1,2.4-3.4,2.9l4.7,15h-10.4l-4.3-13.9h-3.2l-2.1,13.9h-9.9l6.5-37.1H283.6z M280.4,126.8h-3.9
		l-1.3,9h3.6c1.8,0,3.1-0.4,3.9-1.3c0.8-0.9,1.2-2,1.2-3.5C283.9,128.2,282.7,126.8,280.4,126.8z"/>
	<path class="st0" d="M306.7,129.9l-4.5,26h-6.5l4.6-26H306.7z"/>
	<path class="st0" d="M316.4,156.4c-3.4,0-5.8-0.7-7.1-2.2c-0.9-1.1-1.4-2.5-1.4-4.4c0-0.8,0.1-1.7,0.3-2.6l1.5-8.3
		c1.1-6.1,5-9.1,11.7-9.1c2.8,0,4.9,0.6,6.3,1.8c1.4,1.2,2.2,2.8,2.2,4.9c0,1-0.1,1.9-0.4,2.9c-0.3,1-0.5,1.7-0.8,2.1l-0.4,0.7h-6.4
		c0.8-0.9,1.2-2.2,1.2-3.9c0-0.9-0.2-1.6-0.7-2.1c-0.5-0.5-1.1-0.8-2-0.8c-2.4,0-3.9,1.3-4.3,4l-1.3,7.3c-0.1,0.6-0.2,1.2-0.2,1.8
		c0,1.6,0.9,2.4,2.8,2.4c2.3,0,3.7-1.3,4.1-3.9h6.5l-0.2,1C326.8,153.6,323,156.4,316.4,156.4z"/>
	<path class="st0" d="M343.1,155.9l0.2-5.7h-6l-1.8,5.7h-6.9l9.3-26h11.9l0.1,26H343.1z M341.7,136.2l-2.8,9.2h4.7l0.4-9.2H341.7z"
		/>
	<path class="st0" d="M368.5,129.9c2.7,0,4.7,0.6,5.8,1.8c0.9,0.9,1.3,2.1,1.3,3.5c0,0.5,0,1-0.1,1.5l-0.5,2.8
		c-0.3,1.6-0.8,2.8-1.5,3.8c-0.7,1-1.5,1.6-2.4,2.1l3.3,10.5h-7.3l-3-9.7h-2.2l-1.5,9.7h-6.9l4.6-26H368.5z M366.2,135.5h-2.7
		l-0.9,6.3h2.5c1.3,0,2.2-0.3,2.7-0.9c0.6-0.6,0.8-1.4,0.8-2.4C368.6,136.5,367.8,135.5,366.2,135.5z"/>
	<path class="st0" d="M391.8,129.9c3.1,0,5.4,0.8,6.7,2.4c1,1.2,1.5,2.7,1.5,4.5c0,0.6-0.1,1.3-0.2,2.1l-1.4,8
		c-0.5,2.7-1.7,4.9-3.5,6.5c-1.9,1.6-4.3,2.5-7.3,2.5h-10.5l4.6-26H391.8z M389.5,135.5h-2.3l-2.6,14.7h3.4c1.1,0,2-0.3,2.7-0.9
		c0.6-0.6,1.1-1.6,1.3-3l1-5.9c0.1-0.5,0.1-1,0.1-1.4C393.2,136.7,391.9,135.5,389.5,135.5z"/>
	<path class="st0" d="M415.2,129.7c5.8,0,8.7,2.4,8.7,7.1c0,0.8-0.1,1.6-0.3,2.6l-1.3,7.2c-0.6,3.3-1.8,5.8-3.8,7.4
		c-1.9,1.6-4.6,2.4-8.1,2.4c-3.5,0-5.9-0.8-7.3-2.4c-0.9-1.1-1.4-2.6-1.4-4.6c0-0.9,0.1-1.8,0.3-2.8l1.3-7.2
		C404.5,132.9,408.5,129.7,415.2,129.7z M411.5,150.8c1.2,0,2.2-0.3,2.9-0.9c0.7-0.6,1.2-1.8,1.5-3.5l1.2-6.9
		c0.1-0.5,0.1-0.9,0.1-1.3c0-1.9-1-2.9-3-2.9c-2.5,0-4,1.5-4.4,4.2l-1.2,6.9c-0.1,0.6-0.1,1.2-0.1,1.9
		C408.5,150,409.5,150.8,411.5,150.8z"/>
	<path class="st0" d="M459.3,118.8c3.9,0,6.7,0.9,8.3,2.6c1.2,1.3,1.9,3,1.9,4.9c0,0.7-0.1,1.4-0.2,2.2l-0.7,4
		c-0.4,2.2-1.1,4-2.1,5.4c-1,1.4-2.1,2.4-3.4,2.9l4.7,15h-10.4L453,142h-3.2l-2.1,13.9h-9.9l6.5-37.1H459.3z M456.1,126.8h-3.9
		l-1.3,9h3.6c1.8,0,3.1-0.4,3.9-1.3c0.8-0.9,1.2-2,1.2-3.5C459.6,128.2,458.4,126.8,456.1,126.8z"/>
	<path class="st0" d="M489.4,155.9h-18.1l4.6-26H494l-1,5.6h-11.6l-0.8,4.9h9.6l-1,5.6h-9.6l-0.7,4.2h11.6L489.4,155.9z"/>
	<path class="st0" d="M504.3,149.6l6.9-19.7h7l-9.8,26h-11.5l-0.3-26h7.1l-0.1,19.7H504.3z"/>
	<path class="st0" d="M528,129.9l-4.5,26H517l4.6-26H528z"/>
	<path class="st0" d="M545,155.9h-16.4l4.6-26h6.5l-3.6,20.3h10L545,155.9z"/>
	<path class="st0" d="M564.4,155.9h-16.4l4.6-26h6.5l-3.6,20.3h10L564.4,155.9z"/>
	<path class="st0" d="M580.1,155.9l0.2-5.7h-6l-1.8,5.7h-6.9l9.3-26h11.9l0.1,26H580.1z M578.6,136.2l-2.8,9.2h4.7l0.4-9.2H578.6z"
		/>
</g>
<g>
	<path class="st1" d="M43.1,19.6c9.4,0,16,2.4,20,7.1c2.9,3.6,4.4,8,4.4,13.4c0,1.9-0.2,4-0.5,6.1L62.8,70
		c-1.4,8.1-4.9,14.5-10.5,19.4c-5.6,4.9-12.8,7.3-21.6,7.3H-0.5l13.6-77.1H43.1z M36.3,36.3h-7L21.8,80h10.2c3.4,0,6-0.9,7.9-2.7
		c1.9-1.8,3.2-4.8,3.9-8.9l3.1-17.6c0.3-1.6,0.4-3,0.4-4.3C47.3,39.7,43.6,36.3,36.3,36.3z"/>
	<path class="st1" d="M108.3,96.7l0.6-16.8H91.1l-5.2,16.8H65.4l27.5-77.1h35.3l0.4,77.1H108.3z M103.9,38.3l-8.5,27.2h14l1.2-27.2
		H103.9z"/>
	<path class="st1" d="M183.5,19.6c8.1,0,13.9,1.8,17.3,5.4c2.6,2.7,3.9,6.1,3.9,10.3c0,1.4-0.1,2.9-0.4,4.5l-1.5,8.4
		c-0.9,4.6-2.3,8.4-4.4,11.2c-2.1,2.9-4.4,4.9-7,6.1l9.7,31.3h-21.6l-9-28.8h-6.6l-4.4,28.8h-20.6l13.6-77.1H183.5z M176.7,36.3h-8
		l-2.8,18.6h7.5c3.8,0,6.5-0.9,8.1-2.7c1.6-1.8,2.5-4.2,2.5-7.2C184,39.2,181.6,36.3,176.7,36.3z"/>
	<path class="st1" d="M250.2,18.8c17.2,0,25.8,7,25.8,21.1c0,2.4-0.3,4.9-0.7,7.6l-3.7,21.4c-1.7,9.9-5.4,17.3-11.1,22.1
		c-5.7,4.8-13.7,7.2-24.1,7.2c-10.4,0-17.6-2.4-21.6-7.2c-2.8-3.3-4.2-7.8-4.2-13.6c0-2.6,0.3-5.4,0.9-8.5l3.7-21.4
		C218.4,28.4,230.1,18.8,250.2,18.8z M239.2,81.6c3.6,0,6.4-0.9,8.6-2.8c2.1-1.9,3.6-5.3,4.5-10.3l3.6-20.6c0.2-1.4,0.3-2.7,0.3-3.9
		c0-5.8-2.9-8.7-8.8-8.7c-7.4,0.1-11.7,4.3-13.2,12.5l-3.6,20.6c-0.3,1.8-0.4,3.6-0.4,5.6C230.2,79.1,233.2,81.6,239.2,81.6z"/>
	<path class="st1" d="M352.7,19.6l-13.5,77.1h-19.4l-13.5-42.2L299,96.7h-19.4l13.6-77.1h19.9L326.4,59l7-39.4H352.7z"/>
	<path class="st1" d="M416.2,73.2h-12.7l-4.2,23.5H380l13.6-77.1h32.7c8.1,0,13.8,1.9,17.2,5.6c2.5,2.9,3.7,6.5,3.7,10.9
		c0,1.5-0.1,3.1-0.4,4.7l-2.1,12.1c-1.1,5.9-4.2,10.8-9.4,14.6C430,71.3,423.7,73.2,416.2,73.2z M419.5,36.3h-9.6l-3.5,20.2h9.5
		c5.9,0,9.2-2.6,10.2-7.8l0.7-4.4c0.1-0.6,0.2-1.5,0.2-2.6c0-1.1-0.5-2.2-1.6-3.5C424.3,36.9,422.4,36.3,419.5,36.3z"/>
	<path class="st1" d="M490,18.8c17.2,0,25.8,7,25.8,21.1c0,2.4-0.3,4.9-0.7,7.6l-3.7,21.4c-1.7,9.9-5.4,17.3-11.1,22.1
		c-5.7,4.8-13.7,7.2-24.1,7.2c-10.4,0-17.6-2.4-21.6-7.2c-2.8-3.3-4.2-7.8-4.2-13.6c0-2.6,0.3-5.4,0.9-8.5l3.7-21.4
		C458.2,28.4,469.9,18.8,490,18.8z M478.9,81.6c3.6,0,6.4-0.9,8.6-2.8c2.1-1.9,3.6-5.3,4.5-10.3l3.6-20.6c0.2-1.4,0.3-2.7,0.3-3.9
		c0-5.8-2.9-8.7-8.8-8.7c-7.4,0.1-11.7,4.3-13.2,12.5l-3.6,20.6c-0.3,1.8-0.4,3.6-0.4,5.6C469.9,79.1,472.9,81.6,478.9,81.6z"/>
	<path class="st1" d="M573.2,96.7h-53.8L533,19.6h53.8l-3,16.7h-34.5l-2.5,14.5h28.5l-3,16.7h-28.5L541.7,80h34.5L573.2,96.7z"/>
	<path class="st1" d="M279.1,123.3c3.9,0,6.7,0.9,8.3,2.6c1.2,1.3,1.9,3,1.9,4.9c0,0.7-0.1,1.4-0.2,2.2l-0.7,4
		c-0.4,2.2-1.1,4-2.1,5.4c-1,1.4-2.1,2.4-3.4,2.9l4.7,15h-10.4l-4.3-13.9h-3.2l-2.1,13.9h-9.9l6.5-37.1H279.1z M275.9,131.3H272
		l-1.3,9h3.6c1.8,0,3.1-0.4,3.9-1.3c0.8-0.9,1.2-2,1.2-3.5C279.4,132.7,278.2,131.3,275.9,131.3z"/>
	<path class="st1" d="M302.2,134.4l-4.5,26h-6.5l4.6-26H302.2z"/>
	<path class="st1" d="M311.9,160.9c-3.4,0-5.8-0.7-7.1-2.2c-0.9-1.1-1.4-2.5-1.4-4.4c0-0.8,0.1-1.7,0.3-2.6l1.5-8.3
		c1.1-6.1,5-9.1,11.7-9.1c2.8,0,4.9,0.6,6.3,1.8c1.4,1.2,2.2,2.8,2.2,4.9c0,1-0.1,1.9-0.4,2.9c-0.3,1-0.5,1.7-0.8,2.1l-0.4,0.7h-6.4
		c0.8-0.9,1.2-2.2,1.2-3.9c0-0.9-0.2-1.6-0.7-2.1c-0.5-0.5-1.1-0.8-2-0.8c-2.4,0-3.9,1.3-4.3,4l-1.3,7.3c-0.1,0.6-0.2,1.2-0.2,1.8
		c0,1.6,0.9,2.4,2.8,2.4c2.3,0,3.7-1.3,4.1-3.9h6.5l-0.2,1C322.3,158.1,318.5,160.9,311.9,160.9z"/>
	<path class="st1" d="M338.6,160.4l0.2-5.7h-6l-1.8,5.7h-6.9l9.3-26h11.9l0.1,26H338.6z M337.2,140.7l-2.8,9.2h4.7l0.4-9.2H337.2z"
		/>
	<path class="st1" d="M364,134.4c2.7,0,4.7,0.6,5.8,1.8c0.9,0.9,1.3,2.1,1.3,3.5c0,0.5,0,1-0.1,1.5l-0.5,2.8
		c-0.3,1.6-0.8,2.8-1.5,3.8c-0.7,1-1.5,1.6-2.4,2.1l3.3,10.5h-7.3l-3-9.7h-2.2l-1.5,9.7h-6.9l4.6-26H364z M361.7,140H359l-0.9,6.3
		h2.5c1.3,0,2.2-0.3,2.7-0.9c0.6-0.6,0.8-1.4,0.8-2.4C364.1,141,363.3,140,361.7,140z"/>
	<path class="st1" d="M387.3,134.4c3.1,0,5.4,0.8,6.7,2.4c1,1.2,1.5,2.7,1.5,4.5c0,0.6-0.1,1.3-0.2,2.1l-1.4,8
		c-0.5,2.7-1.7,4.9-3.5,6.5c-1.9,1.6-4.3,2.5-7.3,2.5h-10.5l4.6-26H387.3z M385,140h-2.3l-2.6,14.7h3.4c1.1,0,2-0.3,2.7-0.9
		c0.6-0.6,1.1-1.6,1.3-3l1-5.9c0.1-0.5,0.1-1,0.1-1.4C388.7,141.2,387.4,140,385,140z"/>
	<path class="st1" d="M410.7,134.2c5.8,0,8.7,2.4,8.7,7.1c0,0.8-0.1,1.6-0.3,2.6l-1.3,7.2c-0.6,3.3-1.8,5.8-3.8,7.4
		c-1.9,1.6-4.6,2.4-8.1,2.4c-3.5,0-5.9-0.8-7.3-2.4c-0.9-1.1-1.4-2.6-1.4-4.6c0-0.9,0.1-1.8,0.3-2.8l1.3-7.2
		C400,137.4,404,134.2,410.7,134.2z M407,155.3c1.2,0,2.2-0.3,2.9-0.9c0.7-0.6,1.2-1.8,1.5-3.5l1.2-6.9c0.1-0.5,0.1-0.9,0.1-1.3
		c0-1.9-1-2.9-3-2.9c-2.5,0-4,1.5-4.4,4.2l-1.2,6.9c-0.1,0.6-0.1,1.2-0.1,1.9C404,154.5,405,155.3,407,155.3z"/>
	<path class="st1" d="M454.8,123.3c3.9,0,6.7,0.9,8.3,2.6c1.2,1.3,1.9,3,1.9,4.9c0,0.7-0.1,1.4-0.2,2.2l-0.7,4
		c-0.4,2.2-1.1,4-2.1,5.4c-1,1.4-2.1,2.4-3.4,2.9l4.7,15h-10.4l-4.3-13.9h-3.2l-2.1,13.9h-9.9l6.5-37.1H454.8z M451.6,131.3h-3.9
		l-1.3,9h3.6c1.8,0,3.1-0.4,3.9-1.3c0.8-0.9,1.2-2,1.2-3.5C455.1,132.7,453.9,131.3,451.6,131.3z"/>
	<path class="st1" d="M484.9,160.4h-18.1l4.6-26h18.1l-1,5.6h-11.6l-0.8,4.9h9.6l-1,5.6h-9.6l-0.7,4.2h11.6L484.9,160.4z"/>
	<path class="st1" d="M499.8,154.1l6.9-19.7h7l-9.8,26h-11.5l-0.3-26h7.1l-0.1,19.7H499.8z"/>
	<path class="st1" d="M523.5,134.4l-4.5,26h-6.5l4.6-26H523.5z"/>
	<path class="st1" d="M540.5,160.4h-16.4l4.6-26h6.5l-3.6,20.3h10L540.5,160.4z"/>
	<path class="st1" d="M559.9,160.4h-16.4l4.6-26h6.5l-3.6,20.3h10L559.9,160.4z"/>
	<path class="st1" d="M575.6,160.4l0.2-5.7h-6l-1.8,5.7h-6.9l9.3-26h11.9l0.1,26H575.6z M574.1,140.7l-2.8,9.2h4.7l0.4-9.2H574.1z"
		/>
</g>
</svg>
